  0
SECTION
  2
HEADER
  9
$ACADVER
  1
AC1032
  9
$ACADMAINTVER
 90
       55
  9
$DWGCODEPAGE
  3
ANSI_936
  9
$LASTSAVEDBY
  1
CXPPC
  9
$REQUIREDVERSIONS
160
                 0
  9
$INSBASE
 10
0.0
 20
0.0
 30
0.0
  9
$EXTMIN
 10
0.0
 20
0.0
 30
0.0
  9
$EXTMAX
 10
440.0
 20
240.0
 30
0.0
  9
$LIMMIN
 10
0.0
 20
0.0
  9
$LIMMAX
 10
12.0
 20
9.0
  9
$ORTHOMODE
 70
     0
  9
$REGENMODE
 70
     1
  9
$FILLMODE
 70
     1
  9
$QTEXTMODE
 70
     0
  9
$MIRRTEXT
 70
     0
  9
$LTSCALE
 40
1.0
  9
$ATTMODE
 70
     1
  9
$TEXTSIZE
 40
0.2
  9
$TRACEWID
 40
0.05
  9
$TEXTSTYLE
  7
Standard
  9
$CLAYER
  8
0
  9
$CELTYPE
  6
Continuous
  9
$CECOLOR
 62
   256
  9
$CELTSCALE
 40
1.0
  9
$DISPSILH
 70
     0
  9
$DIMSCALE
 40
1.0
  9
$DIMASZ
 40
0.18
  9
$DIMEXO
 40
0.0625
  9
$DIMDLI
 40
0.38
  9
$DIMRND
 40
0.0
  9
$DIMDLE
 40
0.0
  9
$DIMEXE
 40
0.18
  9
$DIMTP
 40
0.0
  9
$DIMTM
 40
0.0
  9
$DIMTXT
 40
0.18
  9
$DIMCEN
 40
0.09
  9
$DIMTSZ
 40
0.0
  9
$DIMTOL
 70
     0
  9
$DIMLIM
 70
     0
  9
$DIMTIH
 70
     1
  9
$DIMTOH
 70
     1
  9
$DIMSE1
 70
     0
  9
$DIMSE2
 70
     0
  9
$DIMTAD
 70
     0
  9
$DIMZIN
 70
     0
  9
$DIMBLK
  1

  9
$DIMASO
 70
     1
  9
$DIMSHO
 70
     1
  9
$DIMPOST
  1

  9
$DIMAPOST
  1

  9
$DIMALT
 70
     0
  9
$DIMALTD
 70
     2
  9
$DIMALTF
 40
25.4
  9
$DIMLFAC
 40
1.0
  9
$DIMTOFL
 70
     0
  9
$DIMTVP
 40
0.0
  9
$DIMTIX
 70
     0
  9
$DIMSOXD
 70
     0
  9
$DIMSAH
 70
     0
  9
$DIMBLK1
  1

  9
$DIMBLK2
  1

  9
$DIMSTYLE
  2
Standard
  9
$DIMCLRD
 70
     0
  9
$DIMCLRE
 70
     0
  9
$DIMCLRT
 70
     0
  9
$DIMTFAC
 40
1.0
  9
$DIMGAP
 40
0.09
  9
$DIMJUST
 70
     0
  9
$DIMSD1
 70
     0
  9
$DIMSD2
 70
     0
  9
$DIMTOLJ
 70
     1
  9
$DIMTZIN
 70
     0
  9
$DIMALTZ
 70
     0
  9
$DIMALTTZ
 70
     0
  9
$DIMUPT
 70
     0
  9
$DIMDEC
 70
     4
  9
$DIMTDEC
 70
     4
  9
$DIMALTU
 70
     2
  9
$DIMALTTD
 70
     2
  9
$DIMTXSTY
  7
Standard
  9
$DIMAUNIT
 70
     0
  9
$DIMADEC
 70
     0
  9
$DIMALTRND
 40
0.0
  9
$DIMAZIN
 70
     0
  9
$DIMDSEP
 70
    46
  9
$DIMATFIT
 70
     3
  9
$DIMFRAC
 70
     0
  9
$DIMLDRBLK
  1

  9
$DIMLUNIT
 70
     2
  9
$DIMLWD
 70
    -2
  9
$DIMLWE
 70
    -2
  9
$DIMTMOVE
 70
     0
  9
$DIMFXL
 40
1.0
  9
$DIMFXLON
 70
     0
  9
$DIMJOGANG
 40
0.7853981633974483
  9
$DIMTFILL
 70
     0
  9
$DIMTFILLCLR
 70
     0
  9
$DIMARCSYM
 70
     0
  9
$DIMLTYPE
  6

  9
$DIMLTEX1
  6

  9
$DIMLTEX2
  6

  9
$DIMTXTDIRECTION
 70
     0
  9
$LUNITS
 70
     2
  9
$LUPREC
 70
     4
  9
$SKETCHINC
 40
0.1
  9
$FILLETRAD
 40
0.0
  9
$AUNITS
 70
     0
  9
$AUPREC
 70
     0
  9
$MENU
  1
.
  9
$ELEVATION
 40
0.0
  9
$PELEVATION
 40
0.0
  9
$THICKNESS
 40
0.0
  9
$LIMCHECK
 70
     0
  9
$CHAMFERA
 40
0.0
  9
$CHAMFERB
 40
0.0
  9
$CHAMFERC
 40
0.0
  9
$CHAMFERD
 40
0.0
  9
$SKPOLY
 70
     0
  9
$TDCREATE
 40
2459200.772418982
  9
$TDUCREATE
 40
2459200.439085648
  9
$TDUPDATE
 40
2459200.798240741
  9
$TDUUPDATE
 40
2459200.464907407
  9
$TDINDWG
 40
0.0258217593
  9
$TDUSRTIMER
 40
0.0258217593
  9
$USRTIMER
 70
     1
  9
$ANGBASE
 50
0.0
  9
$ANGDIR
 70
     0
  9
$PDMODE
 70
     0
  9
$PDSIZE
 40
0.0
  9
$PLINEWID
 40
0.0
  9
$SPLFRAME
 70
     0
  9
$SPLINETYPE
 70
     6
  9
$SPLINESEGS
 70
     8
  9
$HANDSEED
  5
6DD
  9
$SURFTAB1
 70
     6
  9
$SURFTAB2
 70
     6
  9
$SURFTYPE
 70
     6
  9
$SURFU
 70
     6
  9
$SURFV
 70
     6
  9
$UCSBASE
  2

  9
$UCSNAME
  2

  9
$UCSORG
 10
0.0
 20
0.0
 30
0.0
  9
$UCSXDIR
 10
1.0
 20
0.0
 30
0.0
  9
$UCSYDIR
 10
0.0
 20
1.0
 30
0.0
  9
$UCSORTHOREF
  2

  9
$UCSORTHOVIEW
 70
     0
  9
$UCSORGTOP
 10
0.0
 20
0.0
 30
0.0
  9
$UCSORGBOTTOM
 10
0.0
 20
0.0
 30
0.0
  9
$UCSORGLEFT
 10
0.0
 20
0.0
 30
0.0
  9
$UCSORGRIGHT
 10
0.0
 20
0.0
 30
0.0
  9
$UCSORGFRONT
 10
0.0
 20
0.0
 30
0.0
  9
$UCSORGBACK
 10
0.0
 20
0.0
 30
0.0
  9
$PUCSBASE
  2

  9
$PUCSNAME
  2

  9
$PUCSORG
 10
0.0
 20
0.0
 30
0.0
  9
$PUCSXDIR
 10
1.0
 20
0.0
 30
0.0
  9
$PUCSYDIR
 10
0.0
 20
1.0
 30
0.0
  9
$PUCSORTHOREF
  2

  9
$PUCSORTHOVIEW
 70
     0
  9
$PUCSORGTOP
 10
0.0
 20
0.0
 30
0.0
  9
$PUCSORGBOTTOM
 10
0.0
 20
0.0
 30
0.0
  9
$PUCSORGLEFT
 10
0.0
 20
0.0
 30
0.0
  9
$PUCSORGRIGHT
 10
0.0
 20
0.0
 30
0.0
  9
$PUCSORGFRONT
 10
0.0
 20
0.0
 30
0.0
  9
$PUCSORGBACK
 10
0.0
 20
0.0
 30
0.0
  9
$USERI1
 70
     0
  9
$USERI2
 70
     0
  9
$USERI3
 70
     0
  9
$USERI4
 70
     0
  9
$USERI5
 70
     0
  9
$USERR1
 40
0.0
  9
$USERR2
 40
0.0
  9
$USERR3
 40
0.0
  9
$USERR4
 40
0.0
  9
$USERR5
 40
0.0
  9
$WORLDVIEW
 70
     1
  9
$SHADEDGE
 70
     3
  9
$SHADEDIF
 70
    70
  9
$TILEMODE
 70
     1
  9
$MAXACTVP
 70
    64
  9
$PINSBASE
 10
0.0
 20
0.0
 30
0.0
  9
$PLIMCHECK
 70
     0
  9
$PEXTMIN
 10
1.000000000000000E+20
 20
1.000000000000000E+20
 30
1.000000000000000E+20
  9
$PEXTMAX
 10
-1.000000000000000E+20
 20
-1.000000000000000E+20
 30
-1.000000000000000E+20
  9
$PLIMMIN
 10
0.0
 20
0.0
  9
$PLIMMAX
 10
12.0
 20
9.0
  9
$UNITMODE
 70
     0
  9
$VISRETAIN
 70
     1
  9
$PLINEGEN
 70
     0
  9
$PSLTSCALE
 70
     1
  9
$TREEDEPTH
 70
  3020
  9
$CMLSTYLE
  2
Standard
  9
$CMLJUST
 70
     0
  9
$CMLSCALE
 40
1.0
  9
$PROXYGRAPHICS
 70
     1
  9
$MEASUREMENT
 70
     0
  9
$CELWEIGHT
370
    -1
  9
$ENDCAPS
280
     0
  9
$JOINSTYLE
280
     0
  9
$LWDISPLAY
290
     0
  9
$INSUNITS
 70
     1
  9
$HYPERLINKBASE
  1

  9
$STYLESHEET
  1

  9
$XEDIT
290
     1
  9
$CEPSNTYPE
380
     0
  9
$PSTYLEMODE
290
     1
  9
$FINGERPRINTGUID
  2
{AFEC93B2-5FDB-F64D-861C-33A67C19A02E}
  9
$VERSIONGUID
  2
{2B80634D-A09D-C448-B0FE-A7C404B82275}
  9
$EXTNAMES
290
     1
  9
$PSVPSCALE
 40
0.0
  9
$OLESTARTUP
290
     0
  9
$SORTENTS
280
   127
  9
$INDEXCTL
280
     0
  9
$HIDETEXT
280
     0
  9
$XCLIPFRAME
280
     2
  9
$HALOGAP
280
     0
  9
$OBSCOLOR
 70
   257
  9
$OBSLTYPE
280
     0
  9
$INTERSECTIONDISPLAY
280
     0
  9
$INTERSECTIONCOLOR
 70
   257
  9
$DIMASSOC
280
     1
  9
$PROJECTNAME
  1

  9
$CAMERADISPLAY
290
     0
  9
$LENSLENGTH
 40
50.0
  9
$CAMERAHEIGHT
 40
0.0
  9
$STEPSPERSEC
 40
2.0
  9
$STEPSIZE
 40
6.0
  9
$3DDWFPREC
 40
2.0
  9
$PSOLWIDTH
 40
0.25
  9
$PSOLHEIGHT
 40
4.0
  9
$LOFTANG1
 40
1.570796326794896
  9
$LOFTANG2
 40
1.570796326794896
  9
$LOFTMAG1
 40
0.0
  9
$LOFTMAG2
 40
0.0
  9
$LOFTPARAM
 70
     7
  9
$LOFTNORMALS
280
     1
  9
$LATITUDE
 40
37.795
  9
$LONGITUDE
 40
-122.394
  9
$NORTHDIRECTION
 40
0.0
  9
$TIMEZONE
 70
 -8000
  9
$LIGHTGLYPHDISPLAY
280
     1
  9
$TILEMODELIGHTSYNCH
280
     1
  9
$CMATERIAL
347
11
  9
$SOLIDHIST
280
     0
  9
$SHOWHIST
280
     1
  9
$DWFFRAME
280
     2
  9
$DGNFRAME
280
     0
  9
$REALWORLDSCALE
290
     1
  9
$INTERFERECOLOR
 62
     1
  9
$INTERFEREOBJVS
345
33
  9
$INTERFEREVPVS
346
30
  9
$CSHADOW
280
     0
  9
$SHADOWPLANELOCATION
 40
0.0
  0
ENDSEC
  0
SECTION
  2
CLASSES
  0
CLASS
  1
ACDBDICTIONARYWDFLT
  2
AcDbDictionaryWithDefault
  3
ObjectDBX Classes
 90
        0
 91
        1
280
     0
281
     0
  0
CLASS
  1
MATERIAL
  2
AcDbMaterial
  3
ObjectDBX Classes
 90
     1153
 91
        3
280
     0
281
     0
  0
CLASS
  1
VISUALSTYLE
  2
AcDbVisualStyle
  3
ObjectDBX Classes
 90
     4095
 91
       24
280
     0
281
     0
  0
CLASS
  1
SCALE
  2
AcDbScale
  3
ObjectDBX Classes
 90
     1153
 91
       17
280
     0
281
     0
  0
CLASS
  1
TABLESTYLE
  2
AcDbTableStyle
  3
ObjectDBX Classes
 90
     4095
 91
        1
280
     0
281
     0
  0
CLASS
  1
MLEADERSTYLE
  2
AcDbMLeaderStyle
  3
ACDB_MLEADERSTYLE_CLASS
 90
     4095
 91
        1
280
     0
281
     0
  0
CLASS
  1
ACDBSECTIONVIEWSTYLE
  2
AcDbSectionViewStyle
  3
ObjectDBX Classes
 90
     1025
 91
        1
280
     0
281
     0
  0
CLASS
  1
ACDBDETAILVIEWSTYLE
  2
AcDbDetailViewStyle
  3
ObjectDBX Classes
 90
     1025
 91
        1
280
     0
281
     0
  0
CLASS
  1
SORTENTSTABLE
  2
AcDbSortentsTable
  3
ObjectDBX Classes
 90
        0
 91
        1
280
     0
281
     0
  0
CLASS
  1
DICTIONARYVAR
  2
AcDbDictionaryVar
  3
ObjectDBX Classes
 90
        0
 91
       27
280
     0
281
     0
  0
CLASS
  1
CELLSTYLEMAP
  2
AcDbCellStyleMap
  3
ObjectDBX Classes
 90
     1152
 91
        2
280
     0
281
     0
  0
ENDSEC
  0
SECTION
  2
TABLES
  0
TABLE
  2
VPORT
  5
8
330
0
100
AcDbSymbolTable
 70
     1
  0
VPORT
  5
74
330
8
100
AcDbSymbolTableRecord
100
AcDbViewportTableRecord
  2
*Active
 70
     0
 10
0.0
 20
0.0
 11
1.0
 21
1.0
 12
-183.1574728191835
 22
-1580.494251158529
 13
0.0
 23
0.0
 14
1.0
 24
1.0
 15
0.0
 25
0.0
 16
0.0
 26
0.0
 36
1.0
 17
0.0
 27
0.0
 37
0.0
 40
7590.54292713654
 41
1.374536464771322
 42
50.0
 43
0.0
 44
0.0
 50
0.0
 51
0.0
 71
     0
 72
   100
 73
     1
 74
     0
 75
     1
 76
     0
 77
     0
 78
     0
281
     0
 65
     1
110
0.0
120
0.0
130
0.0
111
1.0
121
0.0
131
0.0
112
0.0
122
1.0
132
0.0
 79
     0
146
0.0
348
2F
 60
     3
 61
     5
292
     1
282
     1
141
0.0
142
0.0
 63
   250
421
  3355443
1001
ACAD_NAV_VCDISPLAY
1070
     3
  0
ENDTAB
  0
TABLE
  2
LTYPE
  5
5
330
0
100
AcDbSymbolTable
 70
     2
  0
LTYPE
  5
5A
330
5
100
AcDbSymbolTableRecord
100
AcDbLinetypeTableRecord
  2
ByBlock
 70
     0
  3

 72
    65
 73
     0
 40
0.0
  0
LTYPE
  5
5B
330
5
100
AcDbSymbolTableRecord
100
AcDbLinetypeTableRecord
  2
ByLayer
 70
     0
  3

 72
    65
 73
     0
 40
0.0
  0
LTYPE
  5
5C
330
5
100
AcDbSymbolTableRecord
100
AcDbLinetypeTableRecord
  2
Continuous
 70
     0
  3
Solid line
 72
    65
 73
     0
 40
0.0
  0
ENDTAB
  0
TABLE
  2
LAYER
  5
2
102
{ACAD_XDICTIONARY
360
6D4
102
}
330
0
100
AcDbSymbolTable
 70
    13
  0
LAYER
  5
54
102
{ACAD_XDICTIONARY
360
6AA
102
}
330
2
100
AcDbSymbolTableRecord
100
AcDbLayerTableRecord
  2
0
 70
     0
 62
     7
  6
Continuous
370
    -3
390
F
347
21
348
0
  0
LAYER
  5
75
102
{ACAD_XDICTIONARY
360
6AC
102
}
330
2
100
AcDbSymbolTableRecord
100
AcDbLayerTableRecord
  2
front_outsideCutPath
 70
     0
 62
     7
  6
Continuous
370
    -3
390
F
347
21
348
0
  0
LAYER
  5
E6
102
{ACAD_XDICTIONARY
360
6AE
102
}
330
2
100
AcDbSymbolTableRecord
100
AcDbLayerTableRecord
  2
front_labelLayer
 70
     0
 62
     7
  6
Continuous
370
    -3
390
F
347
21
348
0
  0
LAYER
  5
180
102
{ACAD_XDICTIONARY
360
6B0
102
}
330
2
100
AcDbSymbolTableRecord
100
AcDbLayerTableRecord
  2
left_outsideCutPath
 70
     0
 62
     7
  6
Continuous
370
    -3
390
F
347
21
348
0
  0
LAYER
  5
1BA
102
{ACAD_XDICTIONARY
360
6B2
102
}
330
2
100
AcDbSymbolTableRecord
100
AcDbLayerTableRecord
  2
left_labelLayer
 70
     0
 62
     7
  6
Continuous
370
    -3
390
F
347
21
348
0
  0
LAYER
  5
224
102
{ACAD_XDICTIONARY
360
6B4
102
}
330
2
100
AcDbSymbolTableRecord
100
AcDbLayerTableRecord
  2
top_outsideCutPath
 70
     0
 62
     7
  6
Continuous
370
    -3
390
F
347
21
348
0
  0
LAYER
  5
282
102
{ACAD_XDICTIONARY
360
6B6
102
}
330
2
100
AcDbSymbolTableRecord
100
AcDbLayerTableRecord
  2
top_labelLayer
 70
     0
 62
     7
  6
Continuous
370
    -3
390
F
347
21
348
0
  0
LAYER
  5
301
102
{ACAD_XDICTIONARY
360
6B8
102
}
330
2
100
AcDbSymbolTableRecord
100
AcDbLayerTableRecord
  2
back_outsideCutPath
 70
     0
 62
     7
  6
Continuous
370
    -3
390
F
347
21
348
0
  0
LAYER
  5
356
102
{ACAD_XDICTIONARY
360
6BA
102
}
330
2
100
AcDbSymbolTableRecord
100
AcDbLayerTableRecord
  2
back_labelLayer
 70
     0
 62
     7
  6
Continuous
370
    -3
390
F
347
21
348
0
  0
LAYER
  5
3FF
102
{ACAD_XDICTIONARY
360
6BC
102
}
330
2
100
AcDbSymbolTableRecord
100
AcDbLayerTableRecord
  2
right_outsideCutPath
 70
     0
 62
     7
  6
Continuous
370
    -3
390
F
347
21
348
0
  0
LAYER
  5
42C
102
{ACAD_XDICTIONARY
360
6BE
102
}
330
2
100
AcDbSymbolTableRecord
100
AcDbLayerTableRecord
  2
right_labelLayer
 70
     0
 62
     7
  6
Continuous
370
    -3
390
F
347
21
348
0
  0
LAYER
  5
508
102
{ACAD_XDICTIONARY
360
6C0
102
}
330
2
100
AcDbSymbolTableRecord
100
AcDbLayerTableRecord
  2
bottom_outsideCutPath
 70
     0
 62
     7
  6
Continuous
370
    -3
390
F
347
21
348
0
  0
LAYER
  5
54F
102
{ACAD_XDICTIONARY
360
6C2
102
}
330
2
100
AcDbSymbolTableRecord
100
AcDbLayerTableRecord
  2
bottom_labelLayer
 70
     0
 62
     7
  6
Continuous
370
    -3
390
F
347
21
348
0
  0
ENDTAB
  0
TABLE
  2
STYLE
  5
3
330
0
100
AcDbSymbolTable
 70
     2
  0
STYLE
  5
55
330
3
100
AcDbSymbolTableRecord
100
AcDbTextStyleTableRecord
  2
Standard
 70
     0
 40
0.0
 41
1.0
 50
0.0
 71
     0
 42
0.2
  3
txt
  4

  0
STYLE
  5
59
330
3
100
AcDbSymbolTableRecord
100
AcDbTextStyleTableRecord
  2
Annotative
 70
     0
 40
0.0
 41
1.0
 50
0.0
 71
     0
 42
0.2
  3
txt
  4

1001
AcadAnnotative
1000
AnnotativeData
1002
{
1070
     1
1070
     1
1002
}
  0
ENDTAB
  0
TABLE
  2
VIEW
  5
6
330
0
100
AcDbSymbolTable
 70
     1
  0
ENDTAB
  0
TABLE
  2
UCS
  5
7
330
0
100
AcDbSymbolTable
 70
     0
  0
ENDTAB
  0
TABLE
  2
APPID
  5
9
330
0
100
AcDbSymbolTable
 70
     4
  0
APPID
  5
56
330
9
100
AcDbSymbolTableRecord
100
AcDbRegAppTableRecord
  2
ACAD
 70
     0
  0
APPID
  5
5D
330
9
100
AcDbSymbolTableRecord
100
AcDbRegAppTableRecord
  2
AcadAnnotative
 70
     0
  0
APPID
  5
64F
330
9
100
AcDbSymbolTableRecord
100
AcDbRegAppTableRecord
  2
ACAD_EXEMPT_FROM_CAD_STANDARDS
 70
     0
  0
APPID
  5
67C
330
9
100
AcDbSymbolTableRecord
100
AcDbRegAppTableRecord
  2
ACAD_NAV_VCDISPLAY
 70
     0
  0
ENDTAB
  0
TABLE
  2
DIMSTYLE
  5
A
330
0
100
AcDbSymbolTable
 70
     3
100
AcDbDimStyleTable
 71
     1
340
57
  0
DIMSTYLE
105
57
330
A
100
AcDbSymbolTableRecord
100
AcDbDimStyleTableRecord
  2
Standard
 70
     0
340
55
  0
DIMSTYLE
105
58
330
A
100
AcDbSymbolTableRecord
100
AcDbDimStyleTableRecord
  2
Annotative
 70
     0
340
55
1001
AcadAnnotative
1000
AnnotativeData
1002
{
1070
     1
1070
     1
1002
}
  0
ENDTAB
  0
TABLE
  2
BLOCK_RECORD
  5
1
330
0
100
AcDbSymbolTable
 70
     1
  0
BLOCK_RECORD
  5
6F
102
{ACAD_XDICTIONARY
360
674
102
}
330
1
100
AcDbSymbolTableRecord
100
AcDbBlockTableRecord
  2
*Model_Space
340
72
 70
     0
280
     1
281
     0
  0
BLOCK_RECORD
  5
6B
330
1
100
AcDbSymbolTableRecord
100
AcDbBlockTableRecord
  2
*Paper_Space
340
6E
 70
     0
280
     1
281
     0
  0
ENDTAB
  0
ENDSEC
  0
SECTION
  2
BLOCKS
  0
BLOCK
  5
70
330
6F
100
AcDbEntity
  8
0
100
AcDbBlockBegin
  2
*Model_Space
 70
     0
 10
0.0
 20
0.0
 30
0.0
  3
*Model_Space
  1

  0
ENDBLK
  5
71
330
6F
100
AcDbEntity
  8
0
100
AcDbBlockEnd
  0
BLOCK
  5
6C
330
6B
100
AcDbEntity
 67
     1
  8
0
100
AcDbBlockBegin
  2
*Paper_Space
 70
     0
 10
0.0
 20
0.0
 30
0.0
  3
*Paper_Space
  1

  0
ENDBLK
  5
6D
330
6B
100
AcDbEntity
 67
     1
  8
0
100
AcDbBlockEnd
  0
ENDSEC
  0
SECTION
  2
ENTITIES
  0
LINE
  5
76
330
6F
100
AcDbEntity
  8
front_outsideCutPath
100
AcDbLine
 10
0.0
 20
103.875
 30
0.0
 11
0.0
 21
126.375
 31
0.0
  0
LINE
  5
77
330
6F
100
AcDbEntity
  8
front_outsideCutPath
100
AcDbLine
 10
0.0
 20
103.875
 30
0.0
 11
3.0
 21
103.875
 31
0.0
  0
LINE
  5
78
330
6F
100
AcDbEntity
  8
front_outsideCutPath
100
AcDbLine
 10
3.0
 20
103.875
 30
0.0
 11
3.0
 21
94.12499999999999
 31
0.0
  0
LINE
  5
79
330
6F
100
AcDbEntity
  8
front_outsideCutPath
100
AcDbLine
 10
3.0
 20
94.12499999999999
 30
0.0
 11
0.0
 21
94.12499999999999
 31
0.0
  0
LINE
  5
7A
330
6F
100
AcDbEntity
  8
front_outsideCutPath
100
AcDbLine
 10
0.0
 20
94.12499999999999
 30
0.0
 11
0.0
 21
84.375
 31
0.0
  0
LINE
  5
7B
330
6F
100
AcDbEntity
  8
front_outsideCutPath
100
AcDbLine
 10
0.0
 20
84.375
 30
0.0
 11
3.0
 21
84.375
 31
0.0
  0
LINE
  5
7C
330
6F
100
AcDbEntity
  8
front_outsideCutPath
100
AcDbLine
 10
3.0
 20
84.375
 30
0.0
 11
3.0
 21
74.625
 31
0.0
  0
LINE
  5
7D
330
6F
100
AcDbEntity
  8
front_outsideCutPath
100
AcDbLine
 10
3.0
 20
74.625
 30
0.0
 11
0.0
 21
74.625
 31
0.0
  0
LINE
  5
7E
330
6F
100
AcDbEntity
  8
front_outsideCutPath
100
AcDbLine
 10
0.0
 20
74.625
 30
0.0
 11
0.0
 21
64.875
 31
0.0
  0
LINE
  5
7F
330
6F
100
AcDbEntity
  8
front_outsideCutPath
100
AcDbLine
 10
0.0
 20
64.875
 30
0.0
 11
3.0
 21
64.875
 31
0.0
  0
LINE
  5
80
330
6F
100
AcDbEntity
  8
front_outsideCutPath
100
AcDbLine
 10
3.0
 20
64.875
 30
0.0
 11
3.0
 21
55.125
 31
0.0
  0
LINE
  5
81
330
6F
100
AcDbEntity
  8
front_outsideCutPath
100
AcDbLine
 10
3.0
 20
55.125
 30
0.0
 11
0.0
 21
55.125
 31
0.0
  0
LINE
  5
82
330
6F
100
AcDbEntity
  8
front_outsideCutPath
100
AcDbLine
 10
0.0
 20
55.125
 30
0.0
 11
0.0
 21
45.375
 31
0.0
  0
LINE
  5
83
330
6F
100
AcDbEntity
  8
front_outsideCutPath
100
AcDbLine
 10
0.0
 20
45.375
 30
0.0
 11
3.0
 21
45.375
 31
0.0
  0
LINE
  5
84
330
6F
100
AcDbEntity
  8
front_outsideCutPath
100
AcDbLine
 10
3.0
 20
45.375
 30
0.0
 11
3.0
 21
35.625
 31
0.0
  0
LINE
  5
85
330
6F
100
AcDbEntity
  8
front_outsideCutPath
100
AcDbLine
 10
3.0
 20
35.625
 30
0.0
 11
0.0
 21
35.625
 31
0.0
  0
LINE
  5
86
330
6F
100
AcDbEntity
  8
front_outsideCutPath
100
AcDbLine
 10
0.0
 20
35.625
 30
0.0
 11
0.0
 21
25.875
 31
0.0
  0
LINE
  5
87
330
6F
100
AcDbEntity
  8
front_outsideCutPath
100
AcDbLine
 10
0.0
 20
25.875
 30
0.0
 11
3.0
 21
25.875
 31
0.0
  0
LINE
  5
88
330
6F
100
AcDbEntity
  8
front_outsideCutPath
100
AcDbLine
 10
3.0
 20
25.875
 30
0.0
 11
3.0
 21
16.125
 31
0.0
  0
LINE
  5
89
330
6F
100
AcDbEntity
  8
front_outsideCutPath
100
AcDbLine
 10
3.0
 20
16.125
 30
0.0
 11
0.0
 21
16.125
 31
0.0
  0
LINE
  5
8A
330
6F
100
AcDbEntity
  8
front_outsideCutPath
100
AcDbLine
 10
0.0
 20
16.125
 30
0.0
 11
0.0
 21
6.375
 31
0.0
  0
LINE
  5
8B
330
6F
100
AcDbEntity
  8
front_outsideCutPath
100
AcDbLine
 10
0.0
 20
6.375
 30
0.0
 11
0.0
 21
0.0
 31
0.0
  0
LINE
  5
8C
330
6F
100
AcDbEntity
  8
front_outsideCutPath
100
AcDbLine
 10
0.0
 20
0.0
 30
0.0
 11
16.875
 21
0.0
 31
0.0
  0
LINE
  5
8D
330
6F
100
AcDbEntity
  8
front_outsideCutPath
100
AcDbLine
 10
16.875
 20
0.0
 30
0.0
 11
16.875
 21
3.0
 31
0.0
  0
LINE
  5
8E
330
6F
100
AcDbEntity
  8
front_outsideCutPath
100
AcDbLine
 10
16.875
 20
3.0
 30
0.0
 11
26.625
 21
3.0
 31
0.0
  0
LINE
  5
8F
330
6F
100
AcDbEntity
  8
front_outsideCutPath
100
AcDbLine
 10
26.625
 20
3.0
 30
0.0
 11
26.625
 21
0.0
 31
0.0
  0
LINE
  5
90
330
6F
100
AcDbEntity
  8
front_outsideCutPath
100
AcDbLine
 10
26.625
 20
0.0
 30
0.0
 11
36.375
 21
0.0
 31
0.0
  0
LINE
  5
91
330
6F
100
AcDbEntity
  8
front_outsideCutPath
100
AcDbLine
 10
36.375
 20
0.0
 30
0.0
 11
36.375
 21
3.0
 31
0.0
  0
LINE
  5
92
330
6F
100
AcDbEntity
  8
front_outsideCutPath
100
AcDbLine
 10
36.375
 20
3.0
 30
0.0
 11
46.12499999999999
 21
3.0
 31
0.0
  0
LINE
  5
93
330
6F
100
AcDbEntity
  8
front_outsideCutPath
100
AcDbLine
 10
46.12499999999999
 20
3.0
 30
0.0
 11
46.12499999999999
 21
0.0
 31
0.0
  0
LINE
  5
94
330
6F
100
AcDbEntity
  8
front_outsideCutPath
100
AcDbLine
 10
46.12499999999999
 20
0.0
 30
0.0
 11
55.875
 21
0.0
 31
0.0
  0
LINE
  5
95
330
6F
100
AcDbEntity
  8
front_outsideCutPath
100
AcDbLine
 10
55.875
 20
0.0
 30
0.0
 11
55.875
 21
3.0
 31
0.0
  0
LINE
  5
96
330
6F
100
AcDbEntity
  8
front_outsideCutPath
100
AcDbLine
 10
55.875
 20
3.0
 30
0.0
 11
65.625
 21
3.0
 31
0.0
  0
LINE
  5
97
330
6F
100
AcDbEntity
  8
front_outsideCutPath
100
AcDbLine
 10
65.625
 20
3.0
 30
0.0
 11
65.625
 21
0.0
 31
0.0
  0
LINE
  5
98
330
6F
100
AcDbEntity
  8
front_outsideCutPath
100
AcDbLine
 10
65.625
 20
0.0
 30
0.0
 11
75.375
 21
0.0
 31
0.0
  0
LINE
  5
99
330
6F
100
AcDbEntity
  8
front_outsideCutPath
100
AcDbLine
 10
75.375
 20
0.0
 30
0.0
 11
75.375
 21
3.0
 31
0.0
  0
LINE
  5
9A
330
6F
100
AcDbEntity
  8
front_outsideCutPath
100
AcDbLine
 10
75.375
 20
3.0
 30
0.0
 11
85.12500000000001
 21
3.0
 31
0.0
  0
LINE
  5
9B
330
6F
100
AcDbEntity
  8
front_outsideCutPath
100
AcDbLine
 10
85.12500000000001
 20
3.0
 30
0.0
 11
85.12500000000001
 21
0.0
 31
0.0
  0
LINE
  5
9C
330
6F
100
AcDbEntity
  8
front_outsideCutPath
100
AcDbLine
 10
85.12500000000001
 20
0.0
 30
0.0
 11
94.875
 21
0.0
 31
0.0
  0
LINE
  5
9D
330
6F
100
AcDbEntity
  8
front_outsideCutPath
100
AcDbLine
 10
94.875
 20
0.0
 30
0.0
 11
94.875
 21
3.0
 31
0.0
  0
LINE
  5
9E
330
6F
100
AcDbEntity
  8
front_outsideCutPath
100
AcDbLine
 10
94.875
 20
3.0
 30
0.0
 11
104.625
 21
3.0
 31
0.0
  0
LINE
  5
9F
330
6F
100
AcDbEntity
  8
front_outsideCutPath
100
AcDbLine
 10
104.625
 20
3.0
 30
0.0
 11
104.625
 21
0.0
 31
0.0
  0
LINE
  5
A0
330
6F
100
AcDbEntity
  8
front_outsideCutPath
100
AcDbLine
 10
104.625
 20
0.0
 30
0.0
 11
114.375
 21
0.0
 31
0.0
  0
LINE
  5
A1
330
6F
100
AcDbEntity
  8
front_outsideCutPath
100
AcDbLine
 10
114.375
 20
0.0
 30
0.0
 11
114.375
 21
3.0
 31
0.0
  0
LINE
  5
A2
330
6F
100
AcDbEntity
  8
front_outsideCutPath
100
AcDbLine
 10
114.375
 20
3.0
 30
0.0
 11
124.125
 21
3.0
 31
0.0
  0
LINE
  5
A3
330
6F
100
AcDbEntity
  8
front_outsideCutPath
100
AcDbLine
 10
124.125
 20
3.0
 30
0.0
 11
124.125
 21
0.0
 31
0.0
  0
LINE
  5
A4
330
6F
100
AcDbEntity
  8
front_outsideCutPath
100
AcDbLine
 10
124.125
 20
0.0
 30
0.0
 11
133.875
 21
0.0
 31
0.0
  0
LINE
  5
A5
330
6F
100
AcDbEntity
  8
front_outsideCutPath
100
AcDbLine
 10
133.875
 20
0.0
 30
0.0
 11
133.875
 21
3.0
 31
0.0
  0
LINE
  5
A6
330
6F
100
AcDbEntity
  8
front_outsideCutPath
100
AcDbLine
 10
133.875
 20
3.0
 30
0.0
 11
143.625
 21
3.0
 31
0.0
  0
LINE
  5
A7
330
6F
100
AcDbEntity
  8
front_outsideCutPath
100
AcDbLine
 10
143.625
 20
3.0
 30
0.0
 11
143.625
 21
0.0
 31
0.0
  0
LINE
  5
A8
330
6F
100
AcDbEntity
  8
front_outsideCutPath
100
AcDbLine
 10
143.625
 20
0.0
 30
0.0
 11
153.375
 21
0.0
 31
0.0
  0
LINE
  5
A9
330
6F
100
AcDbEntity
  8
front_outsideCutPath
100
AcDbLine
 10
153.375
 20
0.0
 30
0.0
 11
153.375
 21
3.0
 31
0.0
  0
LINE
  5
AA
330
6F
100
AcDbEntity
  8
front_outsideCutPath
100
AcDbLine
 10
153.375
 20
3.0
 30
0.0
 11
163.125
 21
3.0
 31
0.0
  0
LINE
  5
AB
330
6F
100
AcDbEntity
  8
front_outsideCutPath
100
AcDbLine
 10
163.125
 20
3.0
 30
0.0
 11
163.125
 21
0.0
 31
0.0
  0
LINE
  5
AC
330
6F
100
AcDbEntity
  8
front_outsideCutPath
100
AcDbLine
 10
163.125
 20
0.0
 30
0.0
 11
172.875
 21
0.0
 31
0.0
  0
LINE
  5
AD
330
6F
100
AcDbEntity
  8
front_outsideCutPath
100
AcDbLine
 10
172.875
 20
0.0
 30
0.0
 11
180.0
 21
0.0
 31
0.0
  0
LINE
  5
AE
330
6F
100
AcDbEntity
  8
front_outsideCutPath
100
AcDbLine
 10
180.0
 20
0.0
 30
0.0
 11
180.0
 21
25.875
 31
0.0
  0
LINE
  5
AF
330
6F
100
AcDbEntity
  8
front_outsideCutPath
100
AcDbLine
 10
177.0
 20
16.125
 30
0.0
 11
183.0
 21
16.125
 31
0.0
  0
LINE
  5
B0
330
6F
100
AcDbEntity
  8
front_outsideCutPath
100
AcDbLine
 10
177.0
 20
16.125
 30
0.0
 11
177.0
 21
25.875
 31
0.0
  0
LINE
  5
B1
330
6F
100
AcDbEntity
  8
front_outsideCutPath
100
AcDbLine
 10
177.0
 20
25.875
 30
0.0
 11
183.0
 21
25.875
 31
0.0
  0
LINE
  5
B2
330
6F
100
AcDbEntity
  8
front_outsideCutPath
100
AcDbLine
 10
180.0
 20
25.875
 30
0.0
 11
180.0
 21
45.375
 31
0.0
  0
LINE
  5
B3
330
6F
100
AcDbEntity
  8
front_outsideCutPath
100
AcDbLine
 10
177.0
 20
35.625
 30
0.0
 11
183.0
 21
35.625
 31
0.0
  0
LINE
  5
B4
330
6F
100
AcDbEntity
  8
front_outsideCutPath
100
AcDbLine
 10
177.0
 20
35.625
 30
0.0
 11
177.0
 21
45.375
 31
0.0
  0
LINE
  5
B5
330
6F
100
AcDbEntity
  8
front_outsideCutPath
100
AcDbLine
 10
177.0
 20
45.375
 30
0.0
 11
183.0
 21
45.375
 31
0.0
  0
LINE
  5
B6
330
6F
100
AcDbEntity
  8
front_outsideCutPath
100
AcDbLine
 10
180.0
 20
45.375
 30
0.0
 11
180.0
 21
64.875
 31
0.0
  0
LINE
  5
B7
330
6F
100
AcDbEntity
  8
front_outsideCutPath
100
AcDbLine
 10
177.0
 20
55.125
 30
0.0
 11
183.0
 21
55.125
 31
0.0
  0
LINE
  5
B8
330
6F
100
AcDbEntity
  8
front_outsideCutPath
100
AcDbLine
 10
177.0
 20
55.125
 30
0.0
 11
177.0
 21
64.875
 31
0.0
  0
LINE
  5
B9
330
6F
100
AcDbEntity
  8
front_outsideCutPath
100
AcDbLine
 10
177.0
 20
64.875
 30
0.0
 11
183.0
 21
64.875
 31
0.0
  0
LINE
  5
BA
330
6F
100
AcDbEntity
  8
front_outsideCutPath
100
AcDbLine
 10
180.0
 20
64.875
 30
0.0
 11
180.0
 21
84.375
 31
0.0
  0
LINE
  5
BB
330
6F
100
AcDbEntity
  8
front_outsideCutPath
100
AcDbLine
 10
177.0
 20
74.625
 30
0.0
 11
183.0
 21
74.625
 31
0.0
  0
LINE
  5
BC
330
6F
100
AcDbEntity
  8
front_outsideCutPath
100
AcDbLine
 10
177.0
 20
74.625
 30
0.0
 11
177.0
 21
84.375
 31
0.0
  0
LINE
  5
BD
330
6F
100
AcDbEntity
  8
front_outsideCutPath
100
AcDbLine
 10
177.0
 20
84.375
 30
0.0
 11
183.0
 21
84.375
 31
0.0
  0
LINE
  5
BE
330
6F
100
AcDbEntity
  8
front_outsideCutPath
100
AcDbLine
 10
180.0
 20
84.375
 30
0.0
 11
180.0
 21
103.875
 31
0.0
  0
LINE
  5
BF
330
6F
100
AcDbEntity
  8
front_outsideCutPath
100
AcDbLine
 10
177.0
 20
94.12499999999999
 30
0.0
 11
183.0
 21
94.12499999999999
 31
0.0
  0
LINE
  5
C0
330
6F
100
AcDbEntity
  8
front_outsideCutPath
100
AcDbLine
 10
177.0
 20
94.12499999999999
 30
0.0
 11
177.0
 21
103.875
 31
0.0
  0
LINE
  5
C1
330
6F
100
AcDbEntity
  8
front_outsideCutPath
100
AcDbLine
 10
177.0
 20
103.875
 30
0.0
 11
183.0
 21
103.875
 31
0.0
  0
LINE
  5
C2
330
6F
100
AcDbEntity
  8
front_outsideCutPath
100
AcDbLine
 10
180.0
 20
103.875
 30
0.0
 11
180.0
 21
113.625
 31
0.0
  0
LINE
  5
C3
330
6F
100
AcDbEntity
  8
front_outsideCutPath
100
AcDbLine
 10
180.0
 20
113.625
 30
0.0
 11
180.0
 21
145.875
 31
0.0
  0
LINE
  5
C4
330
6F
100
AcDbEntity
  8
front_outsideCutPath
100
AcDbLine
 10
163.125
 20
120.0
 30
0.0
 11
180.0
 21
120.0
 31
0.0
  0
LINE
  5
C5
330
6F
100
AcDbEntity
  8
front_outsideCutPath
100
AcDbLine
 10
163.125
 20
117.0
 30
0.0
 11
163.125
 21
123.0
 31
0.0
  0
LINE
  5
C6
330
6F
100
AcDbEntity
  8
front_outsideCutPath
100
AcDbLine
 10
163.125
 20
117.0
 30
0.0
 11
153.375
 21
117.0
 31
0.0
  0
LINE
  5
C7
330
6F
100
AcDbEntity
  8
front_outsideCutPath
100
AcDbLine
 10
153.375
 20
117.0
 30
0.0
 11
153.375
 21
123.0
 31
0.0
  0
LINE
  5
C8
330
6F
100
AcDbEntity
  8
front_outsideCutPath
100
AcDbLine
 10
143.625
 20
120.0
 30
0.0
 11
153.375
 21
120.0
 31
0.0
  0
LINE
  5
C9
330
6F
100
AcDbEntity
  8
front_outsideCutPath
100
AcDbLine
 10
143.625
 20
117.0
 30
0.0
 11
143.625
 21
123.0
 31
0.0
  0
LINE
  5
CA
330
6F
100
AcDbEntity
  8
front_outsideCutPath
100
AcDbLine
 10
143.625
 20
117.0
 30
0.0
 11
133.875
 21
117.0
 31
0.0
  0
LINE
  5
CB
330
6F
100
AcDbEntity
  8
front_outsideCutPath
100
AcDbLine
 10
133.875
 20
117.0
 30
0.0
 11
133.875
 21
123.0
 31
0.0
  0
LINE
  5
CC
330
6F
100
AcDbEntity
  8
front_outsideCutPath
100
AcDbLine
 10
124.125
 20
120.0
 30
0.0
 11
133.875
 21
120.0
 31
0.0
  0
LINE
  5
CD
330
6F
100
AcDbEntity
  8
front_outsideCutPath
100
AcDbLine
 10
124.125
 20
117.0
 30
0.0
 11
124.125
 21
123.0
 31
0.0
  0
LINE
  5
CE
330
6F
100
AcDbEntity
  8
front_outsideCutPath
100
AcDbLine
 10
124.125
 20
117.0
 30
0.0
 11
114.375
 21
117.0
 31
0.0
  0
LINE
  5
CF
330
6F
100
AcDbEntity
  8
front_outsideCutPath
100
AcDbLine
 10
114.375
 20
117.0
 30
0.0
 11
114.375
 21
123.0
 31
0.0
  0
LINE
  5
D0
330
6F
100
AcDbEntity
  8
front_outsideCutPath
100
AcDbLine
 10
104.625
 20
120.0
 30
0.0
 11
114.375
 21
120.0
 31
0.0
  0
LINE
  5
D1
330
6F
100
AcDbEntity
  8
front_outsideCutPath
100
AcDbLine
 10
104.625
 20
117.0
 30
0.0
 11
104.625
 21
123.0
 31
0.0
  0
LINE
  5
D2
330
6F
100
AcDbEntity
  8
front_outsideCutPath
100
AcDbLine
 10
104.625
 20
117.0
 30
0.0
 11
94.875
 21
117.0
 31
0.0
  0
LINE
  5
D3
330
6F
100
AcDbEntity
  8
front_outsideCutPath
100
AcDbLine
 10
94.875
 20
117.0
 30
0.0
 11
94.875
 21
123.0
 31
0.0
  0
LINE
  5
D4
330
6F
100
AcDbEntity
  8
front_outsideCutPath
100
AcDbLine
 10
85.12500000000001
 20
120.0
 30
0.0
 11
94.875
 21
120.0
 31
0.0
  0
LINE
  5
D5
330
6F
100
AcDbEntity
  8
front_outsideCutPath
100
AcDbLine
 10
85.12500000000001
 20
117.0
 30
0.0
 11
85.12500000000001
 21
123.0
 31
0.0
  0
LINE
  5
D6
330
6F
100
AcDbEntity
  8
front_outsideCutPath
100
AcDbLine
 10
85.12500000000001
 20
117.0
 30
0.0
 11
75.375
 21
117.0
 31
0.0
  0
LINE
  5
D7
330
6F
100
AcDbEntity
  8
front_outsideCutPath
100
AcDbLine
 10
75.375
 20
117.0
 30
0.0
 11
75.375
 21
123.0
 31
0.0
  0
LINE
  5
D8
330
6F
100
AcDbEntity
  8
front_outsideCutPath
100
AcDbLine
 10
65.625
 20
120.0
 30
0.0
 11
75.375
 21
120.0
 31
0.0
  0
LINE
  5
D9
330
6F
100
AcDbEntity
  8
front_outsideCutPath
100
AcDbLine
 10
65.625
 20
117.0
 30
0.0
 11
65.625
 21
123.0
 31
0.0
  0
LINE
  5
DA
330
6F
100
AcDbEntity
  8
front_outsideCutPath
100
AcDbLine
 10
65.625
 20
117.0
 30
0.0
 11
55.875
 21
117.0
 31
0.0
  0
LINE
  5
DB
330
6F
100
AcDbEntity
  8
front_outsideCutPath
100
AcDbLine
 10
55.875
 20
117.0
 30
0.0
 11
55.875
 21
123.0
 31
0.0
  0
LINE
  5
DC
330
6F
100
AcDbEntity
  8
front_outsideCutPath
100
AcDbLine
 10
46.12499999999999
 20
120.0
 30
0.0
 11
55.875
 21
120.0
 31
0.0
  0
LINE
  5
DD
330
6F
100
AcDbEntity
  8
front_outsideCutPath
100
AcDbLine
 10
46.12499999999999
 20
117.0
 30
0.0
 11
46.12499999999999
 21
123.0
 31
0.0
  0
LINE
  5
DE
330
6F
100
AcDbEntity
  8
front_outsideCutPath
100
AcDbLine
 10
46.12499999999999
 20
117.0
 30
0.0
 11
36.375
 21
117.0
 31
0.0
  0
LINE
  5
DF
330
6F
100
AcDbEntity
  8
front_outsideCutPath
100
AcDbLine
 10
36.375
 20
117.0
 30
0.0
 11
36.375
 21
123.0
 31
0.0
  0
LINE
  5
E0
330
6F
100
AcDbEntity
  8
front_outsideCutPath
100
AcDbLine
 10
26.625
 20
120.0
 30
0.0
 11
36.375
 21
120.0
 31
0.0
  0
LINE
  5
E1
330
6F
100
AcDbEntity
  8
front_outsideCutPath
100
AcDbLine
 10
26.625
 20
117.0
 30
0.0
 11
26.625
 21
123.0
 31
0.0
  0
LINE
  5
E2
330
6F
100
AcDbEntity
  8
front_outsideCutPath
100
AcDbLine
 10
26.625
 20
117.0
 30
0.0
 11
16.875
 21
117.0
 31
0.0
  0
LINE
  5
E3
330
6F
100
AcDbEntity
  8
front_outsideCutPath
100
AcDbLine
 10
16.875
 20
117.0
 30
0.0
 11
16.875
 21
123.0
 31
0.0
  0
LINE
  5
E4
330
6F
100
AcDbEntity
  8
front_outsideCutPath
100
AcDbLine
 10
0.0
 20
120.0
 30
0.0
 11
16.875
 21
120.0
 31
0.0
  0
LINE
  5
E5
330
6F
100
AcDbEntity
  8
front_outsideCutPath
100
AcDbLine
 10
7.125
 20
120.0
 30
0.0
 11
0.0
 21
120.0
 31
0.0
  0
LINE
  5
181
330
6F
100
AcDbEntity
  8
left_outsideCutPath
100
AcDbLine
 10
183.0
 20
103.875
 30
0.0
 11
183.0
 21
126.375
 31
0.0
  0
LINE
  5
182
330
6F
100
AcDbEntity
  8
left_outsideCutPath
100
AcDbLine
 10
183.0
 20
94.12499999999999
 30
0.0
 11
183.0
 21
84.375
 31
0.0
  0
LINE
  5
183
330
6F
100
AcDbEntity
  8
left_outsideCutPath
100
AcDbLine
 10
183.0
 20
74.625
 30
0.0
 11
183.0
 21
64.875
 31
0.0
  0
LINE
  5
184
330
6F
100
AcDbEntity
  8
left_outsideCutPath
100
AcDbLine
 10
183.0
 20
55.125
 30
0.0
 11
183.0
 21
45.375
 31
0.0
  0
LINE
  5
185
330
6F
100
AcDbEntity
  8
left_outsideCutPath
100
AcDbLine
 10
183.0
 20
35.625
 30
0.0
 11
183.0
 21
25.875
 31
0.0
  0
LINE
  5
186
330
6F
100
AcDbEntity
  8
left_outsideCutPath
100
AcDbLine
 10
183.0
 20
16.125
 30
0.0
 11
183.0
 21
6.375
 31
0.0
  0
LINE
  5
187
330
6F
100
AcDbEntity
  8
left_outsideCutPath
100
AcDbLine
 10
183.0
 20
6.375
 30
0.0
 11
183.0
 21
0.0
 31
0.0
  0
LINE
  5
188
330
6F
100
AcDbEntity
  8
left_outsideCutPath
100
AcDbLine
 10
183.0
 20
0.0
 30
0.0
 11
195.625
 21
0.0
 31
0.0
  0
LINE
  5
189
330
6F
100
AcDbEntity
  8
left_outsideCutPath
100
AcDbLine
 10
195.625
 20
0.0
 30
0.0
 11
195.625
 21
3.0
 31
0.0
  0
LINE
  5
18A
330
6F
100
AcDbEntity
  8
left_outsideCutPath
100
AcDbLine
 10
195.625
 20
3.0
 30
0.0
 11
205.375
 21
3.0
 31
0.0
  0
LINE
  5
18B
330
6F
100
AcDbEntity
  8
left_outsideCutPath
100
AcDbLine
 10
205.375
 20
3.0
 30
0.0
 11
205.375
 21
0.0
 31
0.0
  0
LINE
  5
18C
330
6F
100
AcDbEntity
  8
left_outsideCutPath
100
AcDbLine
 10
205.375
 20
0.0
 30
0.0
 11
215.125
 21
0.0
 31
0.0
  0
LINE
  5
18D
330
6F
100
AcDbEntity
  8
left_outsideCutPath
100
AcDbLine
 10
215.125
 20
0.0
 30
0.0
 11
215.125
 21
3.0
 31
0.0
  0
LINE
  5
18E
330
6F
100
AcDbEntity
  8
left_outsideCutPath
100
AcDbLine
 10
215.125
 20
3.0
 30
0.0
 11
224.875
 21
3.0
 31
0.0
  0
LINE
  5
18F
330
6F
100
AcDbEntity
  8
left_outsideCutPath
100
AcDbLine
 10
224.875
 20
3.0
 30
0.0
 11
224.875
 21
0.0
 31
0.0
  0
LINE
  5
190
330
6F
100
AcDbEntity
  8
left_outsideCutPath
100
AcDbLine
 10
224.875
 20
0.0
 30
0.0
 11
234.625
 21
0.0
 31
0.0
  0
LINE
  5
191
330
6F
100
AcDbEntity
  8
left_outsideCutPath
100
AcDbLine
 10
234.625
 20
0.0
 30
0.0
 11
234.625
 21
3.0
 31
0.0
  0
LINE
  5
192
330
6F
100
AcDbEntity
  8
left_outsideCutPath
100
AcDbLine
 10
234.625
 20
3.0
 30
0.0
 11
244.375
 21
3.0
 31
0.0
  0
LINE
  5
193
330
6F
100
AcDbEntity
  8
left_outsideCutPath
100
AcDbLine
 10
244.375
 20
3.0
 30
0.0
 11
244.375
 21
0.0
 31
0.0
  0
LINE
  5
194
330
6F
100
AcDbEntity
  8
left_outsideCutPath
100
AcDbLine
 10
244.375
 20
0.0
 30
0.0
 11
254.125
 21
0.0
 31
0.0
  0
LINE
  5
195
330
6F
100
AcDbEntity
  8
left_outsideCutPath
100
AcDbLine
 10
254.125
 20
0.0
 30
0.0
 11
257.0
 21
0.0
 31
0.0
  0
LINE
  5
196
330
6F
100
AcDbEntity
  8
left_outsideCutPath
100
AcDbLine
 10
257.0
 20
0.0
 30
0.0
 11
257.0
 21
16.125
 31
0.0
  0
LINE
  5
197
330
6F
100
AcDbEntity
  8
left_outsideCutPath
100
AcDbLine
 10
257.0
 20
16.125
 30
0.0
 11
260.0
 21
16.125
 31
0.0
  0
LINE
  5
198
330
6F
100
AcDbEntity
  8
left_outsideCutPath
100
AcDbLine
 10
260.0
 20
15.625
 30
0.0
 11
260.0
 21
25.875
 31
0.0
  0
LINE
  5
199
330
6F
100
AcDbEntity
  8
left_outsideCutPath
100
AcDbLine
 10
260.0
 20
25.875
 30
0.0
 11
257.0
 21
25.875
 31
0.0
  0
LINE
  5
19A
330
6F
100
AcDbEntity
  8
left_outsideCutPath
100
AcDbLine
 10
257.0
 20
25.875
 30
0.0
 11
257.0
 21
35.625
 31
0.0
  0
LINE
  5
19B
330
6F
100
AcDbEntity
  8
left_outsideCutPath
100
AcDbLine
 10
257.0
 20
35.625
 30
0.0
 11
260.0
 21
35.625
 31
0.0
  0
LINE
  5
19C
330
6F
100
AcDbEntity
  8
left_outsideCutPath
100
AcDbLine
 10
260.0
 20
35.125
 30
0.0
 11
260.0
 21
45.375
 31
0.0
  0
LINE
  5
19D
330
6F
100
AcDbEntity
  8
left_outsideCutPath
100
AcDbLine
 10
260.0
 20
45.375
 30
0.0
 11
257.0
 21
45.375
 31
0.0
  0
LINE
  5
19E
330
6F
100
AcDbEntity
  8
left_outsideCutPath
100
AcDbLine
 10
257.0
 20
45.375
 30
0.0
 11
257.0
 21
55.125
 31
0.0
  0
LINE
  5
19F
330
6F
100
AcDbEntity
  8
left_outsideCutPath
100
AcDbLine
 10
257.0
 20
55.125
 30
0.0
 11
260.0
 21
55.125
 31
0.0
  0
LINE
  5
1A0
330
6F
100
AcDbEntity
  8
left_outsideCutPath
100
AcDbLine
 10
260.0
 20
54.625
 30
0.0
 11
260.0
 21
64.875
 31
0.0
  0
LINE
  5
1A1
330
6F
100
AcDbEntity
  8
left_outsideCutPath
100
AcDbLine
 10
260.0
 20
64.875
 30
0.0
 11
257.0
 21
64.875
 31
0.0
  0
LINE
  5
1A2
330
6F
100
AcDbEntity
  8
left_outsideCutPath
100
AcDbLine
 10
257.0
 20
64.875
 30
0.0
 11
257.0
 21
74.625
 31
0.0
  0
LINE
  5
1A3
330
6F
100
AcDbEntity
  8
left_outsideCutPath
100
AcDbLine
 10
257.0
 20
74.625
 30
0.0
 11
260.0
 21
74.625
 31
0.0
  0
LINE
  5
1A4
330
6F
100
AcDbEntity
  8
left_outsideCutPath
100
AcDbLine
 10
260.0
 20
74.625
 30
0.0
 11
260.0
 21
84.375
 31
0.0
  0
LINE
  5
1A5
330
6F
100
AcDbEntity
  8
left_outsideCutPath
100
AcDbLine
 10
260.0
 20
84.375
 30
0.0
 11
257.0
 21
84.375
 31
0.0
  0
LINE
  5
1A6
330
6F
100
AcDbEntity
  8
left_outsideCutPath
100
AcDbLine
 10
257.0
 20
84.375
 30
0.0
 11
257.0
 21
94.12499999999999
 31
0.0
  0
LINE
  5
1A7
330
6F
100
AcDbEntity
  8
left_outsideCutPath
100
AcDbLine
 10
257.0
 20
94.12499999999999
 30
0.0
 11
260.0
 21
94.12499999999999
 31
0.0
  0
LINE
  5
1A8
330
6F
100
AcDbEntity
  8
left_outsideCutPath
100
AcDbLine
 10
260.0
 20
94.12499999999999
 30
0.0
 11
260.0
 21
105.375
 31
0.0
  0
LINE
  5
1A9
330
6F
100
AcDbEntity
  8
left_outsideCutPath
100
AcDbLine
 10
260.0
 20
103.875
 30
0.0
 11
257.0
 21
103.875
 31
0.0
  0
LINE
  5
1AA
330
6F
100
AcDbEntity
  8
left_outsideCutPath
100
AcDbLine
 10
257.0
 20
103.875
 30
0.0
 11
257.0
 21
113.625
 31
0.0
  0
LINE
  5
1AB
330
6F
100
AcDbEntity
  8
left_outsideCutPath
100
AcDbLine
 10
257.0
 20
113.625
 30
0.0
 11
257.0
 21
136.125
 31
0.0
  0
LINE
  5
1AC
330
6F
100
AcDbEntity
  8
left_outsideCutPath
100
AcDbLine
 10
244.375
 20
120.0
 30
0.0
 11
257.0
 21
120.0
 31
0.0
  0
LINE
  5
1AD
330
6F
100
AcDbEntity
  8
left_outsideCutPath
100
AcDbLine
 10
244.375
 20
117.0
 30
0.0
 11
244.375
 21
123.0
 31
0.0
  0
LINE
  5
1AE
330
6F
100
AcDbEntity
  8
left_outsideCutPath
100
AcDbLine
 10
244.375
 20
117.0
 30
0.0
 11
234.625
 21
117.0
 31
0.0
  0
LINE
  5
1AF
330
6F
100
AcDbEntity
  8
left_outsideCutPath
100
AcDbLine
 10
234.625
 20
117.0
 30
0.0
 11
234.625
 21
123.0
 31
0.0
  0
LINE
  5
1B0
330
6F
100
AcDbEntity
  8
left_outsideCutPath
100
AcDbLine
 10
224.875
 20
120.0
 30
0.0
 11
234.625
 21
120.0
 31
0.0
  0
LINE
  5
1B1
330
6F
100
AcDbEntity
  8
left_outsideCutPath
100
AcDbLine
 10
224.875
 20
117.0
 30
0.0
 11
224.875
 21
123.0
 31
0.0
  0
LINE
  5
1B2
330
6F
100
AcDbEntity
  8
left_outsideCutPath
100
AcDbLine
 10
224.875
 20
117.0
 30
0.0
 11
215.125
 21
117.0
 31
0.0
  0
LINE
  5
1B3
330
6F
100
AcDbEntity
  8
left_outsideCutPath
100
AcDbLine
 10
215.125
 20
117.0
 30
0.0
 11
215.125
 21
123.0
 31
0.0
  0
LINE
  5
1B4
330
6F
100
AcDbEntity
  8
left_outsideCutPath
100
AcDbLine
 10
205.375
 20
120.0
 30
0.0
 11
215.125
 21
120.0
 31
0.0
  0
LINE
  5
1B5
330
6F
100
AcDbEntity
  8
left_outsideCutPath
100
AcDbLine
 10
205.375
 20
117.0
 30
0.0
 11
205.375
 21
123.0
 31
0.0
  0
LINE
  5
1B6
330
6F
100
AcDbEntity
  8
left_outsideCutPath
100
AcDbLine
 10
205.375
 20
117.0
 30
0.0
 11
195.625
 21
117.0
 31
0.0
  0
LINE
  5
1B7
330
6F
100
AcDbEntity
  8
left_outsideCutPath
100
AcDbLine
 10
195.625
 20
117.0
 30
0.0
 11
195.625
 21
123.0
 31
0.0
  0
LINE
  5
1B8
330
6F
100
AcDbEntity
  8
left_outsideCutPath
100
AcDbLine
 10
183.0
 20
120.0
 30
0.0
 11
195.625
 21
120.0
 31
0.0
  0
LINE
  5
1B9
330
6F
100
AcDbEntity
  8
left_outsideCutPath
100
AcDbLine
 10
185.875
 20
120.0
 30
0.0
 11
183.0
 21
120.0
 31
0.0
  0
LINE
  5
225
330
6F
100
AcDbEntity
  8
top_outsideCutPath
100
AcDbLine
 10
263.0
 20
77.0
 30
0.0
 11
263.0
 21
64.375
 31
0.0
  0
LINE
  5
226
330
6F
100
AcDbEntity
  8
top_outsideCutPath
100
AcDbLine
 10
263.0
 20
64.375
 30
0.0
 11
260.0
 21
64.375
 31
0.0
  0
LINE
  5
227
330
6F
100
AcDbEntity
  8
top_outsideCutPath
100
AcDbLine
 10
260.0
 20
54.625
 30
0.0
 11
263.0
 21
54.625
 31
0.0
  0
LINE
  5
228
330
6F
100
AcDbEntity
  8
top_outsideCutPath
100
AcDbLine
 10
263.0
 20
54.625
 30
0.0
 11
263.0
 21
44.87499999999999
 31
0.0
  0
LINE
  5
229
330
6F
100
AcDbEntity
  8
top_outsideCutPath
100
AcDbLine
 10
263.0
 20
44.87499999999999
 30
0.0
 11
260.0
 21
44.87499999999999
 31
0.0
  0
LINE
  5
22A
330
6F
100
AcDbEntity
  8
top_outsideCutPath
100
AcDbLine
 10
260.0
 20
35.125
 30
0.0
 11
263.0
 21
35.125
 31
0.0
  0
LINE
  5
22B
330
6F
100
AcDbEntity
  8
top_outsideCutPath
100
AcDbLine
 10
263.0
 20
35.125
 30
0.0
 11
263.0
 21
25.375
 31
0.0
  0
LINE
  5
22C
330
6F
100
AcDbEntity
  8
top_outsideCutPath
100
AcDbLine
 10
263.0
 20
25.375
 30
0.0
 11
260.0
 21
25.375
 31
0.0
  0
LINE
  5
22D
330
6F
100
AcDbEntity
  8
top_outsideCutPath
100
AcDbLine
 10
260.0
 20
15.625
 30
0.0
 11
263.0
 21
15.625
 31
0.0
  0
LINE
  5
22E
330
6F
100
AcDbEntity
  8
top_outsideCutPath
100
AcDbLine
 10
263.0
 20
15.625
 30
0.0
 11
263.0
 21
5.875
 31
0.0
  0
LINE
  5
22F
330
6F
100
AcDbEntity
  8
top_outsideCutPath
100
AcDbLine
 10
263.0
 20
5.875
 30
0.0
 11
263.0
 21
3.0
 31
0.0
  0
LINE
  5
230
330
6F
100
AcDbEntity
  8
top_outsideCutPath
100
AcDbLine
 10
263.0
 20
3.0
 30
0.0
 11
276.875
 21
3.0
 31
0.0
  0
LINE
  5
231
330
6F
100
AcDbEntity
  8
top_outsideCutPath
100
AcDbLine
 10
276.875
 20
3.0
 30
0.0
 11
276.875
 21
0.0
 31
0.0
  0
LINE
  5
232
330
6F
100
AcDbEntity
  8
top_outsideCutPath
100
AcDbLine
 10
276.875
 20
0.0
 30
0.0
 11
286.625
 21
0.0
 31
0.0
  0
LINE
  5
233
330
6F
100
AcDbEntity
  8
top_outsideCutPath
100
AcDbLine
 10
286.625
 20
0.0
 30
0.0
 11
286.625
 21
3.0
 31
0.0
  0
LINE
  5
234
330
6F
100
AcDbEntity
  8
top_outsideCutPath
100
AcDbLine
 10
286.625
 20
3.0
 30
0.0
 11
296.375
 21
3.0
 31
0.0
  0
LINE
  5
235
330
6F
100
AcDbEntity
  8
top_outsideCutPath
100
AcDbLine
 10
296.375
 20
3.0
 30
0.0
 11
296.375
 21
0.0
 31
0.0
  0
LINE
  5
236
330
6F
100
AcDbEntity
  8
top_outsideCutPath
100
AcDbLine
 10
296.375
 20
0.0
 30
0.0
 11
306.125
 21
0.0
 31
0.0
  0
LINE
  5
237
330
6F
100
AcDbEntity
  8
top_outsideCutPath
100
AcDbLine
 10
306.125
 20
0.0
 30
0.0
 11
306.125
 21
3.0
 31
0.0
  0
LINE
  5
238
330
6F
100
AcDbEntity
  8
top_outsideCutPath
100
AcDbLine
 10
306.125
 20
3.0
 30
0.0
 11
315.875
 21
3.0
 31
0.0
  0
LINE
  5
239
330
6F
100
AcDbEntity
  8
top_outsideCutPath
100
AcDbLine
 10
315.875
 20
3.0
 30
0.0
 11
315.875
 21
0.0
 31
0.0
  0
LINE
  5
23A
330
6F
100
AcDbEntity
  8
top_outsideCutPath
100
AcDbLine
 10
315.875
 20
0.0
 30
0.0
 11
325.625
 21
0.0
 31
0.0
  0
LINE
  5
23B
330
6F
100
AcDbEntity
  8
top_outsideCutPath
100
AcDbLine
 10
325.625
 20
0.0
 30
0.0
 11
325.625
 21
3.0
 31
0.0
  0
LINE
  5
23C
330
6F
100
AcDbEntity
  8
top_outsideCutPath
100
AcDbLine
 10
325.625
 20
3.0
 30
0.0
 11
335.375
 21
3.0
 31
0.0
  0
LINE
  5
23D
330
6F
100
AcDbEntity
  8
top_outsideCutPath
100
AcDbLine
 10
335.375
 20
3.0
 30
0.0
 11
335.375
 21
0.0
 31
0.0
  0
LINE
  5
23E
330
6F
100
AcDbEntity
  8
top_outsideCutPath
100
AcDbLine
 10
335.375
 20
0.0
 30
0.0
 11
345.125
 21
0.0
 31
0.0
  0
LINE
  5
23F
330
6F
100
AcDbEntity
  8
top_outsideCutPath
100
AcDbLine
 10
345.125
 20
0.0
 30
0.0
 11
345.125
 21
3.0
 31
0.0
  0
LINE
  5
240
330
6F
100
AcDbEntity
  8
top_outsideCutPath
100
AcDbLine
 10
345.125
 20
3.0
 30
0.0
 11
354.875
 21
3.0
 31
0.0
  0
LINE
  5
241
330
6F
100
AcDbEntity
  8
top_outsideCutPath
100
AcDbLine
 10
354.875
 20
3.0
 30
0.0
 11
354.875
 21
0.0
 31
0.0
  0
LINE
  5
242
330
6F
100
AcDbEntity
  8
top_outsideCutPath
100
AcDbLine
 10
354.875
 20
0.0
 30
0.0
 11
364.625
 21
0.0
 31
0.0
  0
LINE
  5
243
330
6F
100
AcDbEntity
  8
top_outsideCutPath
100
AcDbLine
 10
364.625
 20
0.0
 30
0.0
 11
364.625
 21
3.0
 31
0.0
  0
LINE
  5
244
330
6F
100
AcDbEntity
  8
top_outsideCutPath
100
AcDbLine
 10
364.625
 20
3.0
 30
0.0
 11
374.375
 21
3.0
 31
0.0
  0
LINE
  5
245
330
6F
100
AcDbEntity
  8
top_outsideCutPath
100
AcDbLine
 10
374.375
 20
3.0
 30
0.0
 11
374.375
 21
0.0
 31
0.0
  0
LINE
  5
246
330
6F
100
AcDbEntity
  8
top_outsideCutPath
100
AcDbLine
 10
374.375
 20
0.0
 30
0.0
 11
384.125
 21
0.0
 31
0.0
  0
LINE
  5
247
330
6F
100
AcDbEntity
  8
top_outsideCutPath
100
AcDbLine
 10
384.125
 20
0.0
 30
0.0
 11
384.125
 21
3.0
 31
0.0
  0
LINE
  5
248
330
6F
100
AcDbEntity
  8
top_outsideCutPath
100
AcDbLine
 10
384.125
 20
3.0
 30
0.0
 11
393.875
 21
3.0
 31
0.0
  0
LINE
  5
249
330
6F
100
AcDbEntity
  8
top_outsideCutPath
100
AcDbLine
 10
393.875
 20
3.0
 30
0.0
 11
393.875
 21
0.0
 31
0.0
  0
LINE
  5
24A
330
6F
100
AcDbEntity
  8
top_outsideCutPath
100
AcDbLine
 10
393.875
 20
0.0
 30
0.0
 11
403.6249999999999
 21
0.0
 31
0.0
  0
LINE
  5
24B
330
6F
100
AcDbEntity
  8
top_outsideCutPath
100
AcDbLine
 10
403.6249999999999
 20
0.0
 30
0.0
 11
403.6249999999999
 21
3.0
 31
0.0
  0
LINE
  5
24C
330
6F
100
AcDbEntity
  8
top_outsideCutPath
100
AcDbLine
 10
403.6249999999999
 20
3.0
 30
0.0
 11
413.375
 21
3.0
 31
0.0
  0
LINE
  5
24D
330
6F
100
AcDbEntity
  8
top_outsideCutPath
100
AcDbLine
 10
413.375
 20
3.0
 30
0.0
 11
413.375
 21
0.0
 31
0.0
  0
LINE
  5
24E
330
6F
100
AcDbEntity
  8
top_outsideCutPath
100
AcDbLine
 10
413.375
 20
0.0
 30
0.0
 11
423.125
 21
0.0
 31
0.0
  0
LINE
  5
24F
330
6F
100
AcDbEntity
  8
top_outsideCutPath
100
AcDbLine
 10
423.125
 20
0.0
 30
0.0
 11
423.125
 21
3.0
 31
0.0
  0
LINE
  5
250
330
6F
100
AcDbEntity
  8
top_outsideCutPath
100
AcDbLine
 10
423.125
 20
3.0
 30
0.0
 11
432.875
 21
3.0
 31
0.0
  0
LINE
  5
251
330
6F
100
AcDbEntity
  8
top_outsideCutPath
100
AcDbLine
 10
432.875
 20
3.0
 30
0.0
 11
437.0
 21
3.0
 31
0.0
  0
LINE
  5
252
330
6F
100
AcDbEntity
  8
top_outsideCutPath
100
AcDbLine
 10
437.0
 20
3.0
 30
0.0
 11
437.0
 21
15.625
 31
0.0
  0
LINE
  5
253
330
6F
100
AcDbEntity
  8
top_outsideCutPath
100
AcDbLine
 10
437.0
 20
15.625
 30
0.0
 11
440.0
 21
15.625
 31
0.0
  0
LINE
  5
254
330
6F
100
AcDbEntity
  8
top_outsideCutPath
100
AcDbLine
 10
440.0
 20
15.625
 30
0.0
 11
440.0
 21
25.375
 31
0.0
  0
LINE
  5
255
330
6F
100
AcDbEntity
  8
top_outsideCutPath
100
AcDbLine
 10
440.0
 20
25.375
 30
0.0
 11
437.0
 21
25.375
 31
0.0
  0
LINE
  5
256
330
6F
100
AcDbEntity
  8
top_outsideCutPath
100
AcDbLine
 10
437.0
 20
25.375
 30
0.0
 11
437.0
 21
35.125
 31
0.0
  0
LINE
  5
257
330
6F
100
AcDbEntity
  8
top_outsideCutPath
100
AcDbLine
 10
437.0
 20
35.125
 30
0.0
 11
440.0
 21
35.125
 31
0.0
  0
LINE
  5
258
330
6F
100
AcDbEntity
  8
top_outsideCutPath
100
AcDbLine
 10
440.0
 20
35.125
 30
0.0
 11
440.0
 21
44.87499999999999
 31
0.0
  0
LINE
  5
259
330
6F
100
AcDbEntity
  8
top_outsideCutPath
100
AcDbLine
 10
440.0
 20
44.87499999999999
 30
0.0
 11
437.0
 21
44.87499999999999
 31
0.0
  0
LINE
  5
25A
330
6F
100
AcDbEntity
  8
top_outsideCutPath
100
AcDbLine
 10
437.0
 20
44.87499999999999
 30
0.0
 11
437.0
 21
54.625
 31
0.0
  0
LINE
  5
25B
330
6F
100
AcDbEntity
  8
top_outsideCutPath
100
AcDbLine
 10
437.0
 20
54.625
 30
0.0
 11
440.0
 21
54.625
 31
0.0
  0
LINE
  5
25C
330
6F
100
AcDbEntity
  8
top_outsideCutPath
100
AcDbLine
 10
440.0
 20
54.625
 30
0.0
 11
440.0
 21
64.375
 31
0.0
  0
LINE
  5
25D
330
6F
100
AcDbEntity
  8
top_outsideCutPath
100
AcDbLine
 10
440.0
 20
64.375
 30
0.0
 11
437.0
 21
64.375
 31
0.0
  0
LINE
  5
25E
330
6F
100
AcDbEntity
  8
top_outsideCutPath
100
AcDbLine
 10
437.0
 20
64.375
 30
0.0
 11
437.0
 21
74.125
 31
0.0
  0
LINE
  5
25F
330
6F
100
AcDbEntity
  8
top_outsideCutPath
100
AcDbLine
 10
437.0
 20
74.125
 30
0.0
 11
437.0
 21
77.0
 31
0.0
  0
LINE
  5
260
330
6F
100
AcDbEntity
  8
top_outsideCutPath
100
AcDbLine
 10
437.0
 20
77.0
 30
0.0
 11
423.125
 21
77.0
 31
0.0
  0
LINE
  5
261
330
6F
100
AcDbEntity
  8
top_outsideCutPath
100
AcDbLine
 10
423.125
 20
77.0
 30
0.0
 11
423.125
 21
83.0
 31
0.0
  0
LINE
  5
262
330
6F
100
AcDbEntity
  8
top_outsideCutPath
100
AcDbLine
 10
413.375
 20
80.0
 30
0.0
 11
423.125
 21
80.0
 31
0.0
  0
LINE
  5
263
330
6F
100
AcDbEntity
  8
top_outsideCutPath
100
AcDbLine
 10
413.375
 20
77.0
 30
0.0
 11
413.375
 21
83.0
 31
0.0
  0
LINE
  5
264
330
6F
100
AcDbEntity
  8
top_outsideCutPath
100
AcDbLine
 10
413.375
 20
77.0
 30
0.0
 11
403.6249999999999
 21
77.0
 31
0.0
  0
LINE
  5
265
330
6F
100
AcDbEntity
  8
top_outsideCutPath
100
AcDbLine
 10
403.6249999999999
 20
77.0
 30
0.0
 11
403.6249999999999
 21
83.0
 31
0.0
  0
LINE
  5
266
330
6F
100
AcDbEntity
  8
top_outsideCutPath
100
AcDbLine
 10
393.875
 20
80.0
 30
0.0
 11
403.6249999999999
 21
80.0
 31
0.0
  0
LINE
  5
267
330
6F
100
AcDbEntity
  8
top_outsideCutPath
100
AcDbLine
 10
393.875
 20
77.0
 30
0.0
 11
393.875
 21
83.0
 31
0.0
  0
LINE
  5
268
330
6F
100
AcDbEntity
  8
top_outsideCutPath
100
AcDbLine
 10
393.875
 20
77.0
 30
0.0
 11
384.125
 21
77.0
 31
0.0
  0
LINE
  5
269
330
6F
100
AcDbEntity
  8
top_outsideCutPath
100
AcDbLine
 10
384.125
 20
77.0
 30
0.0
 11
384.125
 21
83.0
 31
0.0
  0
LINE
  5
26A
330
6F
100
AcDbEntity
  8
top_outsideCutPath
100
AcDbLine
 10
374.375
 20
80.0
 30
0.0
 11
384.125
 21
80.0
 31
0.0
  0
LINE
  5
26B
330
6F
100
AcDbEntity
  8
top_outsideCutPath
100
AcDbLine
 10
374.375
 20
77.0
 30
0.0
 11
374.375
 21
83.0
 31
0.0
  0
LINE
  5
26C
330
6F
100
AcDbEntity
  8
top_outsideCutPath
100
AcDbLine
 10
374.375
 20
77.0
 30
0.0
 11
364.625
 21
77.0
 31
0.0
  0
LINE
  5
26D
330
6F
100
AcDbEntity
  8
top_outsideCutPath
100
AcDbLine
 10
364.625
 20
77.0
 30
0.0
 11
364.625
 21
83.0
 31
0.0
  0
LINE
  5
26E
330
6F
100
AcDbEntity
  8
top_outsideCutPath
100
AcDbLine
 10
354.875
 20
80.0
 30
0.0
 11
364.625
 21
80.0
 31
0.0
  0
LINE
  5
26F
330
6F
100
AcDbEntity
  8
top_outsideCutPath
100
AcDbLine
 10
354.875
 20
77.0
 30
0.0
 11
354.875
 21
83.0
 31
0.0
  0
LINE
  5
270
330
6F
100
AcDbEntity
  8
top_outsideCutPath
100
AcDbLine
 10
354.875
 20
77.0
 30
0.0
 11
345.125
 21
77.0
 31
0.0
  0
LINE
  5
271
330
6F
100
AcDbEntity
  8
top_outsideCutPath
100
AcDbLine
 10
345.125
 20
77.0
 30
0.0
 11
345.125
 21
83.0
 31
0.0
  0
LINE
  5
272
330
6F
100
AcDbEntity
  8
top_outsideCutPath
100
AcDbLine
 10
335.375
 20
80.0
 30
0.0
 11
345.125
 21
80.0
 31
0.0
  0
LINE
  5
273
330
6F
100
AcDbEntity
  8
top_outsideCutPath
100
AcDbLine
 10
335.375
 20
77.0
 30
0.0
 11
335.375
 21
83.0
 31
0.0
  0
LINE
  5
274
330
6F
100
AcDbEntity
  8
top_outsideCutPath
100
AcDbLine
 10
335.375
 20
77.0
 30
0.0
 11
325.625
 21
77.0
 31
0.0
  0
LINE
  5
275
330
6F
100
AcDbEntity
  8
top_outsideCutPath
100
AcDbLine
 10
325.625
 20
77.0
 30
0.0
 11
325.625
 21
83.0
 31
0.0
  0
LINE
  5
276
330
6F
100
AcDbEntity
  8
top_outsideCutPath
100
AcDbLine
 10
315.875
 20
80.0
 30
0.0
 11
325.625
 21
80.0
 31
0.0
  0
LINE
  5
277
330
6F
100
AcDbEntity
  8
top_outsideCutPath
100
AcDbLine
 10
315.875
 20
77.0
 30
0.0
 11
315.875
 21
83.0
 31
0.0
  0
LINE
  5
278
330
6F
100
AcDbEntity
  8
top_outsideCutPath
100
AcDbLine
 10
315.875
 20
77.0
 30
0.0
 11
306.125
 21
77.0
 31
0.0
  0
LINE
  5
279
330
6F
100
AcDbEntity
  8
top_outsideCutPath
100
AcDbLine
 10
306.125
 20
77.0
 30
0.0
 11
306.125
 21
83.0
 31
0.0
  0
LINE
  5
27A
330
6F
100
AcDbEntity
  8
top_outsideCutPath
100
AcDbLine
 10
296.375
 20
80.0
 30
0.0
 11
306.125
 21
80.0
 31
0.0
  0
LINE
  5
27B
330
6F
100
AcDbEntity
  8
top_outsideCutPath
100
AcDbLine
 10
296.375
 20
77.0
 30
0.0
 11
296.375
 21
83.0
 31
0.0
  0
LINE
  5
27C
330
6F
100
AcDbEntity
  8
top_outsideCutPath
100
AcDbLine
 10
296.375
 20
77.0
 30
0.0
 11
286.625
 21
77.0
 31
0.0
  0
LINE
  5
27D
330
6F
100
AcDbEntity
  8
top_outsideCutPath
100
AcDbLine
 10
286.625
 20
77.0
 30
0.0
 11
286.625
 21
83.0
 31
0.0
  0
LINE
  5
27E
330
6F
100
AcDbEntity
  8
top_outsideCutPath
100
AcDbLine
 10
276.875
 20
80.0
 30
0.0
 11
286.625
 21
80.0
 31
0.0
  0
LINE
  5
27F
330
6F
100
AcDbEntity
  8
top_outsideCutPath
100
AcDbLine
 10
276.875
 20
77.0
 30
0.0
 11
276.875
 21
83.0
 31
0.0
  0
LINE
  5
280
330
6F
100
AcDbEntity
  8
top_outsideCutPath
100
AcDbLine
 10
276.875
 20
77.0
 30
0.0
 11
267.125
 21
77.0
 31
0.0
  0
LINE
  5
281
330
6F
100
AcDbEntity
  8
top_outsideCutPath
100
AcDbLine
 10
267.125
 20
77.0
 30
0.0
 11
263.0
 21
77.0
 31
0.0
  0
LINE
  5
302
330
6F
100
AcDbEntity
  8
back_outsideCutPath
100
AcDbLine
 10
0.0
 20
240.0
 30
0.0
 11
0.0
 21
223.875
 31
0.0
  0
LINE
  5
303
330
6F
100
AcDbEntity
  8
back_outsideCutPath
100
AcDbLine
 10
0.0
 20
223.875
 30
0.0
 11
3.0
 21
223.875
 31
0.0
  0
LINE
  5
304
330
6F
100
AcDbEntity
  8
back_outsideCutPath
100
AcDbLine
 10
3.0
 20
223.875
 30
0.0
 11
3.0
 21
214.125
 31
0.0
  0
LINE
  5
305
330
6F
100
AcDbEntity
  8
back_outsideCutPath
100
AcDbLine
 10
3.0
 20
214.125
 30
0.0
 11
0.0
 21
214.125
 31
0.0
  0
LINE
  5
306
330
6F
100
AcDbEntity
  8
back_outsideCutPath
100
AcDbLine
 10
0.0
 20
214.125
 30
0.0
 11
0.0
 21
204.375
 31
0.0
  0
LINE
  5
307
330
6F
100
AcDbEntity
  8
back_outsideCutPath
100
AcDbLine
 10
0.0
 20
204.375
 30
0.0
 11
3.0
 21
204.375
 31
0.0
  0
LINE
  5
308
330
6F
100
AcDbEntity
  8
back_outsideCutPath
100
AcDbLine
 10
3.0
 20
204.375
 30
0.0
 11
3.0
 21
194.625
 31
0.0
  0
LINE
  5
309
330
6F
100
AcDbEntity
  8
back_outsideCutPath
100
AcDbLine
 10
3.0
 20
194.625
 30
0.0
 11
0.0
 21
194.625
 31
0.0
  0
LINE
  5
30A
330
6F
100
AcDbEntity
  8
back_outsideCutPath
100
AcDbLine
 10
0.0
 20
194.625
 30
0.0
 11
0.0
 21
184.875
 31
0.0
  0
LINE
  5
30B
330
6F
100
AcDbEntity
  8
back_outsideCutPath
100
AcDbLine
 10
0.0
 20
184.875
 30
0.0
 11
3.0
 21
184.875
 31
0.0
  0
LINE
  5
30C
330
6F
100
AcDbEntity
  8
back_outsideCutPath
100
AcDbLine
 10
3.0
 20
184.875
 30
0.0
 11
3.0
 21
175.125
 31
0.0
  0
LINE
  5
30D
330
6F
100
AcDbEntity
  8
back_outsideCutPath
100
AcDbLine
 10
3.0
 20
175.125
 30
0.0
 11
0.0
 21
175.125
 31
0.0
  0
LINE
  5
30E
330
6F
100
AcDbEntity
  8
back_outsideCutPath
100
AcDbLine
 10
0.0
 20
175.125
 30
0.0
 11
0.0
 21
165.375
 31
0.0
  0
LINE
  5
30F
330
6F
100
AcDbEntity
  8
back_outsideCutPath
100
AcDbLine
 10
0.0
 20
165.375
 30
0.0
 11
3.0
 21
165.375
 31
0.0
  0
LINE
  5
310
330
6F
100
AcDbEntity
  8
back_outsideCutPath
100
AcDbLine
 10
3.0
 20
165.375
 30
0.0
 11
3.0
 21
155.625
 31
0.0
  0
LINE
  5
311
330
6F
100
AcDbEntity
  8
back_outsideCutPath
100
AcDbLine
 10
3.0
 20
155.625
 30
0.0
 11
0.0
 21
155.625
 31
0.0
  0
LINE
  5
312
330
6F
100
AcDbEntity
  8
back_outsideCutPath
100
AcDbLine
 10
0.0
 20
155.625
 30
0.0
 11
0.0
 21
145.875
 31
0.0
  0
LINE
  5
313
330
6F
100
AcDbEntity
  8
back_outsideCutPath
100
AcDbLine
 10
0.0
 20
145.875
 30
0.0
 11
3.0
 21
145.875
 31
0.0
  0
LINE
  5
314
330
6F
100
AcDbEntity
  8
back_outsideCutPath
100
AcDbLine
 10
3.0
 20
145.875
 30
0.0
 11
3.0
 21
136.125
 31
0.0
  0
LINE
  5
315
330
6F
100
AcDbEntity
  8
back_outsideCutPath
100
AcDbLine
 10
3.0
 20
136.125
 30
0.0
 11
0.0
 21
136.125
 31
0.0
  0
LINE
  5
316
330
6F
100
AcDbEntity
  8
back_outsideCutPath
100
AcDbLine
 10
0.0
 20
136.125
 30
0.0
 11
0.0
 21
126.375
 31
0.0
  0
LINE
  5
317
330
6F
100
AcDbEntity
  8
back_outsideCutPath
100
AcDbLine
 10
16.875
 20
123.0
 30
0.0
 11
26.625
 21
123.0
 31
0.0
  0
LINE
  5
318
330
6F
100
AcDbEntity
  8
back_outsideCutPath
100
AcDbLine
 10
36.375
 20
123.0
 30
0.0
 11
46.12499999999999
 21
123.0
 31
0.0
  0
LINE
  5
319
330
6F
100
AcDbEntity
  8
back_outsideCutPath
100
AcDbLine
 10
55.875
 20
123.0
 30
0.0
 11
65.625
 21
123.0
 31
0.0
  0
LINE
  5
31A
330
6F
100
AcDbEntity
  8
back_outsideCutPath
100
AcDbLine
 10
75.375
 20
123.0
 30
0.0
 11
85.12500000000001
 21
123.0
 31
0.0
  0
LINE
  5
31B
330
6F
100
AcDbEntity
  8
back_outsideCutPath
100
AcDbLine
 10
94.875
 20
123.0
 30
0.0
 11
104.625
 21
123.0
 31
0.0
  0
LINE
  5
31C
330
6F
100
AcDbEntity
  8
back_outsideCutPath
100
AcDbLine
 10
114.375
 20
123.0
 30
0.0
 11
124.125
 21
123.0
 31
0.0
  0
LINE
  5
31D
330
6F
100
AcDbEntity
  8
back_outsideCutPath
100
AcDbLine
 10
133.875
 20
123.0
 30
0.0
 11
143.625
 21
123.0
 31
0.0
  0
LINE
  5
31E
330
6F
100
AcDbEntity
  8
back_outsideCutPath
100
AcDbLine
 10
153.375
 20
123.0
 30
0.0
 11
163.125
 21
123.0
 31
0.0
  0
LINE
  5
31F
330
6F
100
AcDbEntity
  8
back_outsideCutPath
100
AcDbLine
 10
177.0
 20
136.125
 30
0.0
 11
183.0
 21
136.125
 31
0.0
  0
LINE
  5
320
330
6F
100
AcDbEntity
  8
back_outsideCutPath
100
AcDbLine
 10
177.0
 20
136.125
 30
0.0
 11
177.0
 21
145.875
 31
0.0
  0
LINE
  5
321
330
6F
100
AcDbEntity
  8
back_outsideCutPath
100
AcDbLine
 10
177.0
 20
145.875
 30
0.0
 11
183.0
 21
145.875
 31
0.0
  0
LINE
  5
322
330
6F
100
AcDbEntity
  8
back_outsideCutPath
100
AcDbLine
 10
180.0
 20
145.875
 30
0.0
 11
180.0
 21
165.375
 31
0.0
  0
LINE
  5
323
330
6F
100
AcDbEntity
  8
back_outsideCutPath
100
AcDbLine
 10
177.0
 20
155.625
 30
0.0
 11
183.0
 21
155.625
 31
0.0
  0
LINE
  5
324
330
6F
100
AcDbEntity
  8
back_outsideCutPath
100
AcDbLine
 10
177.0
 20
155.625
 30
0.0
 11
177.0
 21
165.375
 31
0.0
  0
LINE
  5
325
330
6F
100
AcDbEntity
  8
back_outsideCutPath
100
AcDbLine
 10
177.0
 20
165.375
 30
0.0
 11
183.0
 21
165.375
 31
0.0
  0
LINE
  5
326
330
6F
100
AcDbEntity
  8
back_outsideCutPath
100
AcDbLine
 10
180.0
 20
165.375
 30
0.0
 11
180.0
 21
184.875
 31
0.0
  0
LINE
  5
327
330
6F
100
AcDbEntity
  8
back_outsideCutPath
100
AcDbLine
 10
177.0
 20
175.125
 30
0.0
 11
183.0
 21
175.125
 31
0.0
  0
LINE
  5
328
330
6F
100
AcDbEntity
  8
back_outsideCutPath
100
AcDbLine
 10
177.0
 20
175.125
 30
0.0
 11
177.0
 21
184.875
 31
0.0
  0
LINE
  5
329
330
6F
100
AcDbEntity
  8
back_outsideCutPath
100
AcDbLine
 10
177.0
 20
184.875
 30
0.0
 11
183.0
 21
184.875
 31
0.0
  0
LINE
  5
32A
330
6F
100
AcDbEntity
  8
back_outsideCutPath
100
AcDbLine
 10
180.0
 20
184.875
 30
0.0
 11
180.0
 21
204.375
 31
0.0
  0
LINE
  5
32B
330
6F
100
AcDbEntity
  8
back_outsideCutPath
100
AcDbLine
 10
177.0
 20
194.625
 30
0.0
 11
183.0
 21
194.625
 31
0.0
  0
LINE
  5
32C
330
6F
100
AcDbEntity
  8
back_outsideCutPath
100
AcDbLine
 10
177.0
 20
194.625
 30
0.0
 11
177.0
 21
204.375
 31
0.0
  0
LINE
  5
32D
330
6F
100
AcDbEntity
  8
back_outsideCutPath
100
AcDbLine
 10
177.0
 20
204.375
 30
0.0
 11
183.0
 21
204.375
 31
0.0
  0
LINE
  5
32E
330
6F
100
AcDbEntity
  8
back_outsideCutPath
100
AcDbLine
 10
180.0
 20
204.375
 30
0.0
 11
180.0
 21
223.875
 31
0.0
  0
LINE
  5
32F
330
6F
100
AcDbEntity
  8
back_outsideCutPath
100
AcDbLine
 10
177.0
 20
214.125
 30
0.0
 11
183.0
 21
214.125
 31
0.0
  0
LINE
  5
330
330
6F
100
AcDbEntity
  8
back_outsideCutPath
100
AcDbLine
 10
177.0
 20
214.125
 30
0.0
 11
177.0
 21
223.875
 31
0.0
  0
LINE
  5
331
330
6F
100
AcDbEntity
  8
back_outsideCutPath
100
AcDbLine
 10
177.0
 20
223.875
 30
0.0
 11
183.0
 21
223.875
 31
0.0
  0
LINE
  5
332
330
6F
100
AcDbEntity
  8
back_outsideCutPath
100
AcDbLine
 10
180.0
 20
223.875
 30
0.0
 11
180.0
 21
233.625
 31
0.0
  0
LINE
  5
333
330
6F
100
AcDbEntity
  8
back_outsideCutPath
100
AcDbLine
 10
180.0
 20
233.625
 30
0.0
 11
180.0
 21
240.0
 31
0.0
  0
LINE
  5
334
330
6F
100
AcDbEntity
  8
back_outsideCutPath
100
AcDbLine
 10
180.0
 20
240.0
 30
0.0
 11
163.125
 21
240.0
 31
0.0
  0
LINE
  5
335
330
6F
100
AcDbEntity
  8
back_outsideCutPath
100
AcDbLine
 10
163.125
 20
240.0
 30
0.0
 11
163.125
 21
237.0
 31
0.0
  0
LINE
  5
336
330
6F
100
AcDbEntity
  8
back_outsideCutPath
100
AcDbLine
 10
163.125
 20
237.0
 30
0.0
 11
153.375
 21
237.0
 31
0.0
  0
LINE
  5
337
330
6F
100
AcDbEntity
  8
back_outsideCutPath
100
AcDbLine
 10
153.375
 20
237.0
 30
0.0
 11
153.375
 21
240.0
 31
0.0
  0
LINE
  5
338
330
6F
100
AcDbEntity
  8
back_outsideCutPath
100
AcDbLine
 10
153.375
 20
240.0
 30
0.0
 11
143.625
 21
240.0
 31
0.0
  0
LINE
  5
339
330
6F
100
AcDbEntity
  8
back_outsideCutPath
100
AcDbLine
 10
143.625
 20
240.0
 30
0.0
 11
143.625
 21
237.0
 31
0.0
  0
LINE
  5
33A
330
6F
100
AcDbEntity
  8
back_outsideCutPath
100
AcDbLine
 10
143.625
 20
237.0
 30
0.0
 11
133.875
 21
237.0
 31
0.0
  0
LINE
  5
33B
330
6F
100
AcDbEntity
  8
back_outsideCutPath
100
AcDbLine
 10
133.875
 20
237.0
 30
0.0
 11
133.875
 21
240.0
 31
0.0
  0
LINE
  5
33C
330
6F
100
AcDbEntity
  8
back_outsideCutPath
100
AcDbLine
 10
133.875
 20
240.0
 30
0.0
 11
124.125
 21
240.0
 31
0.0
  0
LINE
  5
33D
330
6F
100
AcDbEntity
  8
back_outsideCutPath
100
AcDbLine
 10
124.125
 20
240.0
 30
0.0
 11
124.125
 21
237.0
 31
0.0
  0
LINE
  5
33E
330
6F
100
AcDbEntity
  8
back_outsideCutPath
100
AcDbLine
 10
124.125
 20
237.0
 30
0.0
 11
114.375
 21
237.0
 31
0.0
  0
LINE
  5
33F
330
6F
100
AcDbEntity
  8
back_outsideCutPath
100
AcDbLine
 10
114.375
 20
237.0
 30
0.0
 11
114.375
 21
240.0
 31
0.0
  0
LINE
  5
340
330
6F
100
AcDbEntity
  8
back_outsideCutPath
100
AcDbLine
 10
114.375
 20
240.0
 30
0.0
 11
104.625
 21
240.0
 31
0.0
  0
LINE
  5
341
330
6F
100
AcDbEntity
  8
back_outsideCutPath
100
AcDbLine
 10
104.625
 20
240.0
 30
0.0
 11
104.625
 21
237.0
 31
0.0
  0
LINE
  5
342
330
6F
100
AcDbEntity
  8
back_outsideCutPath
100
AcDbLine
 10
104.625
 20
237.0
 30
0.0
 11
94.875
 21
237.0
 31
0.0
  0
LINE
  5
343
330
6F
100
AcDbEntity
  8
back_outsideCutPath
100
AcDbLine
 10
94.875
 20
237.0
 30
0.0
 11
94.875
 21
240.0
 31
0.0
  0
LINE
  5
344
330
6F
100
AcDbEntity
  8
back_outsideCutPath
100
AcDbLine
 10
94.875
 20
240.0
 30
0.0
 11
85.12500000000001
 21
240.0
 31
0.0
  0
LINE
  5
345
330
6F
100
AcDbEntity
  8
back_outsideCutPath
100
AcDbLine
 10
85.12500000000001
 20
240.0
 30
0.0
 11
85.12500000000001
 21
237.0
 31
0.0
  0
LINE
  5
346
330
6F
100
AcDbEntity
  8
back_outsideCutPath
100
AcDbLine
 10
85.12500000000001
 20
237.0
 30
0.0
 11
75.375
 21
237.0
 31
0.0
  0
LINE
  5
347
330
6F
100
AcDbEntity
  8
back_outsideCutPath
100
AcDbLine
 10
75.375
 20
237.0
 30
0.0
 11
75.375
 21
240.0
 31
0.0
  0
LINE
  5
348
330
6F
100
AcDbEntity
  8
back_outsideCutPath
100
AcDbLine
 10
75.375
 20
240.0
 30
0.0
 11
65.625
 21
240.0
 31
0.0
  0
LINE
  5
349
330
6F
100
AcDbEntity
  8
back_outsideCutPath
100
AcDbLine
 10
65.625
 20
240.0
 30
0.0
 11
65.625
 21
237.0
 31
0.0
  0
LINE
  5
34A
330
6F
100
AcDbEntity
  8
back_outsideCutPath
100
AcDbLine
 10
65.625
 20
237.0
 30
0.0
 11
55.875
 21
237.0
 31
0.0
  0
LINE
  5
34B
330
6F
100
AcDbEntity
  8
back_outsideCutPath
100
AcDbLine
 10
55.875
 20
237.0
 30
0.0
 11
55.875
 21
240.0
 31
0.0
  0
LINE
  5
34C
330
6F
100
AcDbEntity
  8
back_outsideCutPath
100
AcDbLine
 10
55.875
 20
240.0
 30
0.0
 11
46.12499999999999
 21
240.0
 31
0.0
  0
LINE
  5
34D
330
6F
100
AcDbEntity
  8
back_outsideCutPath
100
AcDbLine
 10
46.12499999999999
 20
240.0
 30
0.0
 11
46.12499999999999
 21
237.0
 31
0.0
  0
LINE
  5
34E
330
6F
100
AcDbEntity
  8
back_outsideCutPath
100
AcDbLine
 10
46.12499999999999
 20
237.0
 30
0.0
 11
36.375
 21
237.0
 31
0.0
  0
LINE
  5
34F
330
6F
100
AcDbEntity
  8
back_outsideCutPath
100
AcDbLine
 10
36.375
 20
237.0
 30
0.0
 11
36.375
 21
240.0
 31
0.0
  0
LINE
  5
350
330
6F
100
AcDbEntity
  8
back_outsideCutPath
100
AcDbLine
 10
36.375
 20
240.0
 30
0.0
 11
26.625
 21
240.0
 31
0.0
  0
LINE
  5
351
330
6F
100
AcDbEntity
  8
back_outsideCutPath
100
AcDbLine
 10
26.625
 20
240.0
 30
0.0
 11
26.625
 21
237.0
 31
0.0
  0
LINE
  5
352
330
6F
100
AcDbEntity
  8
back_outsideCutPath
100
AcDbLine
 10
26.625
 20
237.0
 30
0.0
 11
16.875
 21
237.0
 31
0.0
  0
LINE
  5
353
330
6F
100
AcDbEntity
  8
back_outsideCutPath
100
AcDbLine
 10
16.875
 20
237.0
 30
0.0
 11
16.875
 21
240.0
 31
0.0
  0
LINE
  5
354
330
6F
100
AcDbEntity
  8
back_outsideCutPath
100
AcDbLine
 10
16.875
 20
240.0
 30
0.0
 11
7.125
 21
240.0
 31
0.0
  0
LINE
  5
355
330
6F
100
AcDbEntity
  8
back_outsideCutPath
100
AcDbLine
 10
7.125
 20
240.0
 30
0.0
 11
0.0
 21
240.0
 31
0.0
  0
LINE
  5
400
330
6F
100
AcDbEntity
  8
right_outsideCutPath
100
AcDbLine
 10
183.0
 20
240.0
 30
0.0
 11
183.0
 21
223.875
 31
0.0
  0
LINE
  5
401
330
6F
100
AcDbEntity
  8
right_outsideCutPath
100
AcDbLine
 10
183.0
 20
214.125
 30
0.0
 11
183.0
 21
204.375
 31
0.0
  0
LINE
  5
402
330
6F
100
AcDbEntity
  8
right_outsideCutPath
100
AcDbLine
 10
183.0
 20
194.625
 30
0.0
 11
183.0
 21
184.875
 31
0.0
  0
LINE
  5
403
330
6F
100
AcDbEntity
  8
right_outsideCutPath
100
AcDbLine
 10
183.0
 20
175.125
 30
0.0
 11
183.0
 21
165.375
 31
0.0
  0
LINE
  5
404
330
6F
100
AcDbEntity
  8
right_outsideCutPath
100
AcDbLine
 10
183.0
 20
155.625
 30
0.0
 11
183.0
 21
145.875
 31
0.0
  0
LINE
  5
405
330
6F
100
AcDbEntity
  8
right_outsideCutPath
100
AcDbLine
 10
183.0
 20
136.125
 30
0.0
 11
183.0
 21
126.375
 31
0.0
  0
LINE
  5
406
330
6F
100
AcDbEntity
  8
right_outsideCutPath
100
AcDbLine
 10
195.625
 20
123.0
 30
0.0
 11
205.375
 21
123.0
 31
0.0
  0
LINE
  5
407
330
6F
100
AcDbEntity
  8
right_outsideCutPath
100
AcDbLine
 10
215.125
 20
123.0
 30
0.0
 11
224.875
 21
123.0
 31
0.0
  0
LINE
  5
408
330
6F
100
AcDbEntity
  8
right_outsideCutPath
100
AcDbLine
 10
234.625
 20
123.0
 30
0.0
 11
244.375
 21
123.0
 31
0.0
  0
LINE
  5
409
330
6F
100
AcDbEntity
  8
right_outsideCutPath
100
AcDbLine
 10
257.0
 20
136.125
 30
0.0
 11
260.0
 21
136.125
 31
0.0
  0
LINE
  5
40A
330
6F
100
AcDbEntity
  8
right_outsideCutPath
100
AcDbLine
 10
260.0
 20
134.625
 30
0.0
 11
260.0
 21
145.875
 31
0.0
  0
LINE
  5
40B
330
6F
100
AcDbEntity
  8
right_outsideCutPath
100
AcDbLine
 10
260.0
 20
145.875
 30
0.0
 11
257.0
 21
145.875
 31
0.0
  0
LINE
  5
40C
330
6F
100
AcDbEntity
  8
right_outsideCutPath
100
AcDbLine
 10
257.0
 20
145.875
 30
0.0
 11
257.0
 21
155.625
 31
0.0
  0
LINE
  5
40D
330
6F
100
AcDbEntity
  8
right_outsideCutPath
100
AcDbLine
 10
257.0
 20
155.625
 30
0.0
 11
260.0
 21
155.625
 31
0.0
  0
LINE
  5
40E
330
6F
100
AcDbEntity
  8
right_outsideCutPath
100
AcDbLine
 10
260.0
 20
155.625
 30
0.0
 11
260.0
 21
165.375
 31
0.0
  0
LINE
  5
40F
330
6F
100
AcDbEntity
  8
right_outsideCutPath
100
AcDbLine
 10
260.0
 20
165.375
 30
0.0
 11
257.0
 21
165.375
 31
0.0
  0
LINE
  5
410
330
6F
100
AcDbEntity
  8
right_outsideCutPath
100
AcDbLine
 10
257.0
 20
165.375
 30
0.0
 11
257.0
 21
175.125
 31
0.0
  0
LINE
  5
411
330
6F
100
AcDbEntity
  8
right_outsideCutPath
100
AcDbLine
 10
257.0
 20
175.125
 30
0.0
 11
260.0
 21
175.125
 31
0.0
  0
LINE
  5
412
330
6F
100
AcDbEntity
  8
right_outsideCutPath
100
AcDbLine
 10
260.0
 20
175.125
 30
0.0
 11
260.0
 21
184.875
 31
0.0
  0
LINE
  5
413
330
6F
100
AcDbEntity
  8
right_outsideCutPath
100
AcDbLine
 10
260.0
 20
184.875
 30
0.0
 11
257.0
 21
184.875
 31
0.0
  0
LINE
  5
414
330
6F
100
AcDbEntity
  8
right_outsideCutPath
100
AcDbLine
 10
257.0
 20
184.875
 30
0.0
 11
257.0
 21
194.625
 31
0.0
  0
LINE
  5
415
330
6F
100
AcDbEntity
  8
right_outsideCutPath
100
AcDbLine
 10
257.0
 20
194.625
 30
0.0
 11
260.0
 21
194.625
 31
0.0
  0
LINE
  5
416
330
6F
100
AcDbEntity
  8
right_outsideCutPath
100
AcDbLine
 10
260.0
 20
194.625
 30
0.0
 11
260.0
 21
204.375
 31
0.0
  0
LINE
  5
417
330
6F
100
AcDbEntity
  8
right_outsideCutPath
100
AcDbLine
 10
260.0
 20
204.375
 30
0.0
 11
257.0
 21
204.375
 31
0.0
  0
LINE
  5
418
330
6F
100
AcDbEntity
  8
right_outsideCutPath
100
AcDbLine
 10
257.0
 20
204.375
 30
0.0
 11
257.0
 21
214.125
 31
0.0
  0
LINE
  5
419
330
6F
100
AcDbEntity
  8
right_outsideCutPath
100
AcDbLine
 10
257.0
 20
214.125
 30
0.0
 11
260.0
 21
214.125
 31
0.0
  0
LINE
  5
41A
330
6F
100
AcDbEntity
  8
right_outsideCutPath
100
AcDbLine
 10
260.0
 20
214.125
 30
0.0
 11
260.0
 21
223.875
 31
0.0
  0
LINE
  5
41B
330
6F
100
AcDbEntity
  8
right_outsideCutPath
100
AcDbLine
 10
260.0
 20
223.875
 30
0.0
 11
257.0
 21
223.875
 31
0.0
  0
LINE
  5
41C
330
6F
100
AcDbEntity
  8
right_outsideCutPath
100
AcDbLine
 10
257.0
 20
223.875
 30
0.0
 11
257.0
 21
233.625
 31
0.0
  0
LINE
  5
41D
330
6F
100
AcDbEntity
  8
right_outsideCutPath
100
AcDbLine
 10
257.0
 20
233.625
 30
0.0
 11
257.0
 21
240.0
 31
0.0
  0
LINE
  5
41E
330
6F
100
AcDbEntity
  8
right_outsideCutPath
100
AcDbLine
 10
257.0
 20
240.0
 30
0.0
 11
244.375
 21
240.0
 31
0.0
  0
LINE
  5
41F
330
6F
100
AcDbEntity
  8
right_outsideCutPath
100
AcDbLine
 10
244.375
 20
240.0
 30
0.0
 11
244.375
 21
237.0
 31
0.0
  0
LINE
  5
420
330
6F
100
AcDbEntity
  8
right_outsideCutPath
100
AcDbLine
 10
244.375
 20
237.0
 30
0.0
 11
234.625
 21
237.0
 31
0.0
  0
LINE
  5
421
330
6F
100
AcDbEntity
  8
right_outsideCutPath
100
AcDbLine
 10
234.625
 20
237.0
 30
0.0
 11
234.625
 21
240.0
 31
0.0
  0
LINE
  5
422
330
6F
100
AcDbEntity
  8
right_outsideCutPath
100
AcDbLine
 10
234.625
 20
240.0
 30
0.0
 11
224.875
 21
240.0
 31
0.0
  0
LINE
  5
423
330
6F
100
AcDbEntity
  8
right_outsideCutPath
100
AcDbLine
 10
224.875
 20
240.0
 30
0.0
 11
224.875
 21
237.0
 31
0.0
  0
LINE
  5
424
330
6F
100
AcDbEntity
  8
right_outsideCutPath
100
AcDbLine
 10
224.875
 20
237.0
 30
0.0
 11
215.125
 21
237.0
 31
0.0
  0
LINE
  5
425
330
6F
100
AcDbEntity
  8
right_outsideCutPath
100
AcDbLine
 10
215.125
 20
237.0
 30
0.0
 11
215.125
 21
240.0
 31
0.0
  0
LINE
  5
426
330
6F
100
AcDbEntity
  8
right_outsideCutPath
100
AcDbLine
 10
215.125
 20
240.0
 30
0.0
 11
205.375
 21
240.0
 31
0.0
  0
LINE
  5
427
330
6F
100
AcDbEntity
  8
right_outsideCutPath
100
AcDbLine
 10
205.375
 20
240.0
 30
0.0
 11
205.375
 21
237.0
 31
0.0
  0
LINE
  5
428
330
6F
100
AcDbEntity
  8
right_outsideCutPath
100
AcDbLine
 10
205.375
 20
237.0
 30
0.0
 11
195.625
 21
237.0
 31
0.0
  0
LINE
  5
429
330
6F
100
AcDbEntity
  8
right_outsideCutPath
100
AcDbLine
 10
195.625
 20
237.0
 30
0.0
 11
195.625
 21
240.0
 31
0.0
  0
LINE
  5
42A
330
6F
100
AcDbEntity
  8
right_outsideCutPath
100
AcDbLine
 10
195.625
 20
240.0
 30
0.0
 11
185.875
 21
240.0
 31
0.0
  0
LINE
  5
42B
330
6F
100
AcDbEntity
  8
right_outsideCutPath
100
AcDbLine
 10
185.875
 20
240.0
 30
0.0
 11
183.0
 21
240.0
 31
0.0
  0
LINE
  5
509
330
6F
100
AcDbEntity
  8
bottom_outsideCutPath
100
AcDbLine
 10
263.0
 20
157.0
 30
0.0
 11
263.0
 21
144.375
 31
0.0
  0
LINE
  5
50A
330
6F
100
AcDbEntity
  8
bottom_outsideCutPath
100
AcDbLine
 10
263.0
 20
144.375
 30
0.0
 11
260.0
 21
144.375
 31
0.0
  0
LINE
  5
50B
330
6F
100
AcDbEntity
  8
bottom_outsideCutPath
100
AcDbLine
 10
260.0
 20
134.625
 30
0.0
 11
263.0
 21
134.625
 31
0.0
  0
LINE
  5
50C
330
6F
100
AcDbEntity
  8
bottom_outsideCutPath
100
AcDbLine
 10
263.0
 20
134.625
 30
0.0
 11
263.0
 21
124.875
 31
0.0
  0
LINE
  5
50D
330
6F
100
AcDbEntity
  8
bottom_outsideCutPath
100
AcDbLine
 10
263.0
 20
124.875
 30
0.0
 11
260.0
 21
124.875
 31
0.0
  0
LINE
  5
50E
330
6F
100
AcDbEntity
  8
bottom_outsideCutPath
100
AcDbLine
 10
260.0
 20
124.875
 30
0.0
 11
260.0
 21
115.125
 31
0.0
  0
LINE
  5
50F
330
6F
100
AcDbEntity
  8
bottom_outsideCutPath
100
AcDbLine
 10
260.0
 20
115.125
 30
0.0
 11
263.0
 21
115.125
 31
0.0
  0
LINE
  5
510
330
6F
100
AcDbEntity
  8
bottom_outsideCutPath
100
AcDbLine
 10
263.0
 20
115.125
 30
0.0
 11
263.0
 21
105.375
 31
0.0
  0
LINE
  5
511
330
6F
100
AcDbEntity
  8
bottom_outsideCutPath
100
AcDbLine
 10
263.0
 20
105.375
 30
0.0
 11
260.0
 21
105.375
 31
0.0
  0
LINE
  5
512
330
6F
100
AcDbEntity
  8
bottom_outsideCutPath
100
AcDbLine
 10
260.0
 20
95.625
 30
0.0
 11
263.0
 21
95.625
 31
0.0
  0
LINE
  5
513
330
6F
100
AcDbEntity
  8
bottom_outsideCutPath
100
AcDbLine
 10
263.0
 20
95.625
 30
0.0
 11
263.0
 21
85.875
 31
0.0
  0
LINE
  5
514
330
6F
100
AcDbEntity
  8
bottom_outsideCutPath
100
AcDbLine
 10
263.0
 20
85.875
 30
0.0
 11
263.0
 21
83.0
 31
0.0
  0
LINE
  5
515
330
6F
100
AcDbEntity
  8
bottom_outsideCutPath
100
AcDbLine
 10
263.0
 20
83.0
 30
0.0
 11
276.875
 21
83.0
 31
0.0
  0
LINE
  5
516
330
6F
100
AcDbEntity
  8
bottom_outsideCutPath
100
AcDbLine
 10
286.625
 20
83.0
 30
0.0
 11
296.375
 21
83.0
 31
0.0
  0
LINE
  5
517
330
6F
100
AcDbEntity
  8
bottom_outsideCutPath
100
AcDbLine
 10
306.125
 20
83.0
 30
0.0
 11
315.875
 21
83.0
 31
0.0
  0
LINE
  5
518
330
6F
100
AcDbEntity
  8
bottom_outsideCutPath
100
AcDbLine
 10
325.625
 20
83.0
 30
0.0
 11
335.375
 21
83.0
 31
0.0
  0
LINE
  5
519
330
6F
100
AcDbEntity
  8
bottom_outsideCutPath
100
AcDbLine
 10
345.125
 20
83.0
 30
0.0
 11
354.875
 21
83.0
 31
0.0
  0
LINE
  5
51A
330
6F
100
AcDbEntity
  8
bottom_outsideCutPath
100
AcDbLine
 10
364.625
 20
83.0
 30
0.0
 11
374.375
 21
83.0
 31
0.0
  0
LINE
  5
51B
330
6F
100
AcDbEntity
  8
bottom_outsideCutPath
100
AcDbLine
 10
384.125
 20
83.0
 30
0.0
 11
393.875
 21
83.0
 31
0.0
  0
LINE
  5
51C
330
6F
100
AcDbEntity
  8
bottom_outsideCutPath
100
AcDbLine
 10
403.6249999999999
 20
83.0
 30
0.0
 11
413.375
 21
83.0
 31
0.0
  0
LINE
  5
51D
330
6F
100
AcDbEntity
  8
bottom_outsideCutPath
100
AcDbLine
 10
423.125
 20
83.0
 30
0.0
 11
432.875
 21
83.0
 31
0.0
  0
LINE
  5
51E
330
6F
100
AcDbEntity
  8
bottom_outsideCutPath
100
AcDbLine
 10
432.875
 20
83.0
 30
0.0
 11
437.0
 21
83.0
 31
0.0
  0
LINE
  5
51F
330
6F
100
AcDbEntity
  8
bottom_outsideCutPath
100
AcDbLine
 10
437.0
 20
83.0
 30
0.0
 11
437.0
 21
95.625
 31
0.0
  0
LINE
  5
520
330
6F
100
AcDbEntity
  8
bottom_outsideCutPath
100
AcDbLine
 10
437.0
 20
95.625
 30
0.0
 11
440.0
 21
95.625
 31
0.0
  0
LINE
  5
521
330
6F
100
AcDbEntity
  8
bottom_outsideCutPath
100
AcDbLine
 10
440.0
 20
95.625
 30
0.0
 11
440.0
 21
105.375
 31
0.0
  0
LINE
  5
522
330
6F
100
AcDbEntity
  8
bottom_outsideCutPath
100
AcDbLine
 10
440.0
 20
105.375
 30
0.0
 11
437.0
 21
105.375
 31
0.0
  0
LINE
  5
523
330
6F
100
AcDbEntity
  8
bottom_outsideCutPath
100
AcDbLine
 10
437.0
 20
105.375
 30
0.0
 11
437.0
 21
115.125
 31
0.0
  0
LINE
  5
524
330
6F
100
AcDbEntity
  8
bottom_outsideCutPath
100
AcDbLine
 10
437.0
 20
115.125
 30
0.0
 11
440.0
 21
115.125
 31
0.0
  0
LINE
  5
525
330
6F
100
AcDbEntity
  8
bottom_outsideCutPath
100
AcDbLine
 10
440.0
 20
115.125
 30
0.0
 11
440.0
 21
124.875
 31
0.0
  0
LINE
  5
526
330
6F
100
AcDbEntity
  8
bottom_outsideCutPath
100
AcDbLine
 10
440.0
 20
124.875
 30
0.0
 11
437.0
 21
124.875
 31
0.0
  0
LINE
  5
527
330
6F
100
AcDbEntity
  8
bottom_outsideCutPath
100
AcDbLine
 10
437.0
 20
124.875
 30
0.0
 11
437.0
 21
134.625
 31
0.0
  0
LINE
  5
528
330
6F
100
AcDbEntity
  8
bottom_outsideCutPath
100
AcDbLine
 10
437.0
 20
134.625
 30
0.0
 11
440.0
 21
134.625
 31
0.0
  0
LINE
  5
529
330
6F
100
AcDbEntity
  8
bottom_outsideCutPath
100
AcDbLine
 10
440.0
 20
134.625
 30
0.0
 11
440.0
 21
144.375
 31
0.0
  0
LINE
  5
52A
330
6F
100
AcDbEntity
  8
bottom_outsideCutPath
100
AcDbLine
 10
440.0
 20
144.375
 30
0.0
 11
437.0
 21
144.375
 31
0.0
  0
LINE
  5
52B
330
6F
100
AcDbEntity
  8
bottom_outsideCutPath
100
AcDbLine
 10
437.0
 20
144.375
 30
0.0
 11
437.0
 21
154.125
 31
0.0
  0
LINE
  5
52C
330
6F
100
AcDbEntity
  8
bottom_outsideCutPath
100
AcDbLine
 10
437.0
 20
154.125
 30
0.0
 11
437.0
 21
157.0
 31
0.0
  0
LINE
  5
52D
330
6F
100
AcDbEntity
  8
bottom_outsideCutPath
100
AcDbLine
 10
437.0
 20
157.0
 30
0.0
 11
423.125
 21
157.0
 31
0.0
  0
LINE
  5
52E
330
6F
100
AcDbEntity
  8
bottom_outsideCutPath
100
AcDbLine
 10
423.125
 20
157.0
 30
0.0
 11
423.125
 21
160.0
 31
0.0
  0
LINE
  5
52F
330
6F
100
AcDbEntity
  8
bottom_outsideCutPath
100
AcDbLine
 10
423.125
 20
160.0
 30
0.0
 11
413.375
 21
160.0
 31
0.0
  0
LINE
  5
530
330
6F
100
AcDbEntity
  8
bottom_outsideCutPath
100
AcDbLine
 10
413.375
 20
160.0
 30
0.0
 11
413.375
 21
157.0
 31
0.0
  0
LINE
  5
531
330
6F
100
AcDbEntity
  8
bottom_outsideCutPath
100
AcDbLine
 10
413.375
 20
157.0
 30
0.0
 11
403.6249999999999
 21
157.0
 31
0.0
  0
LINE
  5
532
330
6F
100
AcDbEntity
  8
bottom_outsideCutPath
100
AcDbLine
 10
403.6249999999999
 20
157.0
 30
0.0
 11
403.6249999999999
 21
160.0
 31
0.0
  0
LINE
  5
533
330
6F
100
AcDbEntity
  8
bottom_outsideCutPath
100
AcDbLine
 10
403.6249999999999
 20
160.0
 30
0.0
 11
393.875
 21
160.0
 31
0.0
  0
LINE
  5
534
330
6F
100
AcDbEntity
  8
bottom_outsideCutPath
100
AcDbLine
 10
393.875
 20
160.0
 30
0.0
 11
393.875
 21
157.0
 31
0.0
  0
LINE
  5
535
330
6F
100
AcDbEntity
  8
bottom_outsideCutPath
100
AcDbLine
 10
393.875
 20
157.0
 30
0.0
 11
384.125
 21
157.0
 31
0.0
  0
LINE
  5
536
330
6F
100
AcDbEntity
  8
bottom_outsideCutPath
100
AcDbLine
 10
384.125
 20
157.0
 30
0.0
 11
384.125
 21
160.0
 31
0.0
  0
LINE
  5
537
330
6F
100
AcDbEntity
  8
bottom_outsideCutPath
100
AcDbLine
 10
384.125
 20
160.0
 30
0.0
 11
374.375
 21
160.0
 31
0.0
  0
LINE
  5
538
330
6F
100
AcDbEntity
  8
bottom_outsideCutPath
100
AcDbLine
 10
374.375
 20
160.0
 30
0.0
 11
374.375
 21
157.0
 31
0.0
  0
LINE
  5
539
330
6F
100
AcDbEntity
  8
bottom_outsideCutPath
100
AcDbLine
 10
374.375
 20
157.0
 30
0.0
 11
364.625
 21
157.0
 31
0.0
  0
LINE
  5
53A
330
6F
100
AcDbEntity
  8
bottom_outsideCutPath
100
AcDbLine
 10
364.625
 20
157.0
 30
0.0
 11
364.625
 21
160.0
 31
0.0
  0
LINE
  5
53B
330
6F
100
AcDbEntity
  8
bottom_outsideCutPath
100
AcDbLine
 10
364.625
 20
160.0
 30
0.0
 11
354.875
 21
160.0
 31
0.0
  0
LINE
  5
53C
330
6F
100
AcDbEntity
  8
bottom_outsideCutPath
100
AcDbLine
 10
354.875
 20
160.0
 30
0.0
 11
354.875
 21
157.0
 31
0.0
  0
LINE
  5
53D
330
6F
100
AcDbEntity
  8
bottom_outsideCutPath
100
AcDbLine
 10
354.875
 20
157.0
 30
0.0
 11
345.125
 21
157.0
 31
0.0
  0
LINE
  5
53E
330
6F
100
AcDbEntity
  8
bottom_outsideCutPath
100
AcDbLine
 10
345.125
 20
157.0
 30
0.0
 11
345.125
 21
160.0
 31
0.0
  0
LINE
  5
53F
330
6F
100
AcDbEntity
  8
bottom_outsideCutPath
100
AcDbLine
 10
345.125
 20
160.0
 30
0.0
 11
335.375
 21
160.0
 31
0.0
  0
LINE
  5
540
330
6F
100
AcDbEntity
  8
bottom_outsideCutPath
100
AcDbLine
 10
335.375
 20
160.0
 30
0.0
 11
335.375
 21
157.0
 31
0.0
  0
LINE
  5
541
330
6F
100
AcDbEntity
  8
bottom_outsideCutPath
100
AcDbLine
 10
335.375
 20
157.0
 30
0.0
 11
325.625
 21
157.0
 31
0.0
  0
LINE
  5
542
330
6F
100
AcDbEntity
  8
bottom_outsideCutPath
100
AcDbLine
 10
325.625
 20
157.0
 30
0.0
 11
325.625
 21
160.0
 31
0.0
  0
LINE
  5
543
330
6F
100
AcDbEntity
  8
bottom_outsideCutPath
100
AcDbLine
 10
325.625
 20
160.0
 30
0.0
 11
315.875
 21
160.0
 31
0.0
  0
LINE
  5
544
330
6F
100
AcDbEntity
  8
bottom_outsideCutPath
100
AcDbLine
 10
315.875
 20
160.0
 30
0.0
 11
315.875
 21
157.0
 31
0.0
  0
LINE
  5
545
330
6F
100
AcDbEntity
  8
bottom_outsideCutPath
100
AcDbLine
 10
315.875
 20
157.0
 30
0.0
 11
306.125
 21
157.0
 31
0.0
  0
LINE
  5
546
330
6F
100
AcDbEntity
  8
bottom_outsideCutPath
100
AcDbLine
 10
306.125
 20
157.0
 30
0.0
 11
306.125
 21
160.0
 31
0.0
  0
LINE
  5
547
330
6F
100
AcDbEntity
  8
bottom_outsideCutPath
100
AcDbLine
 10
306.125
 20
160.0
 30
0.0
 11
296.375
 21
160.0
 31
0.0
  0
LINE
  5
548
330
6F
100
AcDbEntity
  8
bottom_outsideCutPath
100
AcDbLine
 10
296.375
 20
160.0
 30
0.0
 11
296.375
 21
157.0
 31
0.0
  0
LINE
  5
549
330
6F
100
AcDbEntity
  8
bottom_outsideCutPath
100
AcDbLine
 10
296.375
 20
157.0
 30
0.0
 11
286.625
 21
157.0
 31
0.0
  0
LINE
  5
54A
330
6F
100
AcDbEntity
  8
bottom_outsideCutPath
100
AcDbLine
 10
286.625
 20
157.0
 30
0.0
 11
286.625
 21
160.0
 31
0.0
  0
LINE
  5
54B
330
6F
100
AcDbEntity
  8
bottom_outsideCutPath
100
AcDbLine
 10
286.625
 20
160.0
 30
0.0
 11
276.875
 21
160.0
 31
0.0
  0
LINE
  5
54C
330
6F
100
AcDbEntity
  8
bottom_outsideCutPath
100
AcDbLine
 10
276.875
 20
160.0
 30
0.0
 11
276.875
 21
157.0
 31
0.0
  0
LINE
  5
54D
330
6F
100
AcDbEntity
  8
bottom_outsideCutPath
100
AcDbLine
 10
276.875
 20
157.0
 30
0.0
 11
267.125
 21
157.0
 31
0.0
  0
LINE
  5
54E
330
6F
100
AcDbEntity
  8
bottom_outsideCutPath
100
AcDbLine
 10
267.125
 20
157.0
 30
0.0
 11
263.0
 21
157.0
 31
0.0
  0
LINE
  5
662
330
6F
100
AcDbEntity
  8
0
  6
Continuous
100
AcDbLine
 10
39.00000000000002
 20
208.0
 30
0.0
 11
49.00000000000002
 21
208.0
 31
0.0
  0
LINE
  5
663
330
6F
100
AcDbEntity
  8
0
  6
Continuous
100
AcDbLine
 10
49.00000000000002
 20
208.0
 30
0.0
 11
49.00000000000002
 21
211.0
 31
0.0
  0
LINE
  5
664
330
6F
100
AcDbEntity
  8
0
  6
Continuous
100
AcDbLine
 10
49.00000000000002
 20
211.0
 30
0.0
 11
48.99999999999997
 21
211.0
 31
0.0
  0
LINE
  5
665
330
6F
100
AcDbEntity
  8
0
  6
Continuous
100
AcDbLine
 10
143.0
 20
208.0
 30
0.0
 11
133.0
 21
208.0
 31
0.0
  0
LINE
  5
666
330
6F
100
AcDbEntity
  8
0
  6
Continuous
100
AcDbLine
 10
133.0
 20
208.0
 30
0.0
 11
133.0
 21
211.0
 31
0.0
  0
LINE
  5
667
330
6F
100
AcDbEntity
  8
0
  6
Continuous
100
AcDbLine
 10
143.0
 20
208.0
 30
0.0
 11
143.0
 21
198.0
 31
0.0
  0
LINE
  5
668
330
6F
100
AcDbEntity
  8
0
  6
Continuous
100
AcDbLine
 10
143.0
 20
198.0
 30
0.0
 11
146.0
 21
198.0
 31
0.0
  0
LINE
  5
669
330
6F
100
AcDbEntity
  8
0
  6
Continuous
100
AcDbLine
 10
143.0
 20
159.0
 30
0.0
 11
143.0
 21
169.0
 31
0.0
  0
LINE
  5
66A
330
6F
100
AcDbEntity
  8
0
  6
Continuous
100
AcDbLine
 10
143.0
 20
169.0
 30
0.0
 11
146.0
 21
169.0
 31
0.0
  0
LINE
  5
66B
330
6F
100
AcDbEntity
  8
0
  6
Continuous
100
AcDbLine
 10
143.0
 20
159.0
 30
0.0
 11
133.0
 21
159.0
 31
0.0
  0
LINE
  5
66C
330
6F
100
AcDbEntity
  8
0
  6
Continuous
100
AcDbLine
 10
133.0
 20
159.0
 30
0.0
 11
133.0
 21
156.0
 31
0.0
  0
LINE
  5
66D
330
6F
100
AcDbEntity
  8
0
  6
Continuous
100
AcDbLine
 10
39.00000000000002
 20
159.0
 30
0.0
 11
49.0
 21
159.0
 31
0.0
  0
LINE
  5
66E
330
6F
100
AcDbEntity
  8
0
  6
Continuous
100
AcDbLine
 10
49.0
 20
159.0
 30
0.0
 11
49.0
 21
156.0
 31
0.0
  0
LINE
  5
66F
330
6F
100
AcDbEntity
  8
0
  6
Continuous
100
AcDbLine
 10
39.00000000000002
 20
159.0
 30
0.0
 11
39.00000000000002
 21
169.0
 31
0.0
  0
LINE
  5
670
330
6F
100
AcDbEntity
  8
0
  6
Continuous
100
AcDbLine
 10
39.00000000000002
 20
169.0
 30
0.0
 11
36.0
 21
169.0
 31
0.0
  0
LINE
  5
671
330
6F
100
AcDbEntity
  8
0
  6
Continuous
100
AcDbLine
 10
39.0
 20
208.0
 30
0.0
 11
39.0
 21
198.0
 31
0.0
  0
LINE
  5
672
330
6F
100
AcDbEntity
  8
0
  6
Continuous
100
AcDbLine
 10
39.0
 20
198.0
 30
0.0
 11
36.0
 21
198.0
 31
0.0
  0
LINE
  5
673
330
6F
100
AcDbEntity
  8
0
  6
Continuous
100
AcDbLine
 10
39.00000000000002
 20
198.0
 30
0.0
 11
39.00000000000002
 21
208.0
 31
0.0
  0
LINE
  5
676
330
6F
100
AcDbEntity
  8
0
  6
Continuous
100
AcDbLine
 10
36.0
 20
211.0
 30
0.0
 11
36.0
 21
198.0
 31
0.0
  0
LINE
  5
677
330
6F
100
AcDbEntity
  8
0
  6
Continuous
100
AcDbLine
 10
36.0
 20
169.0
 30
0.0
 11
36.0
 21
156.0
 31
0.0
  0
LINE
  5
678
330
6F
100
AcDbEntity
  8
0
  6
Continuous
100
AcDbLine
 10
36.0
 20
156.0
 30
0.0
 11
49.0
 21
156.0
 31
0.0
  0
LINE
  5
679
330
6F
100
AcDbEntity
  8
0
  6
Continuous
100
AcDbLine
 10
133.0
 20
156.0
 30
0.0
 11
146.0
 21
156.0
 31
0.0
  0
LINE
  5
67B
330
6F
100
AcDbEntity
  8
0
  6
Continuous
100
AcDbLine
 10
133.0
 20
208.0
 30
0.0
 11
143.0
 21
208.0
 31
0.0
  0
LINE
  5
687
330
6F
100
AcDbEntity
  8
0
  6
Continuous
100
AcDbLine
 10
36.0
 20
211.0
 30
0.0
 11
48.99999999999997
 21
211.0
 31
0.0
  0
LINE
  5
688
330
6F
100
AcDbEntity
  8
0
  6
Continuous
100
AcDbLine
 10
133.0
 20
211.0
 30
0.0
 11
146.0
 21
211.0
 31
0.0
  0
LINE
  5
689
330
6F
100
AcDbEntity
  8
0
  6
Continuous
100
AcDbLine
 10
146.0
 20
211.0
 30
0.0
 11
146.0
 21
198.0
 31
0.0
  0
LINE
  5
68A
330
6F
100
AcDbEntity
  8
0
  6
Continuous
100
AcDbLine
 10
146.0
 20
169.0
 30
0.0
 11
146.0
 21
156.0
 31
0.0
  0
LINE
  5
68F
330
6F
100
AcDbEntity
  8
0
  6
Continuous
100
AcDbLine
 10
121.0
 20
185.0
 30
0.0
 11
121.0
 21
174.0
 31
0.0
  0
LINE
  5
692
330
6F
100
AcDbEntity
  8
0
  6
Continuous
100
AcDbLine
 10
121.0
 20
174.0
 30
0.0
 11
61.0
 21
174.0
 31
0.0
  0
LINE
  5
693
330
6F
100
AcDbEntity
  8
0
  6
Continuous
100
AcDbLine
 10
61.0
 20
174.0
 30
0.0
 11
61.0
 21
199.0
 31
0.0
  0
LINE
  5
694
330
6F
100
AcDbEntity
  8
0
  6
Continuous
100
AcDbLine
 10
61.0
 20
199.0
 30
0.0
 11
121.0
 21
199.0
 31
0.0
  0
LINE
  5
695
330
6F
100
AcDbEntity
  8
0
  6
Continuous
100
AcDbLine
 10
121.0
 20
199.0
 30
0.0
 11
121.0
 21
185.0
 31
0.0
  0
LWPOLYLINE
  5
6A1
330
6F
100
AcDbEntity
  8
0
  6
Continuous
100
AcDbPolyline
 90
        4
 70
     1
 43
0.0
 10
131.0
 20
143.0
 10
166.0
 20
143.0
 10
166.0
 20
132.0
 10
131.0
 20
132.0
  0
LINE
  5
6A2
330
6F
100
AcDbEntity
  8
0
  6
Continuous
100
AcDbLine
 10
430.0
 20
9.0
 30
0.0
 11
410.0
 21
9.000000000000001
 31
0.0
  0
LINE
  5
6A3
330
6F
100
AcDbEntity
  8
0
  6
Continuous
100
AcDbLine
 10
410.0
 20
9.000000000000001
 30
0.0
 11
410.0
 21
24.0
 31
0.0
  0
LINE
  5
6A4
330
6F
100
AcDbEntity
  8
0
  6
Continuous
100
AcDbLine
 10
410.0
 20
24.0
 30
0.0
 11
430.0
 21
24.0
 31
0.0
  0
LINE
  5
6A5
330
6F
100
AcDbEntity
  8
0
  6
Continuous
100
AcDbLine
 10
430.0
 20
24.0
 30
0.0
 11
430.0
 21
9.0
 31
0.0
  0
LINE
  5
6A6
330
6F
100
AcDbEntity
  8
0
  6
Continuous
100
AcDbLine
 10
271.0
 20
10.0
 30
0.0
 11
291.0
 21
10.0
 31
0.0
  0
LINE
  5
6A7
330
6F
100
AcDbEntity
  8
0
  6
Continuous
100
AcDbLine
 10
291.0
 20
10.0
 30
0.0
 11
291.0
 21
25.0
 31
0.0
  0
LINE
  5
6A8
330
6F
100
AcDbEntity
  8
0
  6
Continuous
100
AcDbLine
 10
291.0
 20
25.0
 30
0.0
 11
271.0
 21
25.0
 31
0.0
  0
LINE
  5
6A9
330
6F
100
AcDbEntity
  8
0
  6
Continuous
100
AcDbLine
 10
271.0
 20
25.0
 30
0.0
 11
271.0
 21
10.0
 31
0.0
  0
ENDSEC
  0
SECTION
  2
OBJECTS
  0
DICTIONARY
  5
C
330
0
100
AcDbDictionary
281
     1
  3
ACAD_CIP_PREVIOUS_PRODUCT_INFO
350
64E
  3
ACAD_COLOR
350
62
  3
ACAD_DETAILVIEWSTYLE
350
69
  3
ACAD_GROUP
350
D
  3
ACAD_LAYOUT
350
61
  3
ACAD_MATERIAL
350
10
  3
ACAD_MLEADERSTYLE
350
65
  3
ACAD_MLINESTYLE
350
5E
  3
ACAD_PLOTSETTINGS
350
60
  3
ACAD_PLOTSTYLENAME
350
E
  3
ACAD_SCALELIST
350
42
  3
ACAD_SECTIONVIEWSTYLE
350
67
  3
ACAD_TABLESTYLE
350
63
  3
ACAD_VISUALSTYLE
350
29
  3
ACDB_RECOMPOSE_DATA
350
6DC
  3
AcDbVariableDictionary
350
6C4
  0
DICTIONARY
  5
6D4
330
2
100
AcDbDictionary
280
     1
281
     1
  3
ACAD_LAYERSTATES
360
6D5
  0
DICTIONARY
  5
6AA
330
54
100
AcDbDictionary
280
     1
281
     1
  3
ADSK_XREC_LAYER_RECONCILED
360
6AB
  0
DICTIONARY
  5
6AC
330
75
100
AcDbDictionary
280
     1
281
     1
  3
ADSK_XREC_LAYER_RECONCILED
360
6AD
  0
DICTIONARY
  5
6AE
330
E6
100
AcDbDictionary
280
     1
281
     1
  3
ADSK_XREC_LAYER_RECONCILED
360
6AF
  0
DICTIONARY
  5
6B0
330
180
100
AcDbDictionary
280
     1
281
     1
  3
ADSK_XREC_LAYER_RECONCILED
360
6B1
  0
DICTIONARY
  5
6B2
330
1BA
100
AcDbDictionary
280
     1
281
     1
  3
ADSK_XREC_LAYER_RECONCILED
360
6B3
  0
DICTIONARY
  5
6B4
330
224
100
AcDbDictionary
280
     1
281
     1
  3
ADSK_XREC_LAYER_RECONCILED
360
6B5
  0
DICTIONARY
  5
6B6
330
282
100
AcDbDictionary
280
     1
281
     1
  3
ADSK_XREC_LAYER_RECONCILED
360
6B7
  0
DICTIONARY
  5
6B8
330
301
100
AcDbDictionary
280
     1
281
     1
  3
ADSK_XREC_LAYER_RECONCILED
360
6B9
  0
DICTIONARY
  5
6BA
330
356
100
AcDbDictionary
280
     1
281
     1
  3
ADSK_XREC_LAYER_RECONCILED
360
6BB
  0
DICTIONARY
  5
6BC
330
3FF
100
AcDbDictionary
280
     1
281
     1
  3
ADSK_XREC_LAYER_RECONCILED
360
6BD
  0
DICTIONARY
  5
6BE
330
42C
100
AcDbDictionary
280
     1
281
     1
  3
ADSK_XREC_LAYER_RECONCILED
360
6BF
  0
DICTIONARY
  5
6C0
330
508
100
AcDbDictionary
280
     1
281
     1
  3
ADSK_XREC_LAYER_RECONCILED
360
6C1
  0
DICTIONARY
  5
6C2
330
54F
100
AcDbDictionary
280
     1
281
     1
  3
ADSK_XREC_LAYER_RECONCILED
360
6C3
  0
DICTIONARY
  5
674
330
6F
100
AcDbDictionary
280
     1
281
     1
  3
ACAD_SORTENTS
360
675
  0
XRECORD
  5
64E
102
{ACAD_REACTORS
330
C
102
}
330
C
100
AcDbXrecord
280
     1
300
ACD
300
2019
300

  0
DICTIONARY
  5
62
102
{ACAD_REACTORS
330
C
102
}
330
C
100
AcDbDictionary
281
     1
  0
DICTIONARY
  5
69
102
{ACAD_REACTORS
330
C
102
}
330
C
100
AcDbDictionary
281
     1
  3
Imperial24
350
6A
  0
DICTIONARY
  5
D
102
{ACAD_REACTORS
330
C
102
}
330
C
100
AcDbDictionary
281
     1
  0
DICTIONARY
  5
61
102
{ACAD_REACTORS
330
C
102
}
330
C
100
AcDbDictionary
281
     1
  3
Model
350
72
  3
1
350
6E
  0
DICTIONARY
  5
10
102
{ACAD_REACTORS
330
C
102
}
330
C
100
AcDbDictionary
281
     1
  3
ByBlock
350
19
  3
ByLayer
350
11
  3
Global
350
21
  0
DICTIONARY
  5
65
102
{ACAD_REACTORS
330
C
102
}
330
C
100
AcDbDictionary
281
     1
  3
Standard
350
66
  0
DICTIONARY
  5
5E
102
{ACAD_REACTORS
330
C
102
}
330
C
100
AcDbDictionary
281
     1
  3
Standard
350
5F
  0
DICTIONARY
  5
60
102
{ACAD_REACTORS
330
C
102
}
330
C
100
AcDbDictionary
281
     1
  0
ACDBDICTIONARYWDFLT
  5
E
102
{ACAD_REACTORS
330
C
102
}
330
C
100
AcDbDictionary
281
     1
  3
Normal
350
F
100
AcDbDictionaryWithDefault
340
F
  0
DICTIONARY
  5
42
102
{ACAD_REACTORS
330
C
102
}
330
C
100
AcDbDictionary
281
     1
  3
A0
350
43
  3
A1
350
44
  3
A2
350
45
  3
A3
350
46
  3
A4
350
47
  3
A5
350
48
  3
A6
350
49
  3
A7
350
4A
  3
A8
350
4B
  3
A9
350
4C
  3
B0
350
4D
  3
B1
350
4E
  3
B2
350
4F
  3
B3
350
50
  3
B4
350
51
  3
B5
350
52
  3
B6
350
53
  0
DICTIONARY
  5
67
102
{ACAD_REACTORS
330
C
102
}
330
C
100
AcDbDictionary
281
     1
  3
Imperial24
350
68
  0
DICTIONARY
  5
63
102
{ACAD_REACTORS
330
C
102
}
330
C
100
AcDbDictionary
281
     1
  3
Standard
350
64
  0
DICTIONARY
  5
29
102
{ACAD_REACTORS
330
C
102
}
330
C
100
AcDbDictionary
281
     1
  3
2dWireframe
350
2F
  3
Basic
350
2E
  3
Brighten
350
35
  3
ColorChange
350
39
  3
Conceptual
350
32
  3
Dim
350
34
  3
EdgeColorOff
350
41
  3
Facepattern
350
38
  3
Flat
350
2A
  3
FlatWithEdges
350
2B
  3
Gouraud
350
2C
  3
GouraudWithEdges
350
2D
  3
Hidden
350
31
  3
JitterOff
350
3F
  3
Linepattern
350
37
  3
OverhangOff
350
40
  3
Realistic
350
33
  3
Shaded
350
3E
  3
Shaded with edges
350
3D
  3
Shades of Gray
350
3A
  3
Sketchy
350
3B
  3
Thicken
350
36
  3
Wireframe
350
30
  3
X-Ray
350
3C
  0
XRECORD
  5
6DC
102
{ACAD_REACTORS
330
C
102
}
330
C
100
AcDbXrecord
280
     1
 90
        1
330
64
  0
DICTIONARY
  5
6C4
102
{ACAD_REACTORS
330
C
102
}
330
C
100
AcDbDictionary
281
     1
  3
CANNOSCALE
350
6CA
  3
CMLEADERSTYLE
350
6C6
  3
CTABLESTYLE
350
6C5
  3
CVIEWDETAILSTYLE
350
6C7
  3
CVIEWSECTIONSTYLE
350
6C8
  3
LAYEREVAL
350
6CC
  3
LAYERNOTIFY
350
6CD
  3
LIGHTINGUNITS
350
6CB
  3
MSLTSCALE
350
6C9
  0
DICTIONARY
  5
6D5
102
{ACAD_REACTORS
330
6D4
102
}
330
6D4
100
AcDbDictionary
281
     1
  0
XRECORD
  5
6AB
102
{ACAD_REACTORS
330
6AA
102
}
330
6AA
100
AcDbXrecord
280
     1
290
     1
  0
XRECORD
  5
6AD
102
{ACAD_REACTORS
330
6AC
102
}
330
6AC
100
AcDbXrecord
280
     1
290
     1
  0
XRECORD
  5
6AF
102
{ACAD_REACTORS
330
6AE
102
}
330
6AE
100
AcDbXrecord
280
     1
290
     1
  0
XRECORD
  5
6B1
102
{ACAD_REACTORS
330
6B0
102
}
330
6B0
100
AcDbXrecord
280
     1
290
     1
  0
XRECORD
  5
6B3
102
{ACAD_REACTORS
330
6B2
102
}
330
6B2
100
AcDbXrecord
280
     1
290
     1
  0
XRECORD
  5
6B5
102
{ACAD_REACTORS
330
6B4
102
}
330
6B4
100
AcDbXrecord
280
     1
290
     1
  0
XRECORD
  5
6B7
102
{ACAD_REACTORS
330
6B6
102
}
330
6B6
100
AcDbXrecord
280
     1
290
     1
  0
XRECORD
  5
6B9
102
{ACAD_REACTORS
330
6B8
102
}
330
6B8
100
AcDbXrecord
280
     1
290
     1
  0
XRECORD
  5
6BB
102
{ACAD_REACTORS
330
6BA
102
}
330
6BA
100
AcDbXrecord
280
     1
290
     1
  0
XRECORD
  5
6BD
102
{ACAD_REACTORS
330
6BC
102
}
330
6BC
100
AcDbXrecord
280
     1
290
     1
  0
XRECORD
  5
6BF
102
{ACAD_REACTORS
330
6BE
102
}
330
6BE
100
AcDbXrecord
280
     1
290
     1
  0
XRECORD
  5
6C1
102
{ACAD_REACTORS
330
6C0
102
}
330
6C0
100
AcDbXrecord
280
     1
290
     1
  0
XRECORD
  5
6C3
102
{ACAD_REACTORS
330
6C2
102
}
330
6C2
100
AcDbXrecord
280
     1
290
     1
  0
SORTENTSTABLE
  5
675
102
{ACAD_REACTORS
330
674
102
}
330
674
100
AcDbSortentsTable
330
6F
331
662
  5
664
331
663
  5
665
331
664
  5
666
331
665
  5
667
331
666
  5
668
331
667
  5
669
331
668
  5
66A
331
669
  5
66B
331
66A
  5
66C
331
66B
  5
66D
331
66C
  5
66E
331
66D
  5
66F
331
66E
  5
670
331
66F
  5
671
331
670
  5
672
331
671
  5
673
331
672
  5
676
331
673
  5
663
331
676
  5
677
331
677
  5
678
331
678
  5
679
331
679
  5
67A
331
67B
  5
65F
331
68F
  5
692
331
692
  5
693
331
693
  5
694
331
694
  5
695
331
695
  5
696
  0
ACDBDETAILVIEWSTYLE
  5
6A
102
{ACAD_REACTORS
330
69
102
}
330
69
100
AcDbModelDocViewStyle
 70
     0
  3
Imperial24
290
     0
300
Imperial24
 90
        0
100
AcDbDetailViewStyle
 70
     0
 71
     0
 90
        3
 71
     1
340
55
 62
   256
 40
0.24
340
0
 62
   256
 40
0.24
300

 40
0.36
280
     3
 71
     2
340
5C
 90
       25
 62
   256
 71
     3
340
55
 62
   256
 40
0.24
 90
        1
 40
0.75
 90
        1
300
%<\AcVar ViewType \f "%tc1">% %<\AcVar ViewDetailId>%\PSCALE %<\AcVar ViewScale \f "%sn">%
 71
     4
340
5C
 90
       25
 62
   256
340
5C
 90
       25
 62
   256
280
     0
  0
LAYOUT
  5
72
102
{ACAD_REACTORS
330
61
102
}
330
61
100
AcDbPlotSettings
  1

  2
Microsoft Print to PDF
  4

  6

 40
0.0
 41
0.0
 42
0.0
 43
0.0
 44
0.0
 45
0.0
 46
0.0
 47
0.0
 48
0.0
 49
0.0
140
0.0
141
0.0
142
1.0
143
1.0
 70
  1712
 72
     0
 73
     0
 74
     0
  7

 75
     0
147
1.0
 76
     0
 77
     2
 78
   300
148
0.0
149
0.0
100
AcDbLayout
  1
Model
 70
     1
 71
     0
 10
0.0
 20
0.0
 11
12.0
 21
9.0
 12
0.0
 22
0.0
 32
0.0
 14
0.0
 24
0.0
 34
0.0
 15
0.0
 25
0.0
 35
0.0
146
0.0
 13
0.0
 23
0.0
 33
0.0
 16
1.0
 26
0.0
 36
0.0
 17
0.0
 27
1.0
 37
0.0
 76
     0
330
6F
331
74
  0
LAYOUT
  5
6E
102
{ACAD_REACTORS
330
61
102
}
330
61
100
AcDbPlotSettings
  1

  2
Microsoft Print to PDF
  4

  6

 40
0.0
 41
0.0
 42
0.0
 43
0.0
 44
0.0
 45
0.0
 46
0.0
 47
0.0
 48
0.0
 49
0.0
140
0.0
141
0.0
142
1.0
143
1.0
 70
   688
 72
     0
 73
     0
 74
     5
  7

 75
    16
147
1.0
 76
     0
 77
     2
 78
   300
148
0.0
149
0.0
100
AcDbLayout
  1
1
 70
     1
 71
     1
 10
0.0
 20
0.0
 11
12.0
 21
9.0
 12
0.0
 22
0.0
 32
0.0
 14
1.000000000000000E+20
 24
1.000000000000000E+20
 34
1.000000000000000E+20
 15
-1.000000000000000E+20
 25
-1.000000000000000E+20
 35
-1.000000000000000E+20
146
0.0
 13
0.0
 23
0.0
 33
0.0
 16
1.0
 26
0.0
 36
0.0
 17
0.0
 27
1.0
 37
0.0
 76
     0
330
6B
  0
MATERIAL
  5
19
102
{ACAD_XDICTIONARY
360
1A
102
}
102
{ACAD_REACTORS
330
10
102
}
330
10
100
AcDbMaterial
  1
ByBlock
 72
     0
 43
0.0208333333333333
 43
0.0
 43
0.0
 43
0.0
 43
0.0
 43
0.0208333333333333
 43
0.0
 43
0.0
 43
0.0
 43
0.0
 43
1.0
 43
0.0
 43
0.0
 43
0.0
 43
0.0
 43
1.0
 77
     0
 47
0.0208333333333333
 47
0.0
 47
0.0
 47
0.0
 47
0.0
 47
0.0208333333333333
 47
0.0
 47
0.0
 47
0.0
 47
0.0
 47
1.0
 47
0.0
 47
0.0
 47
0.0
 47
0.0
 47
1.0
171
     0
 49
0.0208333333333333
 49
0.0
 49
0.0
 49
0.0
 49
0.0
 49
0.0208333333333333
 49
0.0
 49
0.0
 49
0.0
 49
0.0
 49
1.0
 49
0.0
 49
0.0
 49
0.0
 49
0.0
 49
1.0
175
     0
142
0.0208333333333333
142
0.0
142
0.0
142
0.0
142
0.0
142
0.0208333333333333
142
0.0
142
0.0
142
0.0
142
0.0
142
1.0
142
0.0
142
0.0
142
0.0
142
0.0
142
1.0
179
     0
144
0.0208333333333333
144
0.0
144
0.0
144
0.0
144
0.0
144
0.0208333333333333
144
0.0
144
0.0
144
0.0
144
0.0
144
1.0
144
0.0
144
0.0
144
0.0
144
0.0
144
1.0
147
0.0208333333333333
147
0.0
147
0.0
147
0.0
147
0.0
147
0.0208333333333333
147
0.0
147
0.0
147
0.0
147
0.0
147
1.0
147
0.0
147
0.0
147
0.0
147
0.0
147
1.0
  0
MATERIAL
  5
11
102
{ACAD_XDICTIONARY
360
12
102
}
102
{ACAD_REACTORS
330
10
102
}
330
10
100
AcDbMaterial
  1
ByLayer
 72
     0
 43
0.0208333333333333
 43
0.0
 43
0.0
 43
0.0
 43
0.0
 43
0.0208333333333333
 43
0.0
 43
0.0
 43
0.0
 43
0.0
 43
1.0
 43
0.0
 43
0.0
 43
0.0
 43
0.0
 43
1.0
 77
     0
 47
0.0208333333333333
 47
0.0
 47
0.0
 47
0.0
 47
0.0
 47
0.0208333333333333
 47
0.0
 47
0.0
 47
0.0
 47
0.0
 47
1.0
 47
0.0
 47
0.0
 47
0.0
 47
0.0
 47
1.0
171
     0
 49
0.0208333333333333
 49
0.0
 49
0.0
 49
0.0
 49
0.0
 49
0.0208333333333333
 49
0.0
 49
0.0
 49
0.0
 49
0.0
 49
1.0
 49
0.0
 49
0.0
 49
0.0
 49
0.0
 49
1.0
175
     0
142
0.0208333333333333
142
0.0
142
0.0
142
0.0
142
0.0
142
0.0208333333333333
142
0.0
142
0.0
142
0.0
142
0.0
142
1.0
142
0.0
142
0.0
142
0.0
142
0.0
142
1.0
179
     0
144
0.0208333333333333
144
0.0
144
0.0
144
0.0
144
0.0
144
0.0208333333333333
144
0.0
144
0.0
144
0.0
144
0.0
144
1.0
144
0.0
144
0.0
144
0.0
144
0.0
144
1.0
147
0.0208333333333333
147
0.0
147
0.0
147
0.0
147
0.0
147
0.0208333333333333
147
0.0
147
0.0
147
0.0
147
0.0
147
1.0
147
0.0
147
0.0
147
0.0
147
0.0
147
1.0
  0
MATERIAL
  5
21
102
{ACAD_XDICTIONARY
360
22
102
}
102
{ACAD_REACTORS
330
10
102
}
330
10
100
AcDbMaterial
  1
Global
 72
     0
 43
0.0208333333333333
 43
0.0
 43
0.0
 43
0.0
 43
0.0
 43
0.0208333333333333
 43
0.0
 43
0.0
 43
0.0
 43
0.0
 43
1.0
 43
0.0
 43
0.0
 43
0.0
 43
0.0
 43
1.0
 77
     0
 47
0.0208333333333333
 47
0.0
 47
0.0
 47
0.0
 47
0.0
 47
0.0208333333333333
 47
0.0
 47
0.0
 47
0.0
 47
0.0
 47
1.0
 47
0.0
 47
0.0
 47
0.0
 47
0.0
 47
1.0
171
     0
 49
0.0208333333333333
 49
0.0
 49
0.0
 49
0.0
 49
0.0
 49
0.0208333333333333
 49
0.0
 49
0.0
 49
0.0
 49
0.0
 49
1.0
 49
0.0
 49
0.0
 49
0.0
 49
0.0
 49
1.0
175
     0
142
0.0208333333333333
142
0.0
142
0.0
142
0.0
142
0.0
142
0.0208333333333333
142
0.0
142
0.0
142
0.0
142
0.0
142
1.0
142
0.0
142
0.0
142
0.0
142
0.0
142
1.0
179
     0
144
0.0208333333333333
144
0.0
144
0.0
144
0.0
144
0.0
144
0.0208333333333333
144
0.0
144
0.0
144
0.0
144
0.0
144
1.0
144
0.0
144
0.0
144
0.0
144
0.0
144
1.0
147
0.0208333333333333
147
0.0
147
0.0
147
0.0
147
0.0
147
0.0208333333333333
147
0.0
147
0.0
147
0.0
147
0.0
147
1.0
147
0.0
147
0.0
147
0.0
147
0.0
147
1.0
  0
MLEADERSTYLE
  5
66
102
{ACAD_REACTORS
330
65
102
}
330
65
100
AcDbMLeaderStyle
179
     2
170
     2
171
     1
172
     0
 90
        2
 40
0.0
 41
0.0
173
     1
 91
-1056964608
340
5A
 92
       -2
290
     1
 42
0.09
291
     1
 43
0.36
  3
Standard
 44
0.18
300

342
55
174
     1
178
     6
175
     1
176
     0
 93
-1056964608
 45
0.18
292
     0
297
     0
 46
0.18
 94
-1056964608
 47
1.0
 49
1.0
140
1.0
293
     1
141
0.0
294
     1
177
     0
142
1.0
295
     0
296
     0
143
0.125
271
     0
272
     9
273
     9
298
     0
  0
MLINESTYLE
  5
5F
102
{ACAD_REACTORS
330
5E
102
}
330
5E
100
AcDbMlineStyle
  2
STANDARD
 70
     0
  3

 62
   256
 51
90.0
 52
90.0
 71
     2
 49
0.5
 62
   256
  6
BYLAYER
 49
-0.5
 62
   256
  6
BYLAYER
  0
ACDBPLACEHOLDER
  5
F
102
{ACAD_REACTORS
330
E
102
}
330
E
  0
SCALE
  5
43
102
{ACAD_REACTORS
330
42
102
}
330
42
100
AcDbScale
 70
     0
300
1:1
140
1.0
141
1.0
290
     1
  0
SCALE
  5
44
102
{ACAD_REACTORS
330
42
102
}
330
42
100
AcDbScale
 70
     0
300
1/128" = 1'-0"
140
0.0078125
141
12.0
290
     0
  0
SCALE
  5
45
102
{ACAD_REACTORS
330
42
102
}
330
42
100
AcDbScale
 70
     0
300
1/64" = 1'-0"
140
0.015625
141
12.0
290
     0
  0
SCALE
  5
46
102
{ACAD_REACTORS
330
42
102
}
330
42
100
AcDbScale
 70
     0
300
1/32" = 1'-0"
140
0.03125
141
12.0
290
     0
  0
SCALE
  5
47
102
{ACAD_REACTORS
330
42
102
}
330
42
100
AcDbScale
 70
     0
300
1/16" = 1'-0"
140
0.0625
141
12.0
290
     0
  0
SCALE
  5
48
102
{ACAD_REACTORS
330
42
102
}
330
42
100
AcDbScale
 70
     0
300
3/32" = 1'-0"
140
0.09375
141
12.0
290
     0
  0
SCALE
  5
49
102
{ACAD_REACTORS
330
42
102
}
330
42
100
AcDbScale
 70
     0
300
1/8" = 1'-0"
140
0.125
141
12.0
290
     0
  0
SCALE
  5
4A
102
{ACAD_REACTORS
330
42
102
}
330
42
100
AcDbScale
 70
     0
300
3/16" = 1'-0"
140
0.1875
141
12.0
290
     0
  0
SCALE
  5
4B
102
{ACAD_REACTORS
330
42
102
}
330
42
100
AcDbScale
 70
     0
300
1/4" = 1'-0"
140
0.25
141
12.0
290
     0
  0
SCALE
  5
4C
102
{ACAD_REACTORS
330
42
102
}
330
42
100
AcDbScale
 70
     0
300
3/8" = 1'-0"
140
0.375
141
12.0
290
     0
  0
SCALE
  5
4D
102
{ACAD_REACTORS
330
42
102
}
330
42
100
AcDbScale
 70
     0
300
1/2" = 1'-0"
140
0.5
141
12.0
290
     0
  0
SCALE
  5
4E
102
{ACAD_REACTORS
330
42
102
}
330
42
100
AcDbScale
 70
     0
300
3/4" = 1'-0"
140
0.75
141
12.0
290
     0
  0
SCALE
  5
4F
102
{ACAD_REACTORS
330
42
102
}
330
42
100
AcDbScale
 70
     0
300
1" = 1'-0"
140
1.0
141
12.0
290
     0
  0
SCALE
  5
50
102
{ACAD_REACTORS
330
42
102
}
330
42
100
AcDbScale
 70
     0
300
1-1/2" = 1'-0"
140
1.5
141
12.0
290
     0
  0
SCALE
  5
51
102
{ACAD_REACTORS
330
42
102
}
330
42
100
AcDbScale
 70
     0
300
3" = 1'-0"
140
3.0
141
12.0
290
     0
  0
SCALE
  5
52
102
{ACAD_REACTORS
330
42
102
}
330
42
100
AcDbScale
 70
     0
300
6" = 1'-0"
140
6.0
141
12.0
290
     0
  0
SCALE
  5
53
102
{ACAD_REACTORS
330
42
102
}
330
42
100
AcDbScale
 70
     0
300
1'-0" = 1'-0"
140
12.0
141
12.0
290
     0
  0
ACDBSECTIONVIEWSTYLE
  5
68
102
{ACAD_REACTORS
330
67
102
}
330
67
100
AcDbModelDocViewStyle
 70
     0
  3
Imperial24
290
     0
300
Imperial24
 90
        0
100
AcDbSectionViewStyle
 70
     0
 71
     0
 90
       78
 71
     1
340
55
 62
   256
 40
0.24
340
0
340
0
 62
   256
 40
0.24
300
I, O, Q, S, X, Z
 40
0.48
 90
        3
 40
0.18
 90
        1
 71
     2
340
5C
 90
       25
 62
   256
340
5C
 90
       50
 62
   256
 40
0.24
 40
0.0
 40
0.24
 71
     3
340
55
 62
   256
 40
0.24
 90
        1
 40
0.75
 90
        1
300
%<\AcVar ViewType \f "%tc1">% %<\AcVar ViewSectionStartId>%-%<\AcVar ViewSectionEndId>%\PSCALE %<\AcVar ViewScale \f "%sn">%
 71
     4
 62
   256
 62
   257
300
ANSI31
 40
1.0
 90
        0
290
     0
290
     0
 90
        6
 40
0.0
 40
1.570796326794896
 40
0.2617993877991494
 40
1.308996938995747
 40
-0.2617993877991494
 40
1.832595714594046
  0
TABLESTYLE
  5
64
102
{ACAD_XDICTIONARY
360
6DA
102
}
102
{ACAD_REACTORS
330
63
102
}
330
63
100
AcDbTableStyle
280
     0
  3
Standard
 70
     0
 71
     0
 40
0.06
 41
0.06
280
     0
281
     0
  7
Standard
140
0.18
170
     2
 62
     0
 63
     7
283
     0
 90
      512
 91
        0
  1

274
    -2
284
     1
 64
     0
275
    -2
285
     1
 65
     0
276
    -2
286
     1
 66
     0
277
    -2
287
     1
 67
     0
278
    -2
288
     1
 68
     0
279
    -2
289
     1
 69
     0
  7
Standard
140
0.25
170
     5
 62
     0
 63
     7
283
     0
 90
      512
 91
        0
  1

274
    -2
284
     1
 64
     0
275
    -2
285
     1
 65
     0
276
    -2
286
     1
 66
     0
277
    -2
287
     1
 67
     0
278
    -2
288
     1
 68
     0
279
    -2
289
     1
 69
     0
  7
Standard
140
0.18
170
     5
 62
     0
 63
     7
283
     0
 90
      512
 91
        0
  1

274
    -2
284
     1
 64
     0
275
    -2
285
     1
 65
     0
276
    -2
286
     1
 66
     0
277
    -2
287
     1
 67
     0
278
    -2
288
     1
 68
     0
279
    -2
289
     1
 69
     0
  0
VISUALSTYLE
  5
2F
102
{ACAD_REACTORS
330
29
102
}
330
29
100
AcDbVisualStyle
  2
2dWireframe
 70
     4
177
     3
291
     0
 70
    58
 90
        0
176
     1
 90
        2
176
     1
 90
        0
176
     1
 90
        0
176
     1
 40
0.6
176
     1
 40
30.0
176
     1
 62
     7
420
 16777215
176
     1
 90
        1
176
     1
 90
        4
176
     1
 62
     7
176
     1
 62
   257
176
     1
 90
        1
176
     1
 90
        1
176
     1
 40
1.0
176
     1
 90
        0
176
     1
 62
   257
176
     1
 40
1.0
176
     1
 90
        1
176
     1
 90
        6
176
     1
 90
        2
176
     1
 62
     7
176
     1
 90
        5
176
     1
 90
        0
176
     1
 90
        0
176
     1
290
     0
176
     1
 90
        1
176
     1
 40
0.0
176
     1
 90
        0
176
     1
290
     1
176
     1
290
     1
176
     1
290
     0
176
     1
290
     0
176
     1
290
     0
176
     1
290
     0
176
     1
290
     0
176
     1
290
     0
176
     1
290
     0
176
     1
 90
       50
176
     1
 40
0.0
176
     1
 40
1.0
176
     1
 90
        0
176
     1
 62
    18
420
        0
176
     1
 90
       50
176
     1
 90
        3
176
     1
 62
     5
420
      255
176
     1
290
     0
176
     1
 90
       50
176
     1
 90
       50
176
     1
 90
       50
176
     1
290
     0
176
     1
 90
       50
176
     1
 62
   256
176
     0
 40
1.0
176
     0
 90
        2
176
     1
  1
strokes_ogs.tif
176
     1
290
     0
176
     1
 40
1.0
176
     1
 40
1.0
176
     1
  0
VISUALSTYLE
  5
2E
102
{ACAD_REACTORS
330
29
102
}
330
29
100
AcDbVisualStyle
  2
Basic
 70
     7
177
     3
291
     1
 70
    58
 90
        1
176
     1
 90
        0
176
     1
 90
        1
176
     1
 90
        0
176
     1
 40
0.6
176
     1
 40
30.0
176
     1
 62
     7
420
 16777215
176
     1
 90
        0
176
     1
 90
        4
176
     1
 62
     7
176
     1
 62
   257
176
     1
 90
        1
176
     1
 90
        1
176
     1
 40
1.0
176
     1
 90
        8
176
     1
 62
     7
176
     1
 40
1.0
176
     1
 90
        1
176
     1
 90
        6
176
     1
 90
        2
176
     1
 62
     7
176
     1
 90
        5
176
     1
 90
        0
176
     1
 90
        0
176
     1
290
     0
176
     1
 90
        1
176
     1
 40
0.0
176
     1
 90
        0
176
     1
290
     0
176
     1
290
     1
176
     1
290
     1
176
     1
290
     0
176
     1
290
     0
176
     1
290
     0
176
     1
290
     0
176
     1
290
     0
176
     1
290
     0
176
     1
 90
       50
176
     1
 40
0.0
176
     1
 40
1.0
176
     1
 90
        0
176
     1
 62
    18
420
        0
176
     1
 90
       50
176
     1
 90
        3
176
     1
 62
     5
420
      255
176
     1
290
     0
176
     1
 90
       50
176
     1
 90
       50
176
     1
 90
       50
176
     1
290
     0
176
     1
 90
       50
176
     1
 62
   256
176
     0
 40
1.0
176
     0
 90
        2
176
     1
  1
strokes_ogs.tif
176
     1
290
     0
176
     1
 40
1.0
176
     1
 40
1.0
176
     1
  0
VISUALSTYLE
  5
35
102
{ACAD_REACTORS
330
29
102
}
330
29
100
AcDbVisualStyle
  2
Brighten
 70
    12
177
     3
291
     1
 70
    58
 90
        2
176
     1
 90
        2
176
     1
 90
        0
176
     1
 90
        0
176
     1
 40
0.6
176
     1
 40
30.0
176
     1
 62
     7
420
 16777215
176
     1
 90
        1
176
     1
 90
        4
176
     1
 62
     7
176
     1
 62
   257
176
     1
 90
        1
176
     1
 90
        1
176
     1
 40
1.0
176
     1
 90
        8
176
     1
 62
     7
176
     1
 40
1.0
176
     1
 90
        1
176
     1
 90
        6
176
     1
 90
        2
176
     1
 62
     7
176
     1
 90
        5
176
     1
 90
        0
176
     1
 90
        0
176
     1
290
     0
176
     1
 90
        1
176
     1
 40
50.0
176
     1
 90
        0
176
     1
290
     0
176
     1
290
     1
176
     1
290
     1
176
     1
290
     0
176
     1
290
     0
176
     1
290
     0
176
     1
290
     0
176
     1
290
     0
176
     1
290
     0
176
     1
 90
       50
176
     1
 40
0.0
176
     1
 40
1.0
176
     1
 90
        0
176
     1
 62
    18
420
        0
176
     1
 90
       50
176
     1
 90
        3
176
     1
 62
     5
420
      255
176
     1
290
     0
176
     1
 90
       50
176
     1
 90
       50
176
     1
 90
       50
176
     1
290
     0
176
     1
 90
       50
176
     1
 62
   256
176
     0
 40
1.0
176
     0
 90
        2
176
     1
  1
strokes_ogs.tif
176
     1
290
     0
176
     1
 40
1.0
176
     1
 40
1.0
176
     1
  0
VISUALSTYLE
  5
39
102
{ACAD_REACTORS
330
29
102
}
330
29
100
AcDbVisualStyle
  2
ColorChange
 70
    16
177
     3
291
     1
 70
    58
 90
        2
176
     1
 90
        2
176
     1
 90
        3
176
     1
 90
        0
176
     1
 40
0.6
176
     1
 40
30.0
176
     1
 62
     8
420
  8421504
176
     1
 90
        1
176
     1
 90
        4
176
     1
 62
     7
176
     1
 62
   257
176
     1
 90
        1
176
     1
 90
        1
176
     1
 40
1.0
176
     1
 90
        8
176
     1
 62
     8
420
  8421504
176
     1
 40
1.0
176
     1
 90
        1
176
     1
 90
        6
176
     1
 90
        2
176
     1
 62
     7
176
     1
 90
        5
176
     1
 90
        0
176
     1
 90
        0
176
     1
290
     0
176
     1
 90
        1
176
     1
 40
0.0
176
     1
 90
        0
176
     1
290
     0
176
     1
290
     1
176
     1
290
     1
176
     1
290
     0
176
     1
290
     0
176
     1
290
     0
176
     1
290
     0
176
     1
290
     0
176
     1
290
     0
176
     1
 90
       50
176
     1
 40
0.0
176
     1
 40
1.0
176
     1
 90
        0
176
     1
 62
    18
420
        0
176
     1
 90
       50
176
     1
 90
        3
176
     1
 62
     5
420
      255
176
     1
290
     0
176
     1
 90
       50
176
     1
 90
       50
176
     1
 90
       50
176
     1
290
     0
176
     1
 90
       50
176
     1
 62
   256
176
     0
 40
1.0
176
     0
 90
        2
176
     1
  1
strokes_ogs.tif
176
     1
290
     0
176
     1
 40
1.0
176
     1
 40
1.0
176
     1
  0
VISUALSTYLE
  5
32
102
{ACAD_REACTORS
330
29
102
}
330
29
100
AcDbVisualStyle
  2
Conceptual
 70
     9
177
     3
291
     0
 70
    58
 90
        3
176
     1
 90
        2
176
     1
 90
        0
176
     1
 90
        0
176
     1
 40
0.6
176
     1
 40
30.0
176
     1
 62
     7
420
 16777215
176
     1
 90
        2
176
     1
 90
        2
176
     1
 62
     7
176
     1
 62
   257
176
     1
 90
        1
176
     1
 90
        1
176
     1
 40
179.0
176
     1
 90
        8
176
     1
 62
     7
176
     1
 40
1.0
176
     1
 90
        1
176
     1
 90
        6
176
     1
 90
        2
176
     1
 62
     7
176
     1
 90
        3
176
     1
 90
        0
176
     1
 90
        0
176
     1
290
     0
176
     1
 90
        1
176
     1
 40
0.0
176
     1
 90
        0
176
     1
290
     0
176
     1
290
     1
176
     1
290
     1
176
     1
290
     0
176
     1
290
     0
176
     1
290
     0
176
     1
290
     0
176
     1
290
     0
176
     1
290
     0
176
     1
 90
       50
176
     1
 40
0.0
176
     1
 40
1.0
176
     1
 90
        0
176
     1
 62
    18
420
        0
176
     1
 90
       50
176
     1
 90
        3
176
     1
 62
     5
420
      255
176
     1
290
     0
176
     1
 90
       50
176
     1
 90
       50
176
     1
 90
       50
176
     1
290
     0
176
     1
 90
       50
176
     1
 62
   256
176
     0
 40
1.0
176
     0
 90
        2
176
     1
  1
strokes_ogs.tif
176
     1
290
     0
176
     1
 40
1.0
176
     1
 40
1.0
176
     1
  0
VISUALSTYLE
  5
34
102
{ACAD_REACTORS
330
29
102
}
330
29
100
AcDbVisualStyle
  2
Dim
 70
    11
177
     3
291
     1
 70
    58
 90
        2
176
     1
 90
        2
176
     1
 90
        0
176
     1
 90
        0
176
     1
 40
0.6
176
     1
 40
30.0
176
     1
 62
     7
420
 16777215
176
     1
 90
        1
176
     1
 90
        4
176
     1
 62
     7
176
     1
 62
   257
176
     1
 90
        1
176
     1
 90
        1
176
     1
 40
1.0
176
     1
 90
        8
176
     1
 62
     7
176
     1
 40
1.0
176
     1
 90
        1
176
     1
 90
        6
176
     1
 90
        2
176
     1
 62
     7
176
     1
 90
        5
176
     1
 90
        0
176
     1
 90
        0
176
     1
290
     0
176
     1
 90
        1
176
     1
 40
-50.0
176
     1
 90
        0
176
     1
290
     0
176
     1
290
     1
176
     1
290
     1
176
     1
290
     0
176
     1
290
     0
176
     1
290
     0
176
     1
290
     0
176
     1
290
     0
176
     1
290
     0
176
     1
 90
       50
176
     1
 40
0.0
176
     1
 40
1.0
176
     1
 90
        0
176
     1
 62
    18
420
        0
176
     1
 90
       50
176
     1
 90
        3
176
     1
 62
     5
420
      255
176
     1
290
     0
176
     1
 90
       50
176
     1
 90
       50
176
     1
 90
       50
176
     1
290
     0
176
     1
 90
       50
176
     1
 62
   256
176
     0
 40
1.0
176
     0
 90
        2
176
     1
  1
strokes_ogs.tif
176
     1
290
     0
176
     1
 40
1.0
176
     1
 40
1.0
176
     1
  0
VISUALSTYLE
  5
41
102
{ACAD_REACTORS
330
29
102
}
330
29
100
AcDbVisualStyle
  2
EdgeColorOff
 70
    22
177
     3
291
     1
 70
    58
 90
        2
176
     0
 90
        2
176
     0
 90
        0
176
     0
 90
        0
176
     0
 40
0.6
176
     0
 40
30.0
176
     0
 62
     7
420
 16777215
176
     0
 90
        1
176
     0
 90
        4
176
     0
 62
     7
176
     0
 62
   257
176
     0
 90
        1
176
     0
 90
        1
176
     0
 40
1.0
176
     0
 90
        8
176
     2
 62
     7
176
     0
 40
1.0
176
     0
 90
        1
176
     0
 90
        6
176
     0
 90
        2
176
     0
 62
     7
176
     0
 90
        5
176
     0
 90
        0
176
     0
 90
        0
176
     0
290
     0
176
     0
 90
        1
176
     0
 40
0.0
176
     0
 90
        0
176
     0
290
     0
176
     1
290
     1
176
     1
290
     1
176
     1
290
     0
176
     1
290
     0
176
     1
290
     0
176
     1
290
     0
176
     1
290
     0
176
     1
290
     0
176
     1
 90
       50
176
     0
 40
0.0
176
     0
 40
1.0
176
     0
 90
        0
176
     0
 62
    18
420
        0
176
     0
 90
       50
176
     0
 90
        3
176
     0
 62
     5
420
      255
176
     0
290
     0
176
     1
 90
       50
176
     0
 90
       50
176
     0
 90
       50
176
     0
290
     0
176
     1
 90
       50
176
     0
 62
   256
176
     0
 40
1.0
176
     0
 90
        2
176
     0
  1
strokes_ogs.tif
176
     0
290
     0
176
     1
 40
1.0
176
     0
 40
1.0
176
     0
  0
VISUALSTYLE
  5
38
102
{ACAD_REACTORS
330
29
102
}
330
29
100
AcDbVisualStyle
  2
Facepattern
 70
    15
177
     3
291
     1
 70
    58
 90
        2
176
     1
 90
        2
176
     1
 90
        0
176
     1
 90
        0
176
     1
 40
0.6
176
     1
 40
30.0
176
     1
 62
     7
420
 16777215
176
     1
 90
        1
176
     1
 90
        4
176
     1
 62
     7
176
     1
 62
   257
176
     1
 90
        1
176
     1
 90
        1
176
     1
 40
1.0
176
     1
 90
        8
176
     1
 62
     7
176
     1
 40
1.0
176
     1
 90
        1
176
     1
 90
        6
176
     1
 90
        2
176
     1
 62
     7
176
     1
 90
        5
176
     1
 90
        0
176
     1
 90
        0
176
     1
290
     0
176
     1
 90
        1
176
     1
 40
0.0
176
     1
 90
        0
176
     1
290
     0
176
     1
290
     1
176
     1
290
     1
176
     1
290
     0
176
     1
290
     0
176
     1
290
     0
176
     1
290
     0
176
     1
290
     0
176
     1
290
     0
176
     1
 90
       50
176
     1
 40
0.0
176
     1
 40
1.0
176
     1
 90
        0
176
     1
 62
    18
420
        0
176
     1
 90
       50
176
     1
 90
        3
176
     1
 62
     5
420
      255
176
     1
290
     0
176
     1
 90
       50
176
     1
 90
       50
176
     1
 90
       50
176
     1
290
     0
176
     1
 90
       50
176
     1
 62
   256
176
     0
 40
1.0
176
     0
 90
        2
176
     1
  1
strokes_ogs.tif
176
     1
290
     0
176
     1
 40
1.0
176
     1
 40
1.0
176
     1
  0
VISUALSTYLE
  5
2A
102
{ACAD_REACTORS
330
29
102
}
330
29
100
AcDbVisualStyle
  2
Flat
 70
     0
177
     3
291
     1
 70
    58
 90
        2
176
     1
 90
        1
176
     1
 90
        1
176
     1
 90
        2
176
     1
 40
0.6
176
     1
 40
30.0
176
     1
 62
     7
420
 16777215
176
     1
 90
        0
176
     1
 90
        0
176
     1
 62
     7
176
     1
 62
   257
176
     1
 90
        1
176
     1
 90
        1
176
     1
 40
1.0
176
     1
 90
        8
176
     1
 62
     7
176
     1
 40
1.0
176
     1
 90
        1
176
     1
 90
        6
176
     1
 90
        2
176
     1
 62
     7
176
     1
 90
        5
176
     1
 90
        0
176
     1
 90
        0
176
     1
290
     0
176
     1
 90
       13
176
     1
 40
0.0
176
     1
 90
        0
176
     1
290
     0
176
     1
290
     1
176
     1
290
     1
176
     1
290
     0
176
     1
290
     0
176
     1
290
     0
176
     1
290
     0
176
     1
290
     0
176
     1
290
     0
176
     1
 90
       50
176
     1
 40
0.0
176
     1
 40
1.0
176
     1
 90
        0
176
     1
 62
    18
420
        0
176
     1
 90
       50
176
     1
 90
        3
176
     1
 62
     5
420
      255
176
     1
290
     0
176
     1
 90
       50
176
     1
 90
       50
176
     1
 90
       50
176
     1
290
     0
176
     1
 90
       50
176
     1
 62
   256
176
     0
 40
1.0
176
     0
 90
        2
176
     1
  1
strokes_ogs.tif
176
     1
290
     0
176
     1
 40
1.0
176
     1
 40
1.0
176
     1
  0
VISUALSTYLE
  5
2B
102
{ACAD_REACTORS
330
29
102
}
330
29
100
AcDbVisualStyle
  2
FlatWithEdges
 70
     1
177
     3
291
     1
 70
    58
 90
        2
176
     1
 90
        1
176
     1
 90
        1
176
     1
 90
        2
176
     1
 40
0.6
176
     1
 40
30.0
176
     1
 62
     7
420
 16777215
176
     1
 90
        1
176
     1
 90
        0
176
     1
 62
     7
176
     1
 62
   257
176
     1
 90
        1
176
     1
 90
        1
176
     1
 40
1.0
176
     1
 90
        0
176
     1
 62
   257
176
     1
 40
1.0
176
     1
 90
        1
176
     1
 90
        6
176
     1
 90
        2
176
     1
 62
     7
176
     1
 90
        5
176
     1
 90
        0
176
     1
 90
        0
176
     1
290
     0
176
     1
 90
       13
176
     1
 40
0.0
176
     1
 90
        0
176
     1
290
     0
176
     1
290
     1
176
     1
290
     1
176
     1
290
     0
176
     1
290
     0
176
     1
290
     0
176
     1
290
     0
176
     1
290
     0
176
     1
290
     0
176
     1
 90
       50
176
     1
 40
0.0
176
     1
 40
1.0
176
     1
 90
        0
176
     1
 62
    18
420
        0
176
     1
 90
       50
176
     1
 90
        3
176
     1
 62
     5
420
      255
176
     1
290
     0
176
     1
 90
       50
176
     1
 90
       50
176
     1
 90
       50
176
     1
290
     0
176
     1
 90
       50
176
     1
 62
   256
176
     0
 40
1.0
176
     0
 90
        2
176
     1
  1
strokes_ogs.tif
176
     1
290
     0
176
     1
 40
1.0
176
     1
 40
1.0
176
     1
  0
VISUALSTYLE
  5
2C
102
{ACAD_REACTORS
330
29
102
}
330
29
100
AcDbVisualStyle
  2
Gouraud
 70
     2
177
     3
291
     1
 70
    58
 90
        2
176
     1
 90
        2
176
     1
 90
        1
176
     1
 90
        2
176
     1
 40
0.6
176
     1
 40
30.0
176
     1
 62
     7
420
 16777215
176
     1
 90
        0
176
     1
 90
        0
176
     1
 62
     7
176
     1
 62
   257
176
     1
 90
        1
176
     1
 90
        1
176
     1
 40
1.0
176
     1
 90
        0
176
     1
 62
     7
176
     1
 40
1.0
176
     1
 90
        1
176
     1
 90
        6
176
     1
 90
        2
176
     1
 62
     7
176
     1
 90
        5
176
     1
 90
        0
176
     1
 90
        0
176
     1
290
     0
176
     1
 90
       13
176
     1
 40
0.0
176
     1
 90
        0
176
     1
290
     0
176
     1
290
     1
176
     1
290
     1
176
     1
290
     0
176
     1
290
     0
176
     1
290
     0
176
     1
290
     0
176
     1
290
     0
176
     1
290
     0
176
     1
 90
       50
176
     1
 40
0.0
176
     1
 40
1.0
176
     1
 90
        0
176
     1
 62
    18
420
        0
176
     1
 90
       50
176
     1
 90
        3
176
     1
 62
     5
420
      255
176
     1
290
     0
176
     1
 90
       50
176
     1
 90
       50
176
     1
 90
       50
176
     1
290
     0
176
     1
 90
       50
176
     1
 62
   256
176
     0
 40
1.0
176
     0
 90
        2
176
     1
  1
strokes_ogs.tif
176
     1
290
     0
176
     1
 40
1.0
176
     1
 40
1.0
176
     1
  0
VISUALSTYLE
  5
2D
102
{ACAD_REACTORS
330
29
102
}
330
29
100
AcDbVisualStyle
  2
GouraudWithEdges
 70
     3
177
     3
291
     1
 70
    58
 90
        2
176
     1
 90
        2
176
     1
 90
        1
176
     1
 90
        2
176
     1
 40
0.6
176
     1
 40
30.0
176
     1
 62
     7
420
 16777215
176
     1
 90
        1
176
     1
 90
        0
176
     1
 62
     7
176
     1
 62
   257
176
     1
 90
        1
176
     1
 90
        1
176
     1
 40
1.0
176
     1
 90
        0
176
     1
 62
   257
176
     1
 40
1.0
176
     1
 90
        1
176
     1
 90
        6
176
     1
 90
        2
176
     1
 62
     7
176
     1
 90
        5
176
     1
 90
        0
176
     1
 90
        0
176
     1
290
     0
176
     1
 90
       13
176
     1
 40
0.0
176
     1
 90
        0
176
     1
290
     0
176
     1
290
     1
176
     1
290
     1
176
     1
290
     0
176
     1
290
     0
176
     1
290
     0
176
     1
290
     0
176
     1
290
     0
176
     1
290
     0
176
     1
 90
       50
176
     1
 40
0.0
176
     1
 40
1.0
176
     1
 90
        0
176
     1
 62
    18
420
        0
176
     1
 90
       50
176
     1
 90
        3
176
     1
 62
     5
420
      255
176
     1
290
     0
176
     1
 90
       50
176
     1
 90
       50
176
     1
 90
       50
176
     1
290
     0
176
     1
 90
       50
176
     1
 62
   256
176
     0
 40
1.0
176
     0
 90
        2
176
     1
  1
strokes_ogs.tif
176
     1
290
     0
176
     1
 40
1.0
176
     1
 40
1.0
176
     1
  0
VISUALSTYLE
  5
31
102
{ACAD_REACTORS
330
29
102
}
330
29
100
AcDbVisualStyle
  2
Hidden
 70
     6
177
     3
291
     0
 70
    58
 90
        1
176
     1
 90
        2
176
     1
 90
        2
176
     1
 90
        0
176
     1
 40
0.6
176
     1
 40
30.0
176
     1
 62
     7
420
 16777215
176
     1
 90
        2
176
     1
 90
        2
176
     1
 62
     7
176
     1
 62
   257
176
     1
 90
        2
176
     1
 90
        1
176
     1
 40
40.0
176
     1
 90
        0
176
     1
 62
   257
176
     1
 40
1.0
176
     1
 90
        1
176
     1
 90
        6
176
     1
 90
        2
176
     1
 62
     7
176
     1
 90
        3
176
     1
 90
        0
176
     1
 90
        0
176
     1
290
     0
176
     1
 90
        1
176
     1
 40
0.0
176
     1
 90
        0
176
     1
290
     0
176
     1
290
     1
176
     1
290
     1
176
     1
290
     0
176
     1
290
     0
176
     1
290
     0
176
     1
290
     0
176
     1
290
     0
176
     1
290
     0
176
     1
 90
       50
176
     1
 40
0.0
176
     1
 40
1.0
176
     1
 90
        0
176
     1
 62
    18
420
        0
176
     1
 90
       50
176
     1
 90
        3
176
     1
 62
     5
420
      255
176
     1
290
     0
176
     1
 90
       50
176
     1
 90
       50
176
     1
 90
       50
176
     1
290
     0
176
     1
 90
       50
176
     1
 62
   256
176
     0
 40
1.0
176
     0
 90
        2
176
     1
  1
strokes_ogs.tif
176
     1
290
     0
176
     1
 40
1.0
176
     1
 40
1.0
176
     1
  0
VISUALSTYLE
  5
3F
102
{ACAD_REACTORS
330
29
102
}
330
29
100
AcDbVisualStyle
  2
JitterOff
 70
    20
177
     3
291
     1
 70
    58
 90
        2
176
     0
 90
        2
176
     0
 90
        0
176
     0
 90
        0
176
     0
 40
0.6
176
     0
 40
30.0
176
     0
 62
     7
420
 16777215
176
     0
 90
        1
176
     0
 90
        4
176
     0
 62
     7
176
     0
 62
   257
176
     0
 90
        1
176
     0
 90
        1
176
     0
 40
1.0
176
     0
 90
       10
176
     2
 62
     7
176
     0
 40
1.0
176
     0
 90
        1
176
     0
 90
        6
176
     0
 90
        2
176
     0
 62
     7
176
     0
 90
        5
176
     0
 90
        0
176
     0
 90
        0
176
     0
290
     0
176
     0
 90
        1
176
     0
 40
0.0
176
     0
 90
        0
176
     0
290
     0
176
     1
290
     1
176
     1
290
     1
176
     1
290
     0
176
     1
290
     0
176
     1
290
     0
176
     1
290
     0
176
     1
290
     0
176
     1
290
     0
176
     1
 90
       50
176
     0
 40
0.0
176
     0
 40
1.0
176
     0
 90
        0
176
     0
 62
    18
420
        0
176
     0
 90
       50
176
     0
 90
        3
176
     0
 62
     5
420
      255
176
     0
290
     0
176
     1
 90
       50
176
     0
 90
       50
176
     0
 90
       50
176
     0
290
     0
176
     1
 90
       50
176
     0
 62
   256
176
     0
 40
1.0
176
     0
 90
        2
176
     0
  1
strokes_ogs.tif
176
     0
290
     0
176
     1
 40
1.0
176
     0
 40
1.0
176
     0
  0
VISUALSTYLE
  5
37
102
{ACAD_REACTORS
330
29
102
}
330
29
100
AcDbVisualStyle
  2
Linepattern
 70
    14
177
     3
291
     1
 70
    58
 90
        2
176
     1
 90
        2
176
     1
 90
        0
176
     1
 90
        0
176
     1
 40
0.6
176
     1
 40
30.0
176
     1
 62
     7
420
 16777215
176
     1
 90
        1
176
     1
 90
        4
176
     1
 62
     7
176
     1
 62
   257
176
     1
 90
        7
176
     1
 90
        7
176
     1
 40
1.0
176
     1
 90
        8
176
     1
 62
     7
176
     1
 40
1.0
176
     1
 90
        1
176
     1
 90
        6
176
     1
 90
        2
176
     1
 62
     7
176
     1
 90
        5
176
     1
 90
        0
176
     1
 90
        0
176
     1
290
     0
176
     1
 90
        1
176
     1
 40
0.0
176
     1
 90
        0
176
     1
290
     0
176
     1
290
     1
176
     1
290
     1
176
     1
290
     0
176
     1
290
     0
176
     1
290
     0
176
     1
290
     0
176
     1
290
     0
176
     1
290
     0
176
     1
 90
       50
176
     1
 40
0.0
176
     1
 40
1.0
176
     1
 90
        0
176
     1
 62
    18
420
        0
176
     1
 90
       50
176
     1
 90
        3
176
     1
 62
     5
420
      255
176
     1
290
     0
176
     1
 90
       50
176
     1
 90
       50
176
     1
 90
       50
176
     1
290
     0
176
     1
 90
       50
176
     1
 62
   256
176
     0
 40
1.0
176
     0
 90
        2
176
     1
  1
strokes_ogs.tif
176
     1
290
     0
176
     1
 40
1.0
176
     1
 40
1.0
176
     1
  0
VISUALSTYLE
  5
40
102
{ACAD_REACTORS
330
29
102
}
330
29
100
AcDbVisualStyle
  2
OverhangOff
 70
    21
177
     3
291
     1
 70
    58
 90
        2
176
     0
 90
        2
176
     0
 90
        0
176
     0
 90
        0
176
     0
 40
0.6
176
     0
 40
30.0
176
     0
 62
     7
420
 16777215
176
     0
 90
        1
176
     0
 90
        4
176
     0
 62
     7
176
     0
 62
   257
176
     0
 90
        1
176
     0
 90
        1
176
     0
 40
1.0
176
     0
 90
        9
176
     2
 62
     7
176
     0
 40
1.0
176
     0
 90
        1
176
     0
 90
        6
176
     0
 90
        2
176
     0
 62
     7
176
     0
 90
        5
176
     0
 90
        0
176
     0
 90
        0
176
     0
290
     0
176
     0
 90
        1
176
     0
 40
0.0
176
     0
 90
        0
176
     0
290
     0
176
     1
290
     1
176
     1
290
     1
176
     1
290
     0
176
     1
290
     0
176
     1
290
     0
176
     1
290
     0
176
     1
290
     0
176
     1
290
     0
176
     1
 90
       50
176
     0
 40
0.0
176
     0
 40
1.0
176
     0
 90
        0
176
     0
 62
    18
420
        0
176
     0
 90
       50
176
     0
 90
        3
176
     0
 62
     5
420
      255
176
     0
290
     0
176
     1
 90
       50
176
     0
 90
       50
176
     0
 90
       50
176
     0
290
     0
176
     1
 90
       50
176
     0
 62
   256
176
     0
 40
1.0
176
     0
 90
        2
176
     0
  1
strokes_ogs.tif
176
     0
290
     0
176
     1
 40
1.0
176
     0
 40
1.0
176
     0
  0
VISUALSTYLE
  5
33
102
{ACAD_REACTORS
330
29
102
}
330
29
100
AcDbVisualStyle
  2
Realistic
 70
     8
177
     3
291
     0
 70
    58
 90
        2
176
     1
 90
        3
176
     1
 90
        0
176
     1
 90
        2
176
     1
 40
0.6
176
     1
 40
30.0
176
     1
 62
     7
420
 16777215
176
     1
 90
        0
176
     1
 90
        0
176
     1
 62
     7
176
     1
 62
   257
176
     1
 90
        1
176
     1
 90
        1
176
     1
 40
1.0
176
     1
 90
        8
176
     1
 62
   257
176
     1
 40
1.0
176
     1
 90
        1
176
     1
 90
        6
176
     1
 90
        2
176
     1
 62
     7
176
     1
 90
        3
176
     1
 90
        0
176
     1
 90
        0
176
     1
290
     0
176
     1
 90
       13
176
     1
 40
0.0
176
     1
 90
        0
176
     1
290
     0
176
     1
290
     1
176
     1
290
     1
176
     1
290
     0
176
     1
290
     0
176
     1
290
     0
176
     1
290
     0
176
     1
290
     0
176
     1
290
     0
176
     1
 90
       50
176
     1
 40
0.0
176
     1
 40
1.0
176
     1
 90
        0
176
     1
 62
    18
420
        0
176
     1
 90
       50
176
     1
 90
        3
176
     1
 62
     5
420
      255
176
     1
290
     0
176
     1
 90
       50
176
     1
 90
       50
176
     1
 90
       50
176
     1
290
     0
176
     1
 90
       50
176
     1
 62
   256
176
     0
 40
1.0
176
     0
 90
        2
176
     1
  1
strokes_ogs.tif
176
     1
290
     0
176
     1
 40
1.0
176
     1
 40
1.0
176
     1
  0
VISUALSTYLE
  5
3E
102
{ACAD_REACTORS
330
29
102
}
330
29
100
AcDbVisualStyle
  2
Shaded
 70
    27
177
     3
291
     0
 70
    58
 90
        2
176
     1
 90
        2
176
     1
 90
        1
176
     1
 90
        2
176
     1
 40
0.6
176
     1
 40
30.0
176
     1
 62
     7
420
 16777215
176
     1
 90
        0
176
     1
 90
        4
176
     1
 62
     7
176
     1
 62
   257
176
     1
 90
        1
176
     1
 90
        1
176
     1
 40
1.0
176
     1
 90
        8
176
     1
 62
   257
176
     1
 40
1.0
176
     1
 90
        1
176
     1
 90
        6
176
     1
 90
        2
176
     1
 62
     8
420
  7895160
176
     1
 90
        3
176
     1
 90
        0
176
     1
 90
        0
176
     1
290
     0
176
     1
 90
        5
176
     1
 40
0.0
176
     1
 90
        0
176
     1
290
     0
176
     1
290
     1
176
     1
290
     1
176
     1
290
     0
176
     1
290
     0
176
     1
290
     0
176
     1
290
     0
176
     1
290
     0
176
     1
290
     0
176
     1
 90
       50
176
     1
 40
0.0
176
     1
 40
1.0
176
     1
 90
        0
176
     1
 62
    18
420
        0
176
     1
 90
       50
176
     1
 90
        3
176
     1
 62
     5
420
      255
176
     1
290
     0
176
     1
 90
       50
176
     1
 90
       50
176
     1
 90
       50
176
     1
290
     0
176
     1
 90
       50
176
     1
 62
   256
176
     0
 40
1.0
176
     0
 90
        2
176
     1
  1
strokes_ogs.tif
176
     1
290
     0
176
     1
 40
1.0
176
     1
 40
1.0
176
     1
  0
VISUALSTYLE
  5
3D
102
{ACAD_REACTORS
330
29
102
}
330
29
100
AcDbVisualStyle
  2
Shaded with edges
 70
    26
177
     3
291
     0
 70
    58
 90
        2
176
     1
 90
        2
176
     1
 90
        1
176
     1
 90
        2
176
     1
 40
0.6
176
     1
 40
30.0
176
     1
 62
     7
420
 16777215
176
     1
 90
        1
176
     1
 90
        2
176
     1
 62
     7
176
     1
 62
   257
176
     1
 90
        2
176
     1
 90
        1
176
     1
 40
1.0
176
     1
 90
        8
176
     1
 62
   257
176
     1
 40
1.0
176
     1
 90
        1
176
     1
 90
        6
176
     1
 90
        2
176
     1
 62
     7
176
     1
 90
        3
176
     1
 90
        0
176
     1
 90
        0
176
     1
290
     0
176
     1
 90
        5
176
     1
 40
0.0
176
     1
 90
        0
176
     1
290
     0
176
     1
290
     1
176
     1
290
     1
176
     1
290
     0
176
     1
290
     0
176
     1
290
     0
176
     1
290
     0
176
     1
290
     0
176
     1
290
     0
176
     1
 90
       50
176
     1
 40
0.0
176
     1
 40
1.0
176
     1
 90
        0
176
     1
 62
    18
420
        0
176
     1
 90
       50
176
     1
 90
        3
176
     1
 62
     5
420
      255
176
     1
290
     0
176
     1
 90
       50
176
     1
 90
       50
176
     1
 90
       50
176
     1
290
     0
176
     1
 90
       50
176
     1
 62
   256
176
     0
 40
1.0
176
     0
 90
        2
176
     1
  1
strokes_ogs.tif
176
     1
290
     0
176
     1
 40
1.0
176
     1
 40
1.0
176
     1
  0
VISUALSTYLE
  5
3A
102
{ACAD_REACTORS
330
29
102
}
330
29
100
AcDbVisualStyle
  2
Shades of Gray
 70
    23
177
     3
291
     0
 70
    58
 90
        2
176
     1
 90
        2
176
     1
 90
        3
176
     1
 90
        0
176
     1
 40
0.6
176
     1
 40
30.0
176
     1
 62
     7
420
 16777215
176
     1
 90
        2
176
     1
 90
        2
176
     1
 62
     7
176
     1
 62
     7
176
     1
 90
        1
176
     1
 90
        1
176
     1
 40
40.0
176
     1
 90
        8
176
     1
 62
     7
176
     1
 40
1.0
176
     1
 90
        1
176
     1
 90
        6
176
     1
 90
        2
176
     1
 62
     7
176
     1
 90
        3
176
     1
 90
        0
176
     1
 90
        0
176
     1
290
     0
176
     1
 90
        1
176
     1
 40
0.0
176
     1
 90
        0
176
     1
290
     0
176
     1
290
     1
176
     1
290
     1
176
     1
290
     0
176
     1
290
     0
176
     1
290
     0
176
     1
290
     0
176
     1
290
     0
176
     1
290
     0
176
     1
 90
       50
176
     1
 40
0.0
176
     1
 40
1.0
176
     1
 90
        0
176
     1
 62
    18
420
        0
176
     1
 90
       50
176
     1
 90
        3
176
     1
 62
     5
420
      255
176
     1
290
     0
176
     1
 90
       50
176
     1
 90
       50
176
     1
 90
       50
176
     1
290
     0
176
     1
 90
       50
176
     1
 62
   256
176
     0
 40
1.0
176
     0
 90
        2
176
     1
  1
strokes_ogs.tif
176
     1
290
     0
176
     1
 40
1.0
176
     1
 40
1.0
176
     1
  0
VISUALSTYLE
  5
3B
102
{ACAD_REACTORS
330
29
102
}
330
29
100
AcDbVisualStyle
  2
Sketchy
 70
    24
177
     3
291
     0
 70
    58
 90
        1
176
     1
 90
        2
176
     1
 90
        2
176
     1
 90
        0
176
     1
 40
0.6
176
     1
 40
30.0
176
     1
 62
     7
420
 16777215
176
     1
 90
        2
176
     1
 90
        2
176
     1
 62
     7
176
     1
 62
     7
176
     1
 90
        1
176
     1
 90
        1
176
     1
 40
40.0
176
     1
 90
       11
176
     1
 62
     7
176
     1
 40
1.0
176
     1
 90
        1
176
     1
 90
        6
176
     1
 90
        2
176
     1
 62
     7
176
     1
 90
        6
176
     1
 90
        0
176
     1
 90
        0
176
     1
290
     0
176
     1
 90
        1
176
     1
 40
0.0
176
     1
 90
        0
176
     1
290
     0
176
     1
290
     1
176
     1
290
     1
176
     1
290
     0
176
     1
290
     0
176
     1
290
     0
176
     1
290
     0
176
     1
290
     0
176
     1
290
     0
176
     1
 90
       50
176
     1
 40
0.0
176
     1
 40
1.0
176
     1
 90
        0
176
     1
 62
    18
420
        0
176
     1
 90
       50
176
     1
 90
        3
176
     1
 62
     5
420
      255
176
     1
290
     0
176
     1
 90
       50
176
     1
 90
       50
176
     1
 90
       50
176
     1
290
     0
176
     1
 90
       50
176
     1
 62
   256
176
     0
 40
1.0
176
     0
 90
        2
176
     1
  1
strokes_ogs.tif
176
     1
290
     0
176
     1
 40
1.0
176
     1
 40
1.0
176
     1
  0
VISUALSTYLE
  5
36
102
{ACAD_REACTORS
330
29
102
}
330
29
100
AcDbVisualStyle
  2
Thicken
 70
    13
177
     3
291
     1
 70
    58
 90
        2
176
     1
 90
        2
176
     1
 90
        0
176
     1
 90
        0
176
     1
 40
0.6
176
     1
 40
30.0
176
     1
 62
     7
420
 16777215
176
     1
 90
        1
176
     1
 90
        4
176
     1
 62
     7
176
     1
 62
   257
176
     1
 90
        1
176
     1
 90
        1
176
     1
 40
1.0
176
     1
 90
       12
176
     1
 62
     7
176
     1
 40
1.0
176
     1
 90
        1
176
     1
 90
        6
176
     1
 90
        2
176
     1
 62
     7
176
     1
 90
        5
176
     1
 90
        0
176
     1
 90
        0
176
     1
290
     0
176
     1
 90
        1
176
     1
 40
0.0
176
     1
 90
        0
176
     1
290
     0
176
     1
290
     1
176
     1
290
     1
176
     1
290
     0
176
     1
290
     0
176
     1
290
     0
176
     1
290
     0
176
     1
290
     0
176
     1
290
     0
176
     1
 90
       50
176
     1
 40
0.0
176
     1
 40
1.0
176
     1
 90
        0
176
     1
 62
    18
420
        0
176
     1
 90
       50
176
     1
 90
        3
176
     1
 62
     5
420
      255
176
     1
290
     0
176
     1
 90
       50
176
     1
 90
       50
176
     1
 90
       50
176
     1
290
     0
176
     1
 90
       50
176
     1
 62
   256
176
     0
 40
1.0
176
     0
 90
        2
176
     1
  1
strokes_ogs.tif
176
     1
290
     0
176
     1
 40
1.0
176
     1
 40
1.0
176
     1
  0
VISUALSTYLE
  5
30
102
{ACAD_REACTORS
330
29
102
}
330
29
100
AcDbVisualStyle
  2
Wireframe
 70
     5
177
     3
291
     0
 70
    58
 90
        0
176
     1
 90
        2
176
     1
 90
        0
176
     1
 90
        0
176
     1
 40
0.6
176
     1
 40
30.0
176
     1
 62
     7
420
 16777215
176
     1
 90
        1
176
     1
 90
        4
176
     1
 62
     7
176
     1
 62
   257
176
     1
 90
        1
176
     1
 90
        1
176
     1
 40
1.0
176
     1
 90
        0
176
     1
 62
   257
176
     1
 40
1.0
176
     1
 90
        1
176
     1
 90
        6
176
     1
 90
        2
176
     1
 62
     7
176
     1
 90
        3
176
     1
 90
        0
176
     1
 90
        0
176
     1
290
     0
176
     1
 90
        1
176
     1
 40
0.0
176
     1
 90
        0
176
     1
290
     0
176
     1
290
     1
176
     1
290
     1
176
     1
290
     0
176
     1
290
     0
176
     1
290
     0
176
     1
290
     0
176
     1
290
     0
176
     1
290
     0
176
     1
 90
       50
176
     1
 40
0.0
176
     1
 40
1.0
176
     1
 90
        0
176
     1
 62
    18
420
        0
176
     1
 90
       50
176
     1
 90
        3
176
     1
 62
     5
420
      255
176
     1
290
     0
176
     1
 90
       50
176
     1
 90
       50
176
     1
 90
       50
176
     1
290
     0
176
     1
 90
       50
176
     1
 62
   256
176
     0
 40
1.0
176
     0
 90
        2
176
     1
  1
strokes_ogs.tif
176
     1
290
     0
176
     1
 40
1.0
176
     1
 40
1.0
176
     1
  0
VISUALSTYLE
  5
3C
102
{ACAD_REACTORS
330
29
102
}
330
29
100
AcDbVisualStyle
  2
X-Ray
 70
    25
177
     3
291
     0
 70
    58
 90
        2
176
     1
 90
        2
176
     1
 90
        1
176
     1
 90
        1
176
     1
 40
0.5
176
     1
 40
30.0
176
     1
 62
     7
420
 16777215
176
     1
 90
        1
176
     1
 90
        0
176
     1
 62
     7
176
     1
 62
   257
176
     1
 90
        1
176
     1
 90
        1
176
     1
 40
1.0
176
     1
 90
        8
176
     1
 62
     7
176
     1
 40
1.0
176
     1
 90
        1
176
     1
 90
        6
176
     1
 90
        2
176
     1
 62
     7
176
     1
 90
        3
176
     1
 90
        0
176
     1
 90
        0
176
     1
290
     0
176
     1
 90
       13
176
     1
 40
0.0
176
     1
 90
        0
176
     1
290
     0
176
     1
290
     1
176
     1
290
     1
176
     1
290
     0
176
     1
290
     0
176
     1
290
     0
176
     1
290
     0
176
     1
290
     0
176
     1
290
     0
176
     1
 90
       50
176
     1
 40
0.0
176
     1
 40
1.0
176
     1
 90
        0
176
     1
 62
    18
420
        0
176
     1
 90
       50
176
     1
 90
        3
176
     1
 62
     5
420
      255
176
     1
290
     0
176
     1
 90
       50
176
     1
 90
       50
176
     1
 90
       50
176
     1
290
     0
176
     1
 90
       50
176
     1
 62
   256
176
     0
 40
1.0
176
     0
 90
        2
176
     1
  1
strokes_ogs.tif
176
     1
290
     0
176
     1
 40
1.0
176
     1
 40
1.0
176
     1
  0
DICTIONARYVAR
  5
6CA
102
{ACAD_REACTORS
330
6C4
102
}
330
6C4
100
DictionaryVariables
280
     0
  1
1:1
  0
DICTIONARYVAR
  5
6C6
102
{ACAD_REACTORS
330
6C4
102
}
330
6C4
100
DictionaryVariables
280
     0
  1
STANDARD
  0
DICTIONARYVAR
  5
6C5
102
{ACAD_REACTORS
330
6C4
102
}
330
6C4
100
DictionaryVariables
280
     0
  1
STANDARD
  0
DICTIONARYVAR
  5
6C7
102
{ACAD_REACTORS
330
6C4
102
}
330
6C4
100
DictionaryVariables
280
     0
  1
Imperial24
  0
DICTIONARYVAR
  5
6C8
102
{ACAD_REACTORS
330
6C4
102
}
330
6C4
100
DictionaryVariables
280
     0
  1
Imperial24
  0
DICTIONARYVAR
  5
6CC
102
{ACAD_REACTORS
330
6C4
102
}
330
6C4
100
DictionaryVariables
280
     0
  1
1
  0
DICTIONARYVAR
  5
6CD
102
{ACAD_REACTORS
330
6C4
102
}
330
6C4
100
DictionaryVariables
280
     0
  1
15
  0
DICTIONARYVAR
  5
6CB
102
{ACAD_REACTORS
330
6C4
102
}
330
6C4
100
DictionaryVariables
280
     0
  1
0
  0
DICTIONARYVAR
  5
6C9
102
{ACAD_REACTORS
330
6C4
102
}
330
6C4
100
DictionaryVariables
280
     0
  1
0
  0
DICTIONARY
  5
1A
330
19
100
AcDbDictionary
280
     1
281
     1
  3
BUMPTILE
360
1C
  3
DIFFUSETILE
360
1B
  3
OPACITYTILE
360
1F
  3
REFLECTIONTILE
360
1E
  3
REFRACTIONTILE
360
20
  3
SPECULARTILE
360
1D
  0
DICTIONARY
  5
12
330
11
100
AcDbDictionary
280
     1
281
     1
  3
BUMPTILE
360
14
  3
DIFFUSETILE
360
13
  3
OPACITYTILE
360
17
  3
REFLECTIONTILE
360
16
  3
REFRACTIONTILE
360
18
  3
SPECULARTILE
360
15
  0
DICTIONARY
  5
22
330
21
100
AcDbDictionary
280
     1
281
     1
  3
BUMPTILE
360
24
  3
DIFFUSETILE
360
23
  3
OPACITYTILE
360
27
  3
REFLECTIONTILE
360
26
  3
REFRACTIONTILE
360
28
  3
SPECULARTILE
360
25
  0
DICTIONARY
  5
6DA
330
64
100
AcDbDictionary
280
     1
281
     1
  3
ACAD_ROUNDTRIP_2008_TABLESTYLE_CELLSTYLEMAP
360
6DB
  0
XRECORD
  5
1C
102
{ACAD_REACTORS
330
1A
102
}
330
1A
100
AcDbXrecord
280
     1
270
     1
271
     1
  0
XRECORD
  5
1B
102
{ACAD_REACTORS
330
1A
102
}
330
1A
100
AcDbXrecord
280
     1
270
     1
271
     1
  0
XRECORD
  5
1F
102
{ACAD_REACTORS
330
1A
102
}
330
1A
100
AcDbXrecord
280
     1
270
     1
271
     1
  0
XRECORD
  5
1E
102
{ACAD_REACTORS
330
1A
102
}
330
1A
100
AcDbXrecord
280
     1
270
     1
271
     1
  0
XRECORD
  5
20
102
{ACAD_REACTORS
330
1A
102
}
330
1A
100
AcDbXrecord
280
     1
270
     1
271
     1
  0
XRECORD
  5
1D
102
{ACAD_REACTORS
330
1A
102
}
330
1A
100
AcDbXrecord
280
     1
270
     1
271
     1
  0
XRECORD
  5
14
102
{ACAD_REACTORS
330
12
102
}
330
12
100
AcDbXrecord
280
     1
270
     1
271
     1
  0
XRECORD
  5
13
102
{ACAD_REACTORS
330
12
102
}
330
12
100
AcDbXrecord
280
     1
270
     1
271
     1
  0
XRECORD
  5
17
102
{ACAD_REACTORS
330
12
102
}
330
12
100
AcDbXrecord
280
     1
270
     1
271
     1
  0
XRECORD
  5
16
102
{ACAD_REACTORS
330
12
102
}
330
12
100
AcDbXrecord
280
     1
270
     1
271
     1
  0
XRECORD
  5
18
102
{ACAD_REACTORS
330
12
102
}
330
12
100
AcDbXrecord
280
     1
270
     1
271
     1
  0
XRECORD
  5
15
102
{ACAD_REACTORS
330
12
102
}
330
12
100
AcDbXrecord
280
     1
270
     1
271
     1
  0
XRECORD
  5
24
102
{ACAD_REACTORS
330
22
102
}
330
22
100
AcDbXrecord
280
     1
270
     1
271
     1
  0
XRECORD
  5
23
102
{ACAD_REACTORS
330
22
102
}
330
22
100
AcDbXrecord
280
     1
270
     1
271
     1
  0
XRECORD
  5
27
102
{ACAD_REACTORS
330
22
102
}
330
22
100
AcDbXrecord
280
     1
270
     1
271
     1
  0
XRECORD
  5
26
102
{ACAD_REACTORS
330
22
102
}
330
22
100
AcDbXrecord
280
     1
270
     1
271
     1
  0
XRECORD
  5
28
102
{ACAD_REACTORS
330
22
102
}
330
22
100
AcDbXrecord
280
     1
270
     1
271
     1
  0
XRECORD
  5
25
102
{ACAD_REACTORS
330
22
102
}
330
22
100
AcDbXrecord
280
     1
270
     1
271
     1
  0
CELLSTYLEMAP
  5
6DB
102
{ACAD_REACTORS
330
6DA
102
}
330
6DA
100
AcDbCellStyleMap
 90
        3
300
CELLSTYLE
  1
TABLEFORMAT_BEGIN
 90
        5
170
     1
 91
        0
 92
    32768
 62
   257
 93
        1
300
CONTENTFORMAT
  1
CONTENTFORMAT_BEGIN
 90
        0
 91
        0
 92
      512
 93
        0
300

 40
0.0
140
1.0
 94
        5
 62
     0
340
55
144
0.25
309
CONTENTFORMAT_END
171
     0
 94
        0
309
TABLEFORMAT_END
  1
CELLSTYLE_BEGIN
 90
        1
 91
        1
300
_TITLE
309
CELLSTYLE_END
300
CELLSTYLE
  1
TABLEFORMAT_BEGIN
 90
        5
170
     1
 91
        0
 92
        0
 62
   257
 93
        1
300
CONTENTFORMAT
  1
CONTENTFORMAT_BEGIN
 90
        0
 91
        0
 92
      512
 93
        0
300

 40
0.0
140
1.0
 94
        5
 62
     0
340
55
144
0.18
309
CONTENTFORMAT_END
171
     0
 94
        0
309
TABLEFORMAT_END
  1
CELLSTYLE_BEGIN
 90
        2
 91
        1
300
_HEADER
309
CELLSTYLE_END
300
CELLSTYLE
  1
TABLEFORMAT_BEGIN
 90
        5
170
     1
 91
        0
 92
        0
 62
   257
 93
        1
300
CONTENTFORMAT
  1
CONTENTFORMAT_BEGIN
 90
        0
 91
        0
 92
      512
 93
        0
300

 40
0.0
140
1.0
 94
        2
 62
     0
340
55
144
0.18
309
CONTENTFORMAT_END
171
     0
 94
        0
309
TABLEFORMAT_END
  1
CELLSTYLE_BEGIN
 90
        3
 91
        2
300
_DATA
309
CELLSTYLE_END
  0
ENDSEC
  0
SECTION
  2
ACDSDATA
 70
     2
 71
     8
  0
ACDSSCHEMA
 90
        0
  1
AcDb_Thumbnail_Schema
  2
AcDbDs::ID
280
    10
 91
        8
  2
Thumbnail_Data
280
    15
 91
        0
101
ACDSRECORD
 95
        0
 90
        1
  2
AcDbDs::TreatedAsObjectData
280
     1
291
     1
101
ACDSRECORD
 95
        0
 90
        2
  2
AcDbDs::Legacy
280
     1
291
     1
101
ACDSRECORD
  1
AcDbDs::ID
 90
        3
  2
AcDs:Indexable
280
     1
291
     1
101
ACDSRECORD
  1
AcDbDs::ID
 90
        4
  2
AcDbDs::HandleAttribute
280
     7
282
     1
  0
ACDSSCHEMA
 90
        1
  1
AcDbDs::TreatedAsObjectDataSchema
  2
AcDbDs::TreatedAsObjectData
280
     1
 91
        0
  0
ACDSSCHEMA
 90
        2
  1
AcDbDs::LegacySchema
  2
AcDbDs::Legacy
280
     1
 91
        0
  0
ACDSSCHEMA
 90
        3
  1
AcDbDs::IndexedPropertySchema
  2
AcDs:Indexable
280
     1
 91
        0
  0
ACDSSCHEMA
 90
        4
  1
AcDbDs::HandleAttributeSchema
  2
AcDbDs::HandleAttribute
280
     7
 91
        1
284
     1
  0
ACDSRECORD
 90
        0
  2
AcDbDs::ID
280
    10
320
72
  2
Thumbnail_Data
280
    15
 94
      938
310
89504E470D0A1A0A0000000D4948445200000100000000BA0803000000768A63F300000300504C5445212830FFFFFF2128300000000000000000000000000000000000000000000000000000330000660000990000CC0000FF0033000033330033660033990033CC0033FF0066000066330066660066990066CC0066FF0099
310
000099330099660099990099CC0099FF00CC0000CC3300CC6600CC9900CCCC00CCFF00FF0000FF3300FF6600FF9900FFCC00FFFF3300003300333300663300993300CC3300FF3333003333333333663333993333CC3333FF3366003366333366663366993366CC3366FF3399003399333399663399993399CC3399FF33CC00
310
33CC3333CC6633CC9933CCCC33CCFF33FF0033FF3333FF6633FF9933FFCC33FFFF6600006600336600666600996600CC6600FF6633006633336633666633996633CC6633FF6666006666336666666666996666CC6666FF6699006699336699666699996699CC6699FF66CC0066CC3366CC6666CC9966CCCC66CCFF66FF0066
310
FF3366FF6666FF9966FFCC66FFFF9900009900339900669900999900CC9900FF9933009933339933669933999933CC9933FF9966009966339966669966999966CC9966FF9999009999339999669999999999CC9999FF99CC0099CC3399CC6699CC9999CCCC99CCFF99FF0099FF3399FF6699FF9999FFCC99FFFFCC0000CC00
310
33CC0066CC0099CC00CCCC00FFCC3300CC3333CC3366CC3399CC33CCCC33FFCC6600CC6633CC6666CC6699CC66CCCC66FFCC9900CC9933CC9966CC9999CC99CCCC99FFCCCC00CCCC33CCCC66CCCC99CCCCCCCCCCFFCCFF00CCFF33CCFF66CCFF99CCFFCCCCFFFFFF0000FF0033FF0066FF0099FF00CCFF00FFFF3300FF3333
310
FF3366FF3399FF33CCFF33FFFF6600FF6633FF6666FF6699FF66CCFF66FFFF9900FF9933FF9966FF9999FF99CCFF99FFFFCC00FFCC33FFCC66FFCC99FFCCCCFFCCFFFFFF00FFFF33FFFF66FFFF99FFFFCCFFFFFF0000000D0D0D1A1A1A2828283535354343435050505D5D5D6B6B6B787878868686939393A1A1A1AEAEAEBB
310
BBBBC9C9C9D6D6D6E4E4E4F1F1F1FFFFFF0000000000000000000000000000000000000000000000000000000000002E4550F1000000654944415478DAEDD5C10900200C03C0ECBFAF7F417DB8405FB9832E10129A0000000000000000000000000C5857790011406F0DBE09940670AEB9012F80A47B02E5AF000000000000
310
000000000000000000000000000000000000000000000000000080521BD22237837B56C15B0000000049454E44AE426082
  0
ENDSEC
  0
EOF
